SplineFontDB: 3.0
FontName: SHADOWTEMP
FullName: SHADOWTEMP
FamilyName: SHADOWTEMP
Weight: Regular
Copyright: Copyright (c) 2018, you
UComments: "2018-11-28: Created with FontForge (http://fontforge.org)"
Version: 001.000
ItalicAngle: 0
UnderlinePosition: -205
UnderlineWidth: 102
Ascent: 1843
Descent: 205
InvalidEm: 0
LayerCount: 2
Layer: 0 1 "+gMyXYgAA" 1
Layer: 1 1 "+Uk2XYgAA" 0
XUID: [1021 846 1137508600 5427]
OS2Version: 0
OS2_WeightWidthSlopeOnly: 0
OS2_UseTypoMetrics: 1
CreationTime: 1543378063
ModificationTime: 1543518132
OS2TypoAscent: 0
OS2TypoAOffset: 1
OS2TypoDescent: 0
OS2TypoDOffset: 1
OS2TypoLinegap: 0
OS2WinAscent: 0
OS2WinAOffset: 1
OS2WinDescent: 0
OS2WinDOffset: 1
HheadAscent: 0
HheadAOffset: 1
HheadDescent: 0
HheadDOffset: 1
OS2Vendor: 'PfEd'
MarkAttachClasses: 1
DEI: 91125
Encoding: UnicodeFull
UnicodeInterp: none
NameList: AGL For New Fonts
DisplaySize: -96
AntiAlias: 1
FitToEm: 0
WinInfo: 48 16 7
BeginPrivate: 0
EndPrivate
BeginChars: 1114112 86

StartChar: zero
Encoding: 48 48 0
Width: 1470
VWidth: -3
Flags: W
LayerCount: 2
Fore
SplineSet
373 1101 m 2,0,-1
 373 734 l 2,1,2
 373 684 373 684 385 638.5 c 128,-1,3
 397 593 397 593 420.5 552.5 c 128,-1,4
 444 512 444 512 480 477 c 0,5,6
 489 468 489 468 498 459.5 c 128,-1,7
 507 451 507 451 516.5 444 c 128,-1,8
 526 437 526 437 536 430 c 128,-1,9
 546 423 546 423 556 417 c 0,10,11
 576 405 576 405 597.5 396.5 c 128,-1,12
 619 388 619 388 642 382 c 0,13,14
 688 370 688 370 738 370 c 0,15,16
 889 370 889 370 995 477 c 0,17,18
 1048 530 1048 530 1075 594.5 c 128,-1,19
 1102 659 1102 659 1102 734 c 2,20,-1
 1102 1101 l 2,21,22
 1102 1109 1102 1109 1101.5 1117.5 c 128,-1,23
 1101 1126 1101 1126 1101 1134 c 0,24,25
 1100 1150 1100 1150 1097 1165.5 c 128,-1,26
 1094 1181 1094 1181 1090 1196 c 0,27,28
 1088 1204 1088 1204 1086 1211.5 c 128,-1,29
 1084 1219 1084 1219 1081 1226 c 0,30,31
 1076 1241 1076 1241 1069 1255 c 0,32,33
 1066 1262 1066 1262 1062.5 1269 c 128,-1,34
 1059 1276 1059 1276 1055 1282.5 c 128,-1,35
 1051 1289 1051 1289 1046.5 1295.5 c 128,-1,36
 1042 1302 1042 1302 1037 1309 c 0,37,38
 1028 1322 1028 1322 1017.5 1334.5 c 128,-1,39
 1007 1347 1007 1347 995 1358 c 0,40,41
 942 1411 942 1411 877.5 1438 c 0,42,43
 814 1465 814 1465 738 1465 c 0,44,45
 700 1465 700 1465 665 1458.5 c 128,-1,46
 630 1452 630 1452 597.5 1438.5 c 128,-1,47
 565 1425 565 1425 535.5 1405 c 128,-1,48
 506 1385 506 1385 480 1358 c 0,49,50
 462 1340 462 1340 447 1321.5 c 128,-1,51
 432 1303 432 1303 420.5 1282.5 c 128,-1,52
 409 1262 409 1262 400 1240.5 c 128,-1,53
 391 1219 391 1219 385 1196.5 c 128,-1,54
 379 1174 379 1174 376 1150 c 128,-1,55
 373 1126 373 1126 373 1101 c 2,0,-1
3 734 m 2,56,-1
 3 1101 l 2,57,58
 3 1253 3 1253 57 1382.5 c 128,-1,59
 111 1512 111 1512 218 1620 c 0,60,61
 433 1835 433 1835 737.5 1835 c 128,-1,62
 1042 1835 1042 1835 1257 1620 c 0,63,64
 1329 1548 1329 1548 1376.5 1466.5 c 128,-1,65
 1424 1385 1424 1385 1448 1293.5 c 128,-1,66
 1472 1202 1472 1202 1472 1101 c 2,67,-1
 1472 734 l 2,68,69
 1472 430 1472 430 1257 215 c 128,-1,70
 1042 0 1042 0 737.5 0 c 128,-1,71
 433 0 433 0 218 215 c 0,72,73
 110 323 110 323 56.5 452.5 c 128,-1,74
 3 582 3 582 3 734 c 2,56,-1
EndSplineSet
EndChar

StartChar: one
Encoding: 49 49 1
Width: 921
VWidth: -3
Flags: W
LayerCount: 2
Fore
SplineSet
3 3 m 2,0,-1
 3 184 l 2,1,2
 3 185 3 185 4 186 c 128,-1,3
 5 187 5 187 6 187 c 2,4,-1
 187 187 l 2,5,6
 188 187 188 187 189 186 c 0,7,8
 190 186 190 186 190 184 c 2,9,-1
 190 3 l 2,10,11
 190 2 190 2 189 1 c 128,-1,12
 188 0 188 0 187 0 c 2,13,-1
 6 0 l 2,14,15
 5 0 5 0 4 1 c 128,-1,16
 3 2 3 2 3 3 c 2,0,-1
922 1832 m 2,17,-1
 922 3 l 2,18,19
 922 2 922 2 921 1 c 128,-1,20
 920 0 920 0 919 0 c 2,21,-1
 556 0 l 2,22,23
 555 0 555 0 554 1 c 128,-1,24
 553 2 553 2 553 3 c 2,25,-1
 553 1832 l 2,26,27
 553 1833 553 1833 554 1834 c 128,-1,28
 555 1835 555 1835 556 1835 c 2,29,-1
 919 1835 l 2,30,31
 920 1835 920 1835 921 1834 c 128,-1,32
 922 1833 922 1833 922 1832 c 2,17,-1
EndSplineSet
EndChar

StartChar: two
Encoding: 50 50 2
Width: 1470
VWidth: -3
Flags: W
LayerCount: 2
Fore
SplineSet
10 1284 m 1,0,1
 44 1521 44 1521 225 1678 c 0,2,3
 316 1757 316 1757 421 1796 c 128,-1,4
 526 1835 526 1835 646 1835 c 2,5,-1
 921 1835 l 2,6,7
 997 1835 997 1835 1065.5 1817 c 128,-1,8
 1134 1799 1134 1799 1195.5 1763 c 128,-1,9
 1257 1727 1257 1727 1310 1674 c 0,10,11
 1391 1593 1391 1593 1431.5 1495.5 c 128,-1,12
 1472 1398 1472 1398 1472 1284 c 0,13,14
 1472 1054 1472 1054 1326 876 c 0,15,16
 1326 876 l 2,17,-1
 658 375 l 2,18,19
 657 374 657 374 657 373 c 128,-1,20
 657 372 657 372 657.5 371.5 c 0,21,22
 658 371 l 0,23,24
 659 370 659 370 659.5 370 c 0,25,-1
 660 370 l 2,26,-1
 1469 370 l 2,27,28
 1470 370 1470 370 1471 369 c 128,-1,29
 1472 368 1472 368 1472 367 c 2,30,-1
 1472 3 l 2,31,32
 1472 2 1472 2 1471 1 c 128,-1,33
 1470 0 1470 0 1469 0 c 2,34,-1
 6 0 l 2,35,36
 5 0 5 0 4 1 c 128,-1,37
 3 2 3 2 3 3 c 2,38,-1
 3 366 l 2,39,40
 3 367 3 367 3 368 c 2,41,-1
 4 369 l 2,42,43
 4 370 4 370 5 370 c 2,44,-1
 1030 1139 l 2,45,46
 1056 1159 1056 1159 1072.5 1181 c 128,-1,47
 1089 1203 1089 1203 1097 1229 c 0,48,49
 1113 1280 1113 1280 1093 1341 c 0,50,51
 1083 1372 1083 1372 1067 1395 c 128,-1,52
 1051 1418 1051 1418 1029 1434 c 0,53,54
 986 1465 986 1465 921 1465 c 2,55,-1
 646 1465 l 2,56,57
 632 1465 632 1465 618.5 1464 c 128,-1,58
 605 1463 605 1463 591 1460 c 0,59,60
 565 1455 565 1455 541 1445 c 0,61,62
 529 1440 529 1440 517.5 1434 c 128,-1,63
 506 1428 506 1428 495 1420.5 c 128,-1,64
 484 1413 484 1413 473.5 1404 c 128,-1,65
 463 1395 463 1395 453 1385 c 0,66,67
 448 1380 448 1380 443 1374.5 c 128,-1,68
 438 1369 438 1369 433.5 1363.5 c 128,-1,69
 429 1358 429 1358 424 1352 c 0,70,71
 411 1335 411 1335 401.5 1316.5 c 128,-1,72
 392 1298 392 1298 386 1278.5 c 128,-1,73
 380 1259 380 1259 376.5 1238 c 128,-1,74
 373 1217 373 1217 373 1194 c 0,75,76
 373 1192 373 1192 372 1192 c 2,77,-1
 371 1192 l 2,78,79
 370 1191 370 1191 369 1191 c 2,80,-1
 12 1280 l 2,81,82
 12 1280 l 0,83,-1
 12 1280 l 2,84,-1
 10 1284 l 1,0,1
EndSplineSet
EndChar

StartChar: three
Encoding: 51 51 3
Width: 1463
VWidth: -3
Flags: W
LayerCount: 2
Fore
SplineSet
89 1835 m 2,0,-1
 1368 1835 l 2,1,2
 1369 1835 1369 1835 1370 1834 c 128,-1,3
 1371 1833 1371 1833 1371 1832 c 2,4,-1
 1371 1468 l 2,5,6
 1371 1467 l 2,7,-1
 1370 1466 l 2,8,9
 1370 1465 l 2,10,-1
 923 1108 l 2,11,12
 922 1107 922 1107 922 1106 c 0,13,14
 922 1105 l 0,15,16
 922.5 1104.5 l 0,17,18
 923 1104 923 1104 923 1103.5 c 0,19,-1
 923 1103 l 0,20,21
 924 1102 924 1102 925 1102 c 0,22,23
 1035 1099 1035 1099 1135 1055 c 0,24,25
 1185 1033 1185 1033 1227.5 1003.5 c 128,-1,26
 1270 974 1270 974 1306 937 c 0,27,28
 1330 912 1330 912 1351 884.5 c 128,-1,29
 1372 857 1372 857 1389 826.5 c 128,-1,30
 1406 796 1406 796 1421 762 c 0,31,32
 1463 661 1463 661 1463 551 c 0,33,34
 1463 494 1463 494 1453 441 c 128,-1,35
 1443 388 1443 388 1423 340 c 0,36,37
 1383 243 1383 243 1302 162 c 128,-1,38
 1221 81 1221 81 1123.5 40.5 c 128,-1,39
 1026 0 1026 0 912 0 c 2,40,-1
 454 0 l 2,41,42
 290 0 290 0 162 104 c 0,43,44
 36 208 36 208 3 369 c 0,45,46
 3 370 3 370 3.5 371 c 128,-1,47
 4 372 4 372 6 372 c 2,48,-1
 360 461 l 2,49,50
 361 461 361 461 361.5 461 c 128,-1,51
 362 461 362 461 362.5 460.5 c 128,-1,52
 363 460 363 460 363.5 459.5 c 128,-1,53
 364 459 364 459 364 458 c 0,54,55
 365 422 365 422 390 396 c 0,56,57
 393 393 393 393 395.5 391 c 128,-1,58
 398 389 398 389 401 387 c 0,59,60
 402 386 402 386 404 385 c 128,-1,61
 406 384 406 384 407.5 383 c 128,-1,62
 409 382 409 382 410.5 381 c 128,-1,63
 412 380 412 380 413 379 c 0,64,65
 419 376 419 376 426 374 c 0,66,67
 429 373 429 373 432.5 372 c 128,-1,68
 436 371 436 371 439.5 370.5 c 128,-1,69
 443 370 443 370 446.5 370 c 128,-1,70
 450 370 450 370 454 370 c 2,71,-1
 912 370 l 2,72,73
 987 370 987 370 1040 423 c 0,74,75
 1066 449 1066 449 1079.5 481.5 c 128,-1,76
 1093 514 1093 514 1093 551 c 0,77,78
 1093 626 1093 626 1040 679.5 c 128,-1,79
 987 733 987 733 912 733 c 2,80,-1
 364 733 l 2,81,82
 363 733 363 733 361.5 734 c 128,-1,83
 360 735 360 735 360 736 c 2,84,-1
 360 1099 l 2,85,-1
 360.5 1099.5 l 0,86,-1
 361 1100 l 0,87,-1
 361 1101 l 2,88,-1
 361 1102 l 2,89,90
 361.5 1102.5 l 0,91,-1
 362 1103 l 2,92,-1
 808 1460 l 2,93,94
 809 1461 l 0,95,96
 809.5 1461.5 l 0,97,98
 810 1462 810 1462 809 1463 c 0,99,-1
 809 1464 l 0,100,101
 808 1465 l 0,102,103
 807 1465 807 1465 806 1465 c 2,104,-1
 89 1465 l 2,105,106
 88 1465 88 1465 87 1466 c 128,-1,107
 86 1467 86 1467 86 1468 c 2,108,-1
 86 1832 l 2,109,110
 86 1833 86 1833 87 1834 c 128,-1,111
 88 1835 88 1835 89 1835 c 2,0,-1
EndSplineSet
EndChar

StartChar: four
Encoding: 52 52 4
Width: 1470
VWidth: -3
Flags: W
LayerCount: 2
Fore
SplineSet
827 831 m 2,0,-1
 827 1270 l 2,1,2
 827 1271 827 1271 827 1271.5 c 128,-1,3
 827 1272 827 1272 826 1272 c 0,4,5
 825 1273 825 1273 824 1273 c 128,-1,6
 823 1273 823 1273 822 1272 c 2,7,-1
 462 833 l 2,8,9
 461 832 461 832 462 831 c 0,10,11
 462 830.5 l 0,12,13
 462 830 462 830 462 829 c 0,14,-1
 462 829 l 0,15,-1
 462 829 l 0,16,-1
 462.5 828.5 l 0,17,-1
 463 828 l 0,18,19
 464 827 464 827 465 828 c 2,20,-1
 824 828 l 2,21,22
 825 828 825 828 826 829 c 128,-1,23
 827 830 827 830 827 831 c 2,0,-1
1200 828 m 2,24,-1
 1469 828 l 2,25,26
 1470 828 1470 828 1471 827 c 128,-1,27
 1472 826 1472 826 1472 824 c 2,28,-1
 1472 461 l 2,29,30
 1472 460 1472 460 1471 459 c 128,-1,31
 1470 458 1470 458 1469 458 c 2,32,-1
 1200 458 l 2,33,34
 1199 458 1199 458 1199 457.5 c 128,-1,35
 1199 457 1199 457 1198 457 c 0,36,-1
 1197.5 456.5 l 0,37,38
 1197 456 1197 456 1197 455.5 c 0,39,40
 1197 455 l 2,41,-1
 1197 3 l 2,42,43
 1197 2 1197 2 1196 1 c 128,-1,44
 1195 0 1195 0 1194 0 c 2,45,-1
 830 0 l 2,46,47
 829 0 829 0 828 1 c 128,-1,48
 827 2 827 2 827 3 c 2,49,-1
 827 455 l 2,50,51
 827 456 827 456 826 457 c 128,-1,52
 825 458 825 458 824 458 c 2,53,-1
 6 458 l 2,54,55
 5 458 5 458 4 459 c 128,-1,56
 3 460 3 460 3 461 c 2,57,-1
 3 825 l 1,58,-1
 3 826 l 1,59,-1
 4 827 l 2,60,-1
 4 828 l 2,61,-1
 827 1833 l 2,62,-1
 827.5 1833.5 l 0,63,-1
 828 1834 l 0,64,-1
 828.5 1834.5 l 0,65,-1
 829 1835 l 2,66,-1
 1194 1835 l 2,67,68
 1195 1835 1195 1835 1196 1834 c 128,-1,69
 1197 1833 1197 1833 1197 1832 c 2,70,-1
 1197 831 l 2,71,72
 1197 830 1197 830 1197.5 829.5 c 0,73,-1
 1198 829 l 0,74,-1
 1199 828 l 0,75,-1
 1200 828 l 2,24,-1
EndSplineSet
EndChar

StartChar: five
Encoding: 53 53 5
Width: 1470
VWidth: -3
Flags: W
LayerCount: 2
Fore
SplineSet
1289 1832 m 2,0,-1
 1289 1468 l 2,1,2
 1289 1467 1289 1467 1288 1466 c 128,-1,3
 1287 1465 1287 1465 1286 1465 c 2,4,-1
 376 1465 l 2,5,6
 375 1465 375 1465 374.5 1465 c 128,-1,7
 374 1465 374 1465 374 1464 c 0,8,9
 373.5 1463.5 l 0,10,11
 373 1463 373 1463 373 1462.5 c 0,12,-1
 373 1462 l 2,13,-1
 373 1106 l 2,14,15
 373 1105 373 1105 374 1103 c 0,16,-1
 375 1102 l 0,17,-1
 376 1102 l 2,18,-1
 921 1102 l 2,19,20
 1149 1102 1149 1102 1310.5 940.5 c 128,-1,21
 1472 779 1472 779 1472 551 c 128,-1,22
 1472 323 1472 323 1310 162 c 0,23,24
 1229 81 1229 81 1132 40 c 0,25,26
 1083 20 1083 20 1030.5 10 c 128,-1,27
 978 0 978 0 921 0 c 2,28,-1
 463 0 l 2,29,30
 298 0 298 0 171 104 c 0,31,32
 45 208 45 208 12 369 c 0,33,34
 12 370 12 370 12.5 371 c 128,-1,35
 13 372 13 372 14 372 c 2,36,-1
 369 461 l 2,37,38
 370 461 370 461 371 460 c 2,39,-1
 372 460 l 2,40,41
 373 459 373 459 373 458 c 0,42,43
 374 422 374 422 399 396 c 0,44,45
 406 389 406 389 413 385 c 0,46,47
 417 383 417 383 420.5 380.5 c 128,-1,48
 424 378 424 378 428 376 c 0,49,50
 436 373 436 373 445 371 c 0,51,52
 449 370 449 370 453.5 370 c 128,-1,53
 458 370 458 370 463 370 c 2,54,-1
 921 370 l 2,55,56
 996 370 996 370 1049 423 c 0,57,58
 1067 441 1067 441 1078.5 461 c 128,-1,59
 1090 481 1090 481 1096 504 c 0,60,61
 1099 515 1099 515 1100.5 527 c 128,-1,62
 1102 539 1102 539 1102 551 c 0,63,64
 1102 626 1102 626 1049 679 c 0,65,66
 1022 706 1022 706 990 719.5 c 128,-1,67
 958 733 958 733 921 733 c 2,68,-1
 6 733 l 2,69,70
 5 733 5 733 4 734 c 128,-1,71
 3 735 3 735 3 736 c 2,72,-1
 3 1832 l 2,73,74
 3 1833 3 1833 4 1834 c 128,-1,75
 5 1835 5 1835 6 1835 c 2,76,-1
 1286 1835 l 2,77,78
 1287 1835 1287 1835 1288 1834 c 128,-1,79
 1289 1833 1289 1833 1289 1832 c 2,0,-1
EndSplineSet
EndChar

StartChar: six
Encoding: 54 54 6
Width: 1470
VWidth: -3
Flags: W
LayerCount: 2
Fore
SplineSet
704 1102 m 2,0,-1
 921 1102 l 2,1,2
 1071 1102 1071 1102 1197.5 1028.5 c 128,-1,3
 1324 955 1324 955 1398 828 c 128,-1,4
 1472 701 1472 701 1472 551 c 0,5,6
 1472 323 1472 323 1310 162 c 0,7,8
 1229 81 1229 81 1132 40 c 0,9,10
 1083 20 1083 20 1030.5 10 c 128,-1,11
 978 0 978 0 921 0 c 2,12,-1
 554 0 l 2,13,14
 454 0 454 0 360.5 35 c 128,-1,15
 267 70 267 70 192 135 c 0,16,17
 154 168 154 168 123.5 206.5 c 128,-1,18
 93 245 93 245 69 289 c 0,19,20
 -3 423 -3 423 3.5 574.5 c 128,-1,21
 10 726 10 726 93 853 c 2,22,-1
 735 1833 l 2,23,24
 736 1834 736 1834 738 1834 c 2,25,-1
 1173 1835 l 2,26,27
 1174 1835 1174 1835 1175 1834 c 128,-1,28
 1176 1833 1176 1833 1176 1832 c 0,29,30
 1176 1831 l 0,31,32
 1176 1830 1176 1830 1175 1830 c 2,33,-1
 702 1107 l 2,34,35
 701 1106 701 1106 701.5 1104.5 c 128,-1,36
 702 1103 702 1103 703 1103 c 0,37,-1
 703.5 1102.5 l 0,38,-1
 704 1102 l 0,39,-1
 704 1102 l 2,0,-1
921 733 m 2,40,-1
 554 733 l 2,41,42
 529 733 529 733 507 727 c 0,43,44
 496 724 496 724 485 719.5 c 128,-1,45
 474 715 474 715 464 709 c 128,-1,46
 454 703 454 703 444.5 695.5 c 128,-1,47
 435 688 435 688 426 679 c 0,48,49
 399 652 399 652 386 620.5 c 128,-1,50
 373 589 373 589 373 551 c 0,51,52
 373 536 373 536 375 522 c 128,-1,53
 377 508 377 508 381.5 494.5 c 128,-1,54
 386 481 386 481 392.5 469 c 128,-1,55
 399 457 399 457 407.5 445.5 c 128,-1,56
 416 434 416 434 426 423 c 0,57,58
 479 370 479 370 554 370 c 2,59,-1
 921 370 l 2,60,61
 996 370 996 370 1049 423 c 0,62,63
 1067 441 1067 441 1078.5 461 c 128,-1,64
 1090 481 1090 481 1096 504 c 0,65,66
 1099 515 1099 515 1100.5 527 c 128,-1,67
 1102 539 1102 539 1102 551 c 0,68,69
 1102 626 1102 626 1049 679 c 0,70,71
 1023 705 1023 705 990 719 c 0,72,73
 974 726 974 726 957 729.5 c 128,-1,74
 940 733 940 733 921 733 c 2,40,-1
EndSplineSet
EndChar

StartChar: seven
Encoding: 55 55 7
Width: 1470
VWidth: -3
Flags: W
LayerCount: 2
Fore
SplineSet
3 1468 m 2,0,-1
 3 1832 l 2,1,2
 3 1833 3 1833 4 1834 c 128,-1,3
 5 1835 5 1835 6 1835 c 2,4,-1
 1469 1835 l 2,5,6
 1470 1835 1470 1835 1471 1834 c 128,-1,7
 1472 1833 1472 1833 1472 1832 c 2,8,-1
 1472 1467 l 2,9,10
 1472 1467 l 2,11,-1
 1472 1467 l 2,12,13
 1472 1466.5 l 0,14,15
 1472 1466 1472 1466 1471 1466 c 2,16,-1
 740 2 l 2,17,18
 740 1 740 1 739 1 c 2,19,-1
 737 0 l 2,20,-1
 736 0 l 2,21,-1
 282 0 l 2,22,23
 281 0 281 0 280.5 0.5 c 128,-1,24
 280 1 280 1 279.5 1 c 128,-1,25
 279 1 279 1 279 2 c 0,26,-1
 279 3 l 0,27,28
 279 4 279 4 279 5 c 2,29,-1
 1007 1461 l 2,30,31
 1008 1462 1008 1462 1007 1463 c 0,32,33
 1007 1464 1007 1464 1006.5 1464.5 c 0,34,-1
 1006 1465 l 0,35,36
 1005 1465 1005 1465 1004 1465 c 2,37,-1
 6 1465 l 2,38,39
 5 1465 5 1465 4 1466 c 128,-1,40
 3 1467 3 1467 3 1468 c 2,0,-1
EndSplineSet
EndChar

StartChar: eight
Encoding: 56 56 8
Width: 1470
VWidth: -3
Flags: W
LayerCount: 2
Fore
SplineSet
555 370 m 2,0,-1
 921 370 l 2,1,2
 939 370 939 370 957 373.5 c 128,-1,3
 975 377 975 377 992 384 c 0,4,5
 1026 398 1026 398 1050 423 c 0,6,7
 1062 435 1062 435 1071.5 449.5 c 128,-1,8
 1081 464 1081 464 1088 480.5 c 128,-1,9
 1095 497 1095 497 1099 515 c 0,10,11
 1101 524 1101 524 1102 533 c 128,-1,12
 1103 542 1103 542 1103 551 c 0,13,14
 1103 626 1103 626 1049.5 679.5 c 128,-1,15
 996 733 996 733 921 733 c 2,16,-1
 555 733 l 2,17,18
 530 733 530 733 507 727 c 128,-1,19
 484 721 484 721 464 709 c 128,-1,20
 444 697 444 697 427 679 c 0,21,22
 400 652 400 652 387 621 c 0,23,24
 380 605 380 605 376.5 587.5 c 128,-1,25
 373 570 373 570 373 551 c 0,26,27
 373 547 373 547 373.5 543.5 c 128,-1,28
 374 540 374 540 374 536.5 c 128,-1,29
 374 533 374 533 374.5 529.5 c 128,-1,30
 375 526 375 526 376 522 c 0,31,32
 378 508 378 508 382 494.5 c 128,-1,33
 386 481 386 481 393 469 c 0,34,35
 396 463 396 463 399.5 457 c 128,-1,36
 403 451 403 451 407 445 c 0,37,38
 410 441 410 441 413 437.5 c 128,-1,39
 416 434 416 434 419.5 430 c 128,-1,40
 423 426 423 426 427 423 c 0,41,42
 438 412 438 412 449 403.5 c 128,-1,43
 460 395 460 395 473 389 c 0,44,45
 479 386 479 386 485.5 383 c 128,-1,46
 492 380 492 380 498 378 c 0,47,48
 511 374 511 374 526 372 c 0,49,50
 533 371 533 371 540 370.5 c 128,-1,51
 547 370 547 370 555 370 c 2,0,-1
646 1102 m 2,52,-1
 830 1102 l 2,53,54
 905 1102 905 1102 958 1155.5 c 128,-1,55
 1011 1209 1011 1209 1011 1284 c 0,56,57
 1011 1321 1011 1321 997.5 1353.5 c 128,-1,58
 984 1386 984 1386 958 1412 c 0,59,60
 949 1421 949 1421 939.5 1428.5 c 128,-1,61
 930 1436 930 1436 920 1442 c 0,62,63
 913 1446 913 1446 906 1449 c 128,-1,64
 899 1452 899 1452 892 1454.5 c 128,-1,65
 885 1457 885 1457 877 1459 c 0,66,67
 854 1465 854 1465 830 1465 c 2,68,-1
 646 1465 l 2,69,70
 571 1465 571 1465 518 1412 c 128,-1,71
 465 1359 465 1359 465 1284 c 0,72,73
 465 1247 465 1247 478.5 1214.5 c 128,-1,74
 492 1182 492 1182 518 1156 c 0,75,76
 531 1143 531 1143 546 1132 c 0,77,78
 553 1127 553 1127 561 1123 c 128,-1,79
 569 1119 569 1119 577 1116 c 0,80,81
 593 1109 593 1109 610 1105.5 c 128,-1,82
 627 1102 627 1102 646 1102 c 2,52,-1
646 1835 m 2,83,-1
 830 1835 l 2,84,85
 932 1835 932 1835 1026 1799 c 0,86,87
 1050 1790 1050 1790 1072.5 1779 c 128,-1,88
 1095 1768 1095 1768 1116 1755 c 128,-1,89
 1137 1742 1137 1742 1157 1727.5 c 128,-1,90
 1177 1713 1177 1713 1196 1696 c 0,91,92
 1272 1629 1272 1629 1319 1538 c 0,93,94
 1390 1402 1390 1402 1380 1249 c 128,-1,95
 1370 1096 1370 1096 1283 971 c 0,96,97
 1282 970 1282 970 1283 968 c 0,98,99
 1283 967 1283 967 1284 967 c 0,100,101
 1413 854 1413 854 1455 687 c 0,102,103
 1476 604 1476 604 1472 522 c 0,104,105
 1470 481 1470 481 1461.5 440.5 c 128,-1,106
 1453 400 1453 400 1438 360 c 0,107,108
 1378 198 1378 198 1236 99 c 128,-1,109
 1094 0 1094 0 921 0 c 2,110,-1
 555 0 l 2,111,112
 382 0 382 0 240 99 c 0,113,114
 169 148 169 148 118.5 213.5 c 128,-1,115
 68 279 68 279 38 360 c 0,116,117
 -22 521 -22 521 21 687 c 0,118,119
 63 853 63 853 192 967 c 0,120,-1
 192.5 967.5 l 0,121,122
 193 968 193 968 193 969 c 128,-1,123
 193 970 193 970 193 971 c 0,124,125
 106 1097 106 1097 96 1249 c 0,126,127
 91 1325 91 1325 106.5 1397.5 c 128,-1,128
 122 1470 122 1470 157 1538 c 0,129,130
 193 1606 193 1606 243.5 1660.5 c 128,-1,131
 294 1715 294 1715 360 1755 c 128,-1,132
 426 1795 426 1795 497.5 1815 c 128,-1,133
 569 1835 569 1835 646 1835 c 2,83,-1
EndSplineSet
EndChar

StartChar: nine
Encoding: 57 57 9
Width: 1470
VWidth: -3
Flags: W
LayerCount: 2
Fore
SplineSet
736 0 m 1,0,-1
 302 0 l 2,1,2
 301 0 301 0 300.5 0.5 c 128,-1,3
 300 1 300 1 299.5 1 c 128,-1,4
 299 1 299 1 299 2 c 0,5,-1
 299 3 l 0,6,7
 299 4 l 0,8,-1
 299 5 l 2,9,-1
 773 728 l 2,10,11
 773 729 773 729 773.5 729 c 128,-1,12
 774 729 774 729 773 730 c 0,13,14
 773 731 773 731 772 732 c 0,15,16
 771.5 732.5 l 0,17,18
 771 733 771 733 770 733 c 2,19,-1
 554 733 l 2,20,21
 326 733 326 733 164.5 894.5 c 128,-1,22
 3 1056 3 1056 3 1284 c 0,23,24
 3 1434 3 1434 77 1560.5 c 128,-1,25
 151 1687 151 1687 277 1761 c 0,26,27
 309 1779 309 1779 342 1793 c 128,-1,28
 375 1807 375 1807 410 1817 c 0,29,30
 479 1835 479 1835 554 1835 c 2,31,-1
 920 1835 l 2,32,33
 996 1835 996 1835 1067 1816 c 0,34,35
 1102 1806 1102 1806 1136 1791.5 c 128,-1,36
 1170 1777 1170 1777 1203 1757 c 0,37,38
 1246 1731 1246 1731 1283 1699 c 128,-1,39
 1320 1667 1320 1667 1350.5 1628.5 c 128,-1,40
 1381 1590 1381 1590 1405 1546 c 0,41,42
 1477 1412 1477 1412 1471 1261 c 0,43,44
 1468 1185 1468 1185 1445 1115 c 0,45,46
 1441 1101 1441 1101 1435.5 1087.5 c 128,-1,47
 1430 1074 1430 1074 1424 1060.5 c 128,-1,48
 1418 1047 1418 1047 1411.5 1033.5 c 128,-1,49
 1405 1020 1405 1020 1397.5 1007 c 128,-1,50
 1390 994 1390 994 1381 982 c 2,51,-1
 739 1 l 2,52,53
 739 0 739 0 738 0 c 2,54,-1
 736 0 l 1,0,-1
554 1102 m 2,55,-1
 920 1102 l 2,56,57
 995 1102 995 1102 1048.5 1155.5 c 128,-1,58
 1102 1209 1102 1209 1102 1284 c 0,59,60
 1102 1295 1102 1295 1101 1305 c 128,-1,61
 1100 1315 1100 1315 1097 1325 c 0,62,63
 1096 1330 1096 1330 1095 1335 c 128,-1,64
 1094 1340 1094 1340 1092 1344.5 c 128,-1,65
 1090 1349 1090 1349 1088.5 1353.5 c 128,-1,66
 1087 1358 1087 1358 1084 1363 c 0,67,68
 1080 1372 1080 1372 1074.5 1380 c 128,-1,69
 1069 1388 1069 1388 1062.5 1396.5 c 128,-1,70
 1056 1405 1056 1405 1049 1412 c 0,71,72
 1023 1438 1023 1438 990.5 1451.5 c 128,-1,73
 958 1465 958 1465 920 1465 c 2,74,-1
 554 1465 l 2,75,76
 517 1465 517 1465 484 1452 c 0,77,78
 468 1445 468 1445 453.5 1435 c 128,-1,79
 439 1425 439 1425 426 1412 c 0,80,81
 419 1405 419 1405 413 1398.5 c 128,-1,82
 407 1392 407 1392 402.5 1384.5 c 128,-1,83
 398 1377 398 1377 393.5 1369.5 c 128,-1,84
 389 1362 389 1362 386 1354 c 0,85,86
 379 1338 379 1338 376 1320.5 c 128,-1,87
 373 1303 373 1303 373 1284 c 0,88,89
 373 1209 373 1209 426 1155.5 c 128,-1,90
 479 1102 479 1102 554 1102 c 2,55,-1
EndSplineSet
EndChar

StartChar: F
Encoding: 70 70 10
Width: 1470
VWidth: -3
Flags: W
LayerCount: 2
Fore
SplineSet
1472 1832 m 2,0,-1
 1472 1468 l 2,1,2
 1472 1467 1472 1467 1471 1466 c 128,-1,3
 1470 1465 1470 1465 1469 1465 c 2,4,-1
 376 1465 l 2,5,6
 375 1465 375 1465 374.5 1465 c 128,-1,7
 374 1465 374 1465 374 1464 c 0,8,9
 373.5 1463.5 l 0,10,11
 373 1463 373 1463 373 1462.5 c 0,12,-1
 373 1462 l 2,13,-1
 373 1106 l 2,14,15
 373 1105 373 1105 374 1103 c 0,16,-1
 374.5 1103 l 0,17,18
 375 1103 375 1103 375 1102.5 c 128,-1,19
 375 1102 375 1102 375.5 1102 c 0,20,-1
 376 1102 l 2,21,-1
 1102 1102 l 2,22,23
 1103 1102 1103 1102 1104.5 1101 c 128,-1,24
 1106 1100 1106 1100 1106 1099 c 2,25,-1
 1106 736 l 2,26,27
 1106 735 1106 735 1105 734 c 128,-1,28
 1104 733 1104 733 1102 733 c 2,29,-1
 376 733 l 2,30,31
 375 733 375 733 374 732 c 0,32,33
 373 732 373 732 373 730 c 2,34,-1
 373 3 l 2,35,36
 373 2 373 2 372 1 c 128,-1,37
 371 0 371 0 370 0 c 2,38,-1
 6 0 l 2,39,40
 5 0 5 0 4 1 c 128,-1,41
 3 2 3 2 3 3 c 2,42,-1
 3 1832 l 2,43,44
 3 1833 3 1833 4 1834 c 128,-1,45
 5 1835 5 1835 6 1835 c 2,46,-1
 1469 1835 l 2,47,48
 1470 1835 1470 1835 1471 1834 c 128,-1,49
 1472 1833 1472 1833 1472 1832 c 2,0,-1
EndSplineSet
EndChar

StartChar: G
Encoding: 71 71 11
Width: 1470
VWidth: -3
Flags: W
LayerCount: 2
Fore
SplineSet
1099 550 m 2,0,-1
 739 550 l 2,1,2
 738 550 738 550 737 551 c 128,-1,3
 736 552 736 552 736 553 c 2,4,-1
 736 916 l 2,5,6
 736 917 736 917 737 918 c 128,-1,7
 738 919 738 919 739 919 c 2,8,-1
 1469 919 l 2,9,10
 1470 919 1470 919 1471 918 c 128,-1,11
 1472 917 1472 917 1472 916 c 2,12,-1
 1472 460 l 2,13,14
 1472 365 1472 365 1438.5 283.5 c 128,-1,15
 1405 202 1405 202 1337 135 c 0,16,17
 1315 113 1315 113 1291 94 c 128,-1,18
 1267 75 1267 75 1241.5 60 c 128,-1,19
 1216 45 1216 45 1189 34 c 0,20,21
 1108 0 1108 0 1012 0 c 2,22,-1
 463 0 l 2,23,24
 273 0 273 0 138 134.5 c 128,-1,25
 3 269 3 269 3 460 c 2,26,-1
 3 1375 l 2,27,28
 3 1470 3 1470 36.5 1551.5 c 128,-1,29
 70 1633 70 1633 137.5 1700.5 c 128,-1,30
 205 1768 205 1768 286.5 1801.5 c 128,-1,31
 368 1835 368 1835 463 1835 c 2,32,-1
 1012 1835 l 2,33,34
 1044 1835 1044 1835 1074 1831.5 c 128,-1,35
 1104 1828 1104 1828 1133 1820.5 c 128,-1,36
 1162 1813 1162 1813 1189 1801 c 0,37,38
 1230 1784 1230 1784 1267 1759 c 128,-1,39
 1304 1734 1304 1734 1337 1700 c 0,40,41
 1404 1633 1404 1633 1438 1552 c 128,-1,42
 1472 1471 1472 1471 1472 1375 c 2,43,-1
 1472 1285 l 2,44,45
 1472 1284 1472 1284 1471 1283 c 128,-1,46
 1470 1282 1470 1282 1469 1282 c 2,47,-1
 1105 1282 l 2,48,49
 1104 1282 1104 1282 1103 1283 c 128,-1,50
 1102 1284 1102 1284 1102 1285 c 2,51,-1
 1102 1375 l 2,52,53
 1102 1393 1102 1393 1095.5 1409.5 c 128,-1,54
 1089 1426 1089 1426 1076 1439 c 0,55,56
 1072 1443 1072 1443 1067 1447 c 128,-1,57
 1062 1451 1062 1451 1057 1453.5 c 128,-1,58
 1052 1456 1052 1456 1047 1459 c 0,59,60
 1039 1462 1039 1462 1030.5 1463.5 c 128,-1,61
 1022 1465 1022 1465 1012 1465 c 2,62,-1
 463 1465 l 2,63,64
 444 1465 444 1465 428 1458.5 c 128,-1,65
 412 1452 412 1452 399 1439 c 0,66,67
 392 1432 392 1432 387.5 1425 c 128,-1,68
 383 1418 383 1418 379 1410 c 0,69,70
 377 1406 377 1406 376 1402 c 128,-1,71
 375 1398 375 1398 375 1393 c 0,72,73
 374 1390 374 1390 373.5 1387.5 c 128,-1,74
 373 1385 373 1385 373 1381.5 c 128,-1,75
 373 1378 373 1378 373 1375 c 2,76,-1
 373 460 l 2,77,78
 373 455 373 455 373.5 450.5 c 128,-1,79
 374 446 374 446 375 442 c 0,80,81
 377 433 377 433 379 425 c 0,82,83
 381 421 381 421 383 417.5 c 128,-1,84
 385 414 385 414 388 410 c 0,85,86
 393 403 393 403 399.5 396.5 c 128,-1,87
 406 390 406 390 413 385 c 0,88,89
 415 383 415 383 417.5 381.5 c 128,-1,90
 420 380 420 380 423 378.5 c 128,-1,91
 426 377 426 377 428 376 c 0,92,93
 436 373 436 373 445 371 c 0,94,95
 448 370 448 370 451 370 c 128,-1,96
 454 370 454 370 457 370 c 128,-1,97
 460 370 460 370 463 370 c 2,98,-1
 1012 370 l 2,99,100
 1024 370 1024 370 1036 373 c 0,101,102
 1042 374 1042 374 1047 376.5 c 128,-1,103
 1052 379 1052 379 1057 382 c 0,104,105
 1067 388 1067 388 1076 396 c 0,106,107
 1083 403 1083 403 1087.5 410 c 128,-1,108
 1092 417 1092 417 1095.5 425 c 128,-1,109
 1099 433 1099 433 1100.5 441.5 c 128,-1,110
 1102 450 1102 450 1102 460 c 2,111,-1
 1102 546 l 2,112,113
 1102 547 1102 547 1102 547.5 c 128,-1,114
 1102 548 1102 548 1101 548 c 0,115,116
 1100 549 1100 549 1100 549.5 c 128,-1,117
 1100 550 1100 550 1099 550 c 2,0,-1
EndSplineSet
EndChar

StartChar: H
Encoding: 72 72 12
Width: 1470
VWidth: -3
Flags: W
LayerCount: 2
Fore
SplineSet
1469 0 m 1,0,-1
 1105 0 l 2,1,2
 1103 0 1103 0 1102 2 c 0,3,4
 1102 3 l 2,5,-1
 1102 730 l 2,6,7
 1102 730.5 l 0,8,-1
 1102 731 l 0,9,-1
 1101 732 l 0,10,11
 1100 733 l 0,12,-1
 1099 733 l 2,13,-1
 376 733 l 2,14,15
 375 733 375 733 374 732 c 0,16,17
 373 732 373 732 373 730 c 2,18,-1
 373 3 l 2,19,20
 373 2 373 2 372 1 c 128,-1,21
 371 0 371 0 370 0 c 2,22,-1
 6 0 l 2,23,24
 5 0 5 0 4 1 c 128,-1,25
 3 2 3 2 3 3 c 2,26,-1
 3 1827 l 2,27,28
 3 1828 3 1828 4 1829 c 128,-1,29
 5 1830 5 1830 6 1830 c 2,30,-1
 370 1835 l 2,31,32
 371 1835 371 1835 371.5 1834.5 c 128,-1,33
 372 1834 372 1834 372.5 1833.5 c 128,-1,34
 373 1833 373 1833 373 1832 c 2,35,-1
 373 1106 l 2,36,37
 373 1105 373 1105 374 1103 c 0,38,39
 374.5 1103 l 0,40,41
 375 1103 375 1103 375 1102.5 c 128,-1,42
 375 1102 375 1102 375.5 1102 c 0,43,-1
 376 1102 l 2,44,-1
 1099 1102 l 2,45,46
 1100 1102 1100 1102 1100.5 1102.5 c 0,47,-1
 1101 1103 l 0,48,-1
 1101.5 1104 l 0,49,-1
 1102 1105 l 0,50,-1
 1102 1106 l 2,51,-1
 1102 1832 l 2,52,53
 1102 1833 1102 1833 1103 1834 c 128,-1,54
 1104 1835 1104 1835 1105 1835 c 2,55,-1
 1464 1835 l 2,56,57
 1465 1835 1465 1835 1466 1834 c 128,-1,58
 1467 1833 1467 1833 1467 1832 c 2,59,-1
 1472 3 l 1,60,61
 1471 1 1471 1 1469 0 c 1,0,-1
EndSplineSet
EndChar

StartChar: I
Encoding: 73 73 13
Width: 921
VWidth: -3
Flags: W
LayerCount: 2
Fore
SplineSet
553 3 m 2,0,-1
 553 1832 l 2,1,2
 553 1833 553 1833 554 1834 c 128,-1,3
 555 1835 555 1835 556 1835 c 2,4,-1
 919 1835 l 2,5,6
 920 1835 920 1835 921 1834 c 128,-1,7
 922 1833 922 1833 922 1832 c 2,8,-1
 922 3 l 2,9,10
 922 2 922 2 921 1 c 128,-1,11
 920 0 920 0 919 0 c 2,12,-1
 556 0 l 2,13,14
 555 0 555 0 554 1 c 128,-1,15
 553 2 553 2 553 3 c 2,0,-1
6 187 m 2,16,-1
 187 187 l 2,17,18
 188 187 188 187 189 186 c 0,19,20
 190 186 190 186 190 184 c 2,21,-1
 190 3 l 2,22,23
 190 2 190 2 189 1 c 128,-1,24
 188 0 188 0 187 0 c 2,25,-1
 6 0 l 2,26,27
 5 0 5 0 4 1 c 128,-1,28
 3 2 3 2 3 3 c 2,29,-1
 3 184 l 2,30,31
 3 185 3 185 4 186 c 128,-1,32
 5 187 5 187 6 187 c 2,16,-1
EndSplineSet
EndChar

StartChar: J
Encoding: 74 74 14
Width: 1470
VWidth: -3
Flags: W
LayerCount: 2
Fore
SplineSet
6 553 m 1,0,-1
 370 553 l 2,1,2
 371 553 371 553 372 552 c 128,-1,3
 373 551 373 551 373 550 c 0,4,5
 373 513 373 513 386.5 481 c 128,-1,6
 400 449 400 449 426 423 c 0,7,8
 444 405 444 405 464 393.5 c 128,-1,9
 484 382 484 382 506.5 376 c 128,-1,10
 529 370 529 370 554 370 c 0,11,12
 629 370 629 370 682.5 423 c 128,-1,13
 736 476 736 476 736 551 c 2,14,-1
 736 1462 l 2,15,16
 736 1463 736 1463 735.5 1463.5 c 0,17,-1
 735 1464 l 0,18,19
 734 1465 734 1465 733.5 1465 c 0,20,-1
 733 1465 l 2,21,-1
 6 1465 l 2,22,23
 5 1465 5 1465 4 1466 c 128,-1,24
 3 1467 3 1467 3 1468 c 2,25,-1
 3 1832 l 2,26,27
 3 1833 3 1833 4 1834 c 128,-1,28
 5 1835 5 1835 6 1835 c 2,29,-1
 1469 1835 l 2,30,31
 1470 1835 1470 1835 1471 1834 c 128,-1,32
 1472 1833 1472 1833 1472 1832 c 2,33,-1
 1472 1468 l 2,34,35
 1472 1467 1472 1467 1471 1466 c 128,-1,36
 1470 1465 1470 1465 1469 1465 c 2,37,-1
 1109 1465 l 2,38,39
 1108 1465 1108 1465 1107.5 1465 c 128,-1,40
 1107 1465 1107 1465 1107 1464 c 0,41,42
 1106.5 1463.5 l 0,43,44
 1106 1463 1106 1463 1106 1462.5 c 0,45,-1
 1106 1462 l 2,46,-1
 1106 551 l 2,47,48
 1106 323 1106 323 944.5 161.5 c 128,-1,49
 783 0 783 0 554.5 0 c 128,-1,50
 326 0 326 0 165 161 c 0,51,52
 85 241 85 241 44 338.5 c 128,-1,53
 3 436 3 436 3 550 c 0,54,55
 3 552 3 552 5 552 c 2,56,-1
 6 553 l 1,0,-1
EndSplineSet
EndChar

StartChar: K
Encoding: 75 75 15
Width: 1470
VWidth: -3
Flags: W
LayerCount: 2
Fore
SplineSet
1467 0 m 1,0,-1
 1049 0 l 2,1,2
 1048 0 l 2,3,-1
 1047 1 l 2,4,5
 1046 1 1046 1 1046 2 c 2,6,-1
 479 710 l 2,7,8
 478 711 478 711 477 711 c 128,-1,9
 476 711 476 711 475.5 711 c 128,-1,10
 475 711 475 711 474 710 c 2,11,-1
 374 597 l 2,12,13
 373 596 373 596 373 595 c 2,14,-1
 373 3 l 2,15,16
 373 2 373 2 372 1 c 128,-1,17
 371 0 371 0 370 0 c 2,18,-1
 6 0 l 2,19,20
 5 0 5 0 4 1 c 128,-1,21
 3 2 3 2 3 3 c 2,22,-1
 3 1832 l 2,23,24
 3 1833 3 1833 4 1834 c 128,-1,25
 5 1835 5 1835 6 1835 c 2,26,-1
 370 1835 l 2,27,28
 371 1835 371 1835 372 1834 c 128,-1,29
 373 1833 373 1833 373 1832 c 2,30,-1
 373 1106 l 2,31,32
 373 1105 373 1105 374 1104 c 128,-1,33
 375 1103 375 1103 376 1103 c 0,34,-1
 376.5 1103 l 0,35,-1
 377 1103 l 0,36,-1
 377.5 1103 l 0,37,38
 378 1103 378 1103 378 1103.5 c 0,39,40
 378 1104 l 2,41,-1
 1027 1833 l 2,42,43
 1027 1833.5 l 0,44,45
 1027 1834 1027 1834 1027.5 1834 c 0,46,-1
 1028 1834 l 2,47,-1
 1029 1835 l 2,48,-1
 1029.5 1835 l 0,49,-1
 1030 1835 l 2,50,-1
 1467 1835 l 2,51,52
 1468 1835 1468 1835 1469 1834 c 128,-1,53
 1470 1833 1470 1833 1470 1832 c 128,-1,54
 1470 1831 1470 1831 1469 1830 c 2,55,-1
 703 968 l 2,56,57
 702 967 702 967 702 965.5 c 128,-1,58
 702 964 702 964 703 964 c 2,59,-1
 1469 5 l 2,60,61
 1470 4 1470 4 1470 3 c 128,-1,62
 1470 2 1470 2 1469 1 c 2,63,-1
 1467 0 l 1,0,-1
EndSplineSet
EndChar

StartChar: L
Encoding: 76 76 16
Width: 1470
VWidth: -3
Flags: W
LayerCount: 2
Fore
SplineSet
3 3 m 2,0,-1
 3 1832 l 2,1,2
 3 1833 3 1833 4 1834 c 128,-1,3
 5 1835 5 1835 6 1835 c 2,4,-1
 370 1835 l 2,5,6
 371 1835 371 1835 372 1834 c 128,-1,7
 373 1833 373 1833 373 1832 c 2,8,-1
 373 373 l 2,9,10
 373 372 373 372 374 371 c 0,11,12
 375 370 l 0,13,-1
 376 370 l 2,14,-1
 1469 370 l 2,15,16
 1470 370 1470 370 1471 369 c 128,-1,17
 1472 368 1472 368 1472 367 c 2,18,-1
 1472 3 l 2,19,20
 1472 2 1472 2 1471 1 c 128,-1,21
 1470 0 1470 0 1469 0 c 2,22,-1
 6 0 l 2,23,24
 5 0 5 0 4 1 c 128,-1,25
 3 2 3 2 3 3 c 2,0,-1
EndSplineSet
EndChar

StartChar: M
Encoding: 77 77 17
Width: 1470
VWidth: -3
Flags: W
LayerCount: 2
Fore
SplineSet
373 1223 m 2,0,-1
 373 3 l 2,1,2
 373 2 373 2 372 1 c 128,-1,3
 371 0 371 0 370 0 c 2,4,-1
 6 0 l 2,5,6
 5 0 5 0 4 1 c 128,-1,7
 3 2 3 2 3 3 c 2,8,-1
 3 1832 l 2,9,10
 3 1833 3 1833 4 1834 c 128,-1,11
 5 1835 5 1835 6 1835 c 2,12,-1
 370 1835 l 2,13,14
 371 1835 l 2,15,-1
 372 1834 l 2,16,17
 373 1834 373 1834 374 1833 c 2,18,-1
 735 1291 l 2,19,20
 735 1290 735 1290 735.5 1290 c 128,-1,21
 736 1290 736 1290 737 1289 c 0,22,23
 738 1289 738 1289 739 1290 c 2,24,-1
 740 1291 l 1,25,-1
 1102 1834 l 2,26,27
 1102 1835 1102 1835 1103 1835 c 128,-1,28
 1104 1835 1104 1835 1105 1835 c 2,29,-1
 1469 1835 l 2,30,31
 1470 1835 1470 1835 1471 1834 c 128,-1,32
 1472 1833 1472 1833 1472 1832 c 2,33,-1
 1472 3 l 2,34,35
 1472 2 1472 2 1471 1 c 128,-1,36
 1470 0 1470 0 1469 0 c 2,37,-1
 1105 0 l 2,38,39
 1104 0 1104 0 1103 1 c 128,-1,40
 1102 2 1102 2 1102 3 c 2,41,-1
 1102 1223 l 2,42,43
 1102 1224 1102 1224 1101 1225 c 128,-1,44
 1100 1226 1100 1226 1099.5 1226 c 0,45,46
 1099 1226 l 0,47,48
 1098.5 1226 l 0,49,-1
 1098 1226 l 0,50,-1
 1097 1226 l 0,51,52
 1096 1226 1096 1226 1096 1225 c 2,53,-1
 892 918 l 2,54,55
 892 917 892 917 891 917 c 2,56,-1
 889 916 l 2,57,58
 889 916 l 0,59,-1
 888.5 916 l 0,60,-1
 888 916 l 2,61,-1
 587 916 l 2,62,63
 586.5 916 l 0,64,-1
 586 916 l 2,65,-1
 584 917 l 2,66,67
 583 917 583 917 583 918 c 2,68,-1
 379 1225 l 2,69,70
 378 1226 378 1226 376.5 1226 c 128,-1,71
 375 1226 375 1226 374 1225 c 0,72,73
 373 1225 373 1225 373 1223 c 2,0,-1
EndSplineSet
EndChar

StartChar: N
Encoding: 78 78 18
Width: 1470
VWidth: -3
Flags: W
LayerCount: 2
Fore
SplineSet
1102 750 m 2,0,-1
 1102 1832 l 2,1,2
 1102 1833 1102 1833 1103 1834 c 128,-1,3
 1104 1835 1104 1835 1105 1835 c 2,4,-1
 1469 1835 l 2,5,6
 1470 1835 1470 1835 1471 1834 c 128,-1,7
 1472 1833 1472 1833 1472 1832 c 2,8,-1
 1472 3 l 2,9,10
 1472 2 1472 2 1471 1 c 128,-1,11
 1470 0 1470 0 1469 0 c 2,12,-1
 1105 0 l 2,13,14
 1104 0 l 2,15,-1
 1103 1 l 2,16,17
 1102.5 1.5 l 0,18,19
 1102 2 1102 2 1101 2 c 2,20,-1
 379 1086 l 2,21,22
 379 1087 379 1087 378 1087.5 c 128,-1,23
 377 1088 377 1088 376 1088 c 128,-1,24
 375 1088 375 1088 374 1087 c 0,25,26
 373 1087 373 1087 373 1086 c 0,27,-1
 373 1085 l 2,28,-1
 373 3 l 2,29,30
 373 2 373 2 372 1 c 128,-1,31
 371 0 371 0 370 0 c 2,32,-1
 6 0 l 2,33,34
 5 0 5 0 4 1 c 128,-1,35
 3 2 3 2 3 3 c 2,36,-1
 3 1832 l 2,37,38
 3 1833 3 1833 4 1834 c 128,-1,39
 5 1835 5 1835 6 1835 c 2,40,-1
 370 1835 l 2,41,42
 371 1835 l 2,43,-1
 372 1834 l 2,44,45
 373 1834 373 1834 374 1833 c 2,46,-1
 1096 749 l 2,47,48
 1096 748 1096 748 1098 748 c 0,49,50
 1099 748 1099 748 1099 747 c 0,51,52
 1100 747 1100 747 1101 748 c 0,53,54
 1102 748 1102 748 1102 750 c 2,0,-1
EndSplineSet
EndChar

StartChar: O
Encoding: 79 79 19
Width: 1470
VWidth: -3
Flags: W
LayerCount: 2
Fore
SplineSet
463 1835 m 2,0,-1
 1012 1835 l 2,1,2
 1137 1835 1137 1835 1243 1773 c 0,3,4
 1261 1763 1261 1763 1277 1751.5 c 128,-1,5
 1293 1740 1293 1740 1308.5 1727.5 c 128,-1,6
 1324 1715 1324 1715 1338 1701 c 0,7,8
 1380 1659 1380 1659 1410 1606 c 0,9,10
 1425 1580 1425 1580 1437 1552 c 128,-1,11
 1449 1524 1449 1524 1457 1496 c 0,12,13
 1472 1438 1472 1438 1472 1375 c 2,14,-1
 1472 460 l 2,15,16
 1472 270 1472 270 1337.5 135 c 128,-1,17
 1203 0 1203 0 1012 0 c 2,18,-1
 463 0 l 2,19,20
 273 0 273 0 138 134.5 c 128,-1,21
 3 269 3 269 3 460 c 2,22,-1
 3 1375 l 2,23,24
 3 1423 3 1423 11.5 1467 c 128,-1,25
 20 1511 20 1511 37 1552 c 0,26,27
 71 1633 71 1633 138 1700.5 c 128,-1,28
 205 1768 205 1768 286.5 1801.5 c 128,-1,29
 368 1835 368 1835 463 1835 c 2,0,-1
1012 1465 m 2,30,-1
 463 1465 l 2,31,32
 451 1465 451 1465 439.5 1462 c 128,-1,33
 428 1459 428 1459 418 1454 c 0,34,35
 415 1452 415 1452 411.5 1449.5 c 128,-1,36
 408 1447 408 1447 405 1444.5 c 128,-1,37
 402 1442 402 1442 399 1439 c 0,38,39
 397 1437 397 1437 396 1435.5 c 128,-1,40
 395 1434 395 1434 393.5 1432.5 c 128,-1,41
 392 1431 392 1431 390.5 1429 c 128,-1,42
 389 1427 389 1427 388 1425 c 0,43,44
 386 1423 386 1423 384.5 1420.5 c 128,-1,45
 383 1418 383 1418 382 1415.5 c 0,46,47
 382 1413 382 1413 380 1410 c 0,48,49
 377 1402 377 1402 375 1393 c 0,50,51
 374 1389 374 1389 373.5 1384.5 c 128,-1,52
 373 1380 373 1380 373 1375 c 2,53,-1
 373 460 l 2,54,55
 373 448 373 448 376 436.5 c 128,-1,56
 379 425 379 425 384.5 415 c 128,-1,57
 390 405 390 405 399 396 c 0,58,59
 406 389 406 389 413 385 c 0,60,61
 417 383 417 383 420.5 380.5 c 128,-1,62
 424 378 424 378 428 376 c 0,63,64
 436 373 436 373 445 371 c 0,65,66
 449 370 449 370 453.5 370 c 128,-1,67
 458 370 458 370 463 370 c 2,68,-1
 1012 370 l 2,69,70
 1024 370 1024 370 1036 373 c 0,71,72
 1042 374 1042 374 1047 376.5 c 128,-1,73
 1052 379 1052 379 1057 382 c 0,74,75
 1067 388 1067 388 1076 396 c 0,76,77
 1083 403 1083 403 1087.5 410 c 128,-1,78
 1092 417 1092 417 1095.5 425 c 128,-1,79
 1099 433 1099 433 1100.5 441.5 c 128,-1,80
 1102 450 1102 450 1102 460 c 2,81,-1
 1102 1375 l 2,82,83
 1102 1393 1102 1393 1095.5 1409.5 c 128,-1,84
 1089 1426 1089 1426 1076 1439 c 0,85,86
 1072 1443 1072 1443 1067 1447 c 128,-1,87
 1062 1451 1062 1451 1057 1453.5 c 128,-1,88
 1052 1456 1052 1456 1047 1459 c 0,89,90
 1039 1462 1039 1462 1030 1463.5 c 128,-1,91
 1021 1465 1021 1465 1012 1465 c 2,30,-1
EndSplineSet
EndChar

StartChar: P
Encoding: 80 80 20
Width: 1470
VWidth: -3
Flags: W
LayerCount: 2
Fore
SplineSet
1012 1465 m 2,0,-1
 376 1465 l 2,1,2
 375 1465 375 1465 374.5 1465 c 128,-1,3
 374 1465 374 1465 374 1464 c 0,4,5
 373.5 1463.5 l 0,6,7
 373 1463 373 1463 373 1462.5 c 0,8,-1
 373 1462 l 2,9,-1
 373 1106 l 2,10,11
 373 1105 373 1105 374 1103 c 0,12,-1
 374.5 1103 l 0,13,14
 375 1103 375 1103 375 1102.5 c 128,-1,15
 375 1102 375 1102 375.5 1102 c 0,16,-1
 376 1102 l 2,17,-1
 1012 1102 l 2,18,19
 1030 1102 1030 1102 1046.5 1109 c 128,-1,20
 1063 1116 1063 1116 1076 1129 c 0,21,22
 1080 1133 1080 1133 1083.5 1137.5 c 128,-1,23
 1087 1142 1087 1142 1090 1147 c 128,-1,24
 1093 1152 1093 1152 1095 1158 c 0,25,26
 1098 1166 1098 1166 1100 1174.5 c 128,-1,27
 1102 1183 1102 1183 1102 1192 c 2,28,-1
 1102 1375 l 2,29,30
 1102 1387 1102 1387 1099 1398.5 c 128,-1,31
 1096 1410 1096 1410 1090.5 1420 c 128,-1,32
 1085 1430 1085 1430 1076 1439 c 0,33,34
 1063 1452 1063 1452 1047 1458.5 c 128,-1,35
 1031 1465 1031 1465 1012 1465 c 2,0,-1
1472 1375 m 2,36,-1
 1472 1192 l 2,37,38
 1472 1173 1472 1173 1470.5 1154.5 c 128,-1,39
 1469 1136 1469 1136 1466 1118 c 0,40,41
 1461 1082 1461 1082 1450 1049 c 0,42,43
 1445 1032 1445 1032 1438 1015.5 c 128,-1,44
 1431 999 1431 999 1423 983.5 c 128,-1,45
 1415 968 1415 968 1405.5 953 c 128,-1,46
 1396 938 1396 938 1386 923 c 0,47,48
 1364 894 1364 894 1337 867 c 0,49,50
 1292 822 1292 822 1241 792 c 128,-1,51
 1190 762 1190 762 1133 748 c 0,52,53
 1076 733 1076 733 1012 733 c 2,54,-1
 376 733 l 2,55,56
 375 733 375 733 374 732 c 0,57,58
 373 732 373 732 373 730 c 2,59,-1
 373 3 l 2,60,61
 373 2 373 2 372 1 c 128,-1,62
 371 0 371 0 370 0 c 2,63,-1
 6 0 l 2,64,65
 5 0 5 0 4 1 c 128,-1,66
 3 2 3 2 3 3 c 2,67,-1
 3 1832 l 2,68,69
 3 1833 3 1833 4 1834 c 128,-1,70
 5 1835 5 1835 6 1835 c 2,71,-1
 1012 1835 l 2,72,73
 1202 1835 1202 1835 1337 1700 c 128,-1,74
 1472 1565 1472 1565 1472 1375 c 2,36,-1
EndSplineSet
EndChar

StartChar: Q
Encoding: 81 81 21
Width: 1602
VWidth: -3
Flags: W
LayerCount: 2
Fore
SplineSet
1474 506 m 2,0,-1
 1597 444 l 2,1,2
 1598 443 1598 443 1598.5 441.5 c 128,-1,3
 1599 440 1599 440 1599 439 c 2,4,-1
 1472 185 l 2,5,6
 1472 184 1472 184 1471 184 c 128,-1,7
 1470 184 1470 184 1469.5 184 c 128,-1,8
 1469 184 1469 184 1468 184 c 2,9,-1
 1405 215 l 2,10,11
 1404 216 1404 216 1403 216 c 0,12,13
 1402.5 215.5 l 0,14,15
 1402 215 1402 215 1401.5 215 c 128,-1,16
 1401 215 1401 215 1401 214 c 0,17,18
 1378 178 1378 178 1352.5 148.5 c 128,-1,19
 1327 119 1327 119 1298 95 c 128,-1,20
 1269 71 1269 71 1236.5 53.5 c 128,-1,21
 1204 36 1204 36 1168 24 c 0,22,23
 1097 0 1097 0 1012 0 c 2,24,-1
 463 0 l 2,25,26
 273 0 273 0 138 134.5 c 128,-1,27
 3 269 3 269 3 460 c 2,28,-1
 3 1375 l 2,29,30
 3 1470 3 1470 36.5 1551.5 c 128,-1,31
 70 1633 70 1633 137.5 1700.5 c 128,-1,32
 205 1768 205 1768 286.5 1801.5 c 128,-1,33
 368 1835 368 1835 463 1835 c 2,34,-1
 1012 1835 l 2,35,36
 1044 1835 1044 1835 1074 1831.5 c 128,-1,37
 1104 1828 1104 1828 1133 1820.5 c 128,-1,38
 1162 1813 1162 1813 1189 1801 c 0,39,40
 1230 1784 1230 1784 1267 1759 c 128,-1,41
 1304 1734 1304 1734 1337 1700 c 0,42,43
 1404 1633 1404 1633 1438 1552 c 128,-1,44
 1472 1471 1472 1471 1472 1375 c 2,45,-1
 1472 508 l 2,46,-1
 1472 507 l 0,47,48
 1472.5 506.5 l 0,49,-1
 1473 506 l 0,50,51
 1474 506 l 2,0,-1
975 753 m 2,52,-1
 976 753 l 2,53,54
 977 753 977 753 979 753 c 2,55,-1
 1098 694 l 2,56,57
 1099 693 1099 693 1100 693 c 128,-1,58
 1101 693 1101 693 1101.5 694 c 0,59,60
 1102 695 l 0,61,62
 1102 695.5 l 0,63,-1
 1102 696 l 2,64,-1
 1102 1375 l 2,65,66
 1102 1393 1102 1393 1095.5 1409.5 c 128,-1,67
 1089 1426 1089 1426 1076 1439 c 0,68,69
 1072 1443 1072 1443 1067 1447 c 128,-1,70
 1062 1451 1062 1451 1057 1453.5 c 128,-1,71
 1052 1456 1052 1456 1047 1459 c 0,72,73
 1039 1462 1039 1462 1030.5 1463.5 c 128,-1,74
 1022 1465 1022 1465 1012 1465 c 2,75,-1
 463 1465 l 2,76,77
 444 1465 444 1465 428 1458.5 c 128,-1,78
 412 1452 412 1452 399 1439 c 0,79,80
 392 1432 392 1432 387.5 1425 c 128,-1,81
 383 1418 383 1418 379 1410 c 0,82,83
 377 1406 377 1406 376 1402 c 128,-1,84
 375 1398 375 1398 375 1393 c 0,85,86
 374 1390 374 1390 373.5 1387.5 c 128,-1,87
 373 1385 373 1385 373 1381.5 c 128,-1,88
 373 1378 373 1378 373 1375 c 2,89,-1
 373 460 l 2,90,91
 373 448 373 448 376 436.5 c 128,-1,92
 379 425 379 425 384.5 415 c 128,-1,93
 390 405 390 405 399 396 c 0,94,95
 406 389 406 389 413 385 c 0,96,97
 417 383 417 383 420.5 380.5 c 128,-1,98
 424 378 424 378 428 376 c 0,99,100
 436 373 436 373 445 371 c 0,101,102
 449 370 449 370 453.5 370 c 128,-1,103
 458 370 458 370 463 370 c 2,104,-1
 1012 370 l 2,105,106
 1018 370 1018 370 1024.5 370.5 c 128,-1,107
 1031 371 1031 371 1037 373 c 128,-1,108
 1043 375 1043 375 1048.5 377.5 c 128,-1,109
 1054 380 1054 380 1059 383 c 0,110,111
 1060 384 1060 384 1061 385 c 0,112,113
 1061 386 1061 386 1061 386.5 c 128,-1,114
 1061 387 1061 387 1060.5 387.5 c 128,-1,115
 1060 388 1060 388 1059 389 c 2,116,-1
 848 494 l 2,117,118
 847 494 847 494 846.5 495 c 128,-1,119
 846 496 846 496 846 496.5 c 128,-1,120
 846 497 846 497 847 498 c 2,121,-1
 973 751 l 2,122,123
 974 753 974 753 975 753 c 2,52,-1
EndSplineSet
EndChar

StartChar: R
Encoding: 82 82 22
Width: 1470
VWidth: -3
Flags: W
LayerCount: 2
Fore
SplineSet
1468 0 m 1,0,-1
 1061 1 l 2,1,2
 1059 1 1059 1 1058 2 c 2,3,-1
 694 731 l 2,4,5
 693 732 693 732 692.5 732.5 c 128,-1,6
 692 733 692 733 691 733 c 2,7,-1
 376 733 l 2,8,9
 375 733 375 733 374 732 c 0,10,11
 373 732 373 732 373 730 c 2,12,-1
 373 3 l 2,13,14
 373 2 373 2 372 1 c 128,-1,15
 371 0 371 0 370 0 c 2,16,-1
 6 0 l 2,17,18
 5 0 5 0 4 1 c 128,-1,19
 3 2 3 2 3 3 c 2,20,-1
 3 1832 l 2,21,22
 3 1833 3 1833 4 1834 c 128,-1,23
 5 1835 5 1835 6 1835 c 2,24,-1
 1012 1835 l 2,25,26
 1044 1835 1044 1835 1074 1831.5 c 128,-1,27
 1104 1828 1104 1828 1133 1820.5 c 128,-1,28
 1162 1813 1162 1813 1189 1801 c 0,29,30
 1230 1784 1230 1784 1267 1759 c 128,-1,31
 1304 1734 1304 1734 1337 1700 c 0,32,33
 1404 1633 1404 1633 1438 1552 c 128,-1,34
 1472 1471 1472 1471 1472 1375 c 2,35,-1
 1472 1192 l 2,36,37
 1472 1174 1472 1174 1470.5 1156.5 c 128,-1,38
 1469 1139 1469 1139 1466.5 1122 c 128,-1,39
 1464 1105 1464 1105 1460 1088 c 0,40,41
 1457 1075 1457 1075 1453.5 1062.5 c 128,-1,42
 1450 1050 1450 1050 1445.5 1038 c 128,-1,43
 1441 1026 1441 1026 1436 1013.5 c 128,-1,44
 1431 1001 1431 1001 1425 990 c 0,45,46
 1402 942 1402 942 1369.5 902 c 128,-1,47
 1337 862 1337 862 1295 829.5 c 128,-1,48
 1253 797 1253 797 1206 775 c 0,49,50
 1190 768 1190 768 1173.5 762 c 128,-1,51
 1157 756 1157 756 1140.5 751 c 128,-1,52
 1124 746 1124 746 1106 742 c 0,53,54
 1105 742 1105 742 1104.5 742 c 128,-1,55
 1104 742 1104 742 1104 741 c 0,56,57
 1103 740 1103 740 1104 738 c 2,58,-1
 1104 738 l 1,59,-1
 1471 5 l 2,60,61
 1472 4 1472 4 1471.5 2.5 c 128,-1,62
 1471 1 1471 1 1469 0 c 2,63,-1
 1468 0 l 1,0,-1
1102 1192 m 2,64,-1
 1102 1375 l 2,65,66
 1102 1381 1102 1381 1101.5 1387 c 128,-1,67
 1101 1393 1101 1393 1099 1399 c 0,68,69
 1096 1410 1096 1410 1090 1420.5 c 128,-1,70
 1084 1431 1084 1431 1076 1439 c 128,-1,71
 1068 1447 1068 1447 1057 1453 c 0,72,73
 1047 1459 1047 1459 1035.5 1462 c 128,-1,74
 1024 1465 1024 1465 1012 1465 c 2,75,-1
 376 1465 l 2,76,77
 375 1465 375 1465 374.5 1465 c 128,-1,78
 374 1465 374 1465 374 1464 c 0,79,80
 373.5 1463.5 l 0,81,82
 373 1463 373 1463 373 1462.5 c 0,83,-1
 373 1462 l 2,84,-1
 373 1106 l 2,85,86
 373 1105 373 1105 374 1103 c 0,87,-1
 374.5 1103 l 0,88,89
 375 1103 375 1103 375 1102.5 c 128,-1,90
 375 1102 375 1102 375.5 1102 c 0,91,-1
 376 1102 l 2,92,-1
 1012 1102 l 2,93,94
 1031 1102 1031 1102 1047 1109 c 128,-1,95
 1063 1116 1063 1116 1076 1129 c 128,-1,96
 1089 1142 1089 1142 1095.5 1157.5 c 128,-1,97
 1102 1173 1102 1173 1102 1192 c 2,64,-1
EndSplineSet
EndChar

StartChar: S
Encoding: 83 83 23
Width: 1470
VWidth: -3
Flags: W
LayerCount: 2
Fore
SplineSet
1012 0 m 2,0,-1
 463 0 l 2,1,2
 273 0 273 0 138 134.5 c 128,-1,3
 3 269 3 269 3 460 c 2,4,-1
 3 550 l 2,5,6
 3 551 3 551 4 552 c 128,-1,7
 5 553 5 553 6 553 c 2,8,-1
 370 553 l 2,9,10
 371 553 371 553 372 552 c 128,-1,11
 373 551 373 551 373 550 c 2,12,-1
 373 460 l 2,13,14
 373 455 373 455 373 450 c 0,15,16
 373 449 373 449 373.5 448 c 128,-1,17
 374 447 374 447 374 445.5 c 128,-1,18
 374 444 374 444 374.5 443 c 128,-1,19
 375 442 375 442 375 441 c 0,20,21
 376 436 376 436 377 432 c 0,22,23
 377 431 377 431 377.5 430 c 128,-1,24
 378 429 378 429 378.5 428 c 128,-1,25
 379 427 379 427 379 426.5 c 128,-1,26
 379 426 379 426 379.5 425 c 128,-1,27
 380 424 380 424 381 423 c 0,28,29
 383 419 383 419 385 415 c 0,30,31
 397 394 397 394 418 382 c 0,32,33
 420 381 420 381 421.5 380 c 128,-1,34
 423 379 423 379 424.5 378 c 128,-1,35
 426 377 426 377 428 376.5 c 128,-1,36
 430 376 430 376 432 375 c 0,37,38
 436 374 436 374 439.5 373 c 128,-1,39
 443 372 443 372 447 371 c 0,40,41
 455 370 455 370 463 370 c 2,42,-1
 1012 370 l 2,43,44
 1024 370 1024 370 1036 373 c 0,45,46
 1042 374 1042 374 1047 376.5 c 128,-1,47
 1052 379 1052 379 1057 381 c 0,48,49
 1067 387 1067 387 1076 396 c 0,50,51
 1083 403 1083 403 1087.5 410 c 128,-1,52
 1092 417 1092 417 1095 425 c 0,53,54
 1102 441 1102 441 1102 460 c 2,55,-1
 1102 643 l 2,56,57
 1102 680 1102 680 1075.5 706.5 c 128,-1,58
 1049 733 1049 733 1012 733 c 2,59,-1
 463 733 l 2,60,61
 273 733 273 733 138 867.5 c 128,-1,62
 3 1002 3 1002 3 1192 c 2,63,-1
 3 1375 l 2,64,65
 3 1470 3 1470 36.5 1551.5 c 128,-1,66
 70 1633 70 1633 137.5 1700.5 c 128,-1,67
 205 1768 205 1768 286.5 1801.5 c 128,-1,68
 368 1835 368 1835 463 1835 c 2,69,-1
 1012 1835 l 2,70,71
 1060 1835 1060 1835 1104 1827 c 0,72,73
 1148 1819 1148 1819 1188.5 1802 c 128,-1,74
 1229 1785 1229 1785 1266.5 1759.5 c 128,-1,75
 1304 1734 1304 1734 1337 1700 c 0,76,77
 1404 1633 1404 1633 1438 1552 c 128,-1,78
 1472 1471 1472 1471 1472 1375 c 2,79,-1
 1472 1285 l 2,80,81
 1472 1284 1472 1284 1471 1283 c 128,-1,82
 1470 1282 1470 1282 1469 1282 c 2,83,-1
 1105 1282 l 2,84,85
 1104 1282 1104 1282 1103 1283 c 128,-1,86
 1102 1284 1102 1284 1102 1285 c 2,87,-1
 1102 1375 l 2,88,89
 1102 1381 1102 1381 1101.5 1387 c 128,-1,90
 1101 1393 1101 1393 1099 1399 c 0,91,92
 1096 1410 1096 1410 1090 1420.5 c 128,-1,93
 1084 1431 1084 1431 1076 1439 c 128,-1,94
 1068 1447 1068 1447 1057 1453 c 0,95,96
 1047 1459 1047 1459 1035.5 1462 c 128,-1,97
 1024 1465 1024 1465 1012 1465 c 2,98,-1
 463 1465 l 2,99,100
 462 1465 462 1465 461 1465 c 128,-1,101
 460 1465 460 1465 459 1465 c 128,-1,102
 458 1465 458 1465 457 1465 c 128,-1,103
 456 1465 456 1465 455 1465 c 128,-1,104
 454 1465 454 1465 453 1465 c 128,-1,105
 452 1465 452 1465 451 1464 c 0,106,107
 448 1464 448 1464 445 1463.5 c 128,-1,108
 442 1463 442 1463 439 1462 c 0,109,110
 433 1460 433 1460 428 1458 c 128,-1,111
 423 1456 423 1456 418 1453 c 0,112,113
 397 1441 397 1441 385 1420.5 c 128,-1,114
 373 1400 373 1400 373 1375 c 2,115,-1
 373 1192 l 2,116,117
 373 1186 373 1186 373.5 1180 c 128,-1,118
 374 1174 374 1174 375.5 1168.5 c 128,-1,119
 377 1163 377 1163 379.5 1157.5 c 128,-1,120
 382 1152 382 1152 385 1147 c 0,121,122
 386 1145 386 1145 387.5 1142.5 c 128,-1,123
 389 1140 389 1140 391 1138 c 0,124,125
 395 1133 395 1133 399 1129 c 0,126,127
 401 1127 401 1127 403 1125.5 c 128,-1,128
 405 1124 405 1124 406.5 1122.5 c 128,-1,129
 408 1121 408 1121 410 1119.5 c 128,-1,130
 412 1118 412 1118 414 1116.5 c 128,-1,131
 416 1115 416 1115 418 1114 c 0,132,133
 423 1111 423 1111 428.5 1109 c 128,-1,134
 434 1107 434 1107 439 1105 c 0,135,136
 450 1102 450 1102 463 1102 c 2,137,-1
 1012 1102 l 2,138,139
 1060 1102 1060 1102 1104 1094 c 0,140,141
 1148 1086 1148 1086 1189 1069 c 0,142,143
 1203 1063 1203 1063 1216 1056.5 c 128,-1,144
 1229 1050 1229 1050 1241.5 1042.5 c 128,-1,145
 1254 1035 1254 1035 1266 1027 c 0,146,147
 1303 1002 1303 1002 1337 968 c 0,148,149
 1404 901 1404 901 1438 819.5 c 128,-1,150
 1472 738 1472 738 1472 643 c 2,151,-1
 1472 460 l 2,152,153
 1472 270 1472 270 1337 135 c 128,-1,154
 1202 0 1202 0 1012 0 c 2,0,-1
EndSplineSet
EndChar

StartChar: T
Encoding: 84 84 24
Width: 1470
VWidth: -3
Flags: W
LayerCount: 2
Fore
SplineSet
1472 1827 m 2,0,-1
 1472 1473 l 2,1,2
 1472 1472 1472 1472 1471.5 1471.5 c 128,-1,3
 1471 1471 1471 1471 1470 1470.5 c 0,4,-1
 1469 1470 l 2,5,-1
 925 1465 l 2,6,7
 924 1465 924 1465 923 1464 c 128,-1,8
 922 1463 922 1463 922 1462 c 2,9,-1
 922 3 l 2,10,11
 922 2 922 2 921 1 c 128,-1,12
 920 0 920 0 919 0 c 2,13,-1
 561 0 l 2,14,15
 560 0 560 0 559.5 0 c 128,-1,16
 559 0 559 0 558.5 0.5 c 128,-1,17
 558 1 558 1 558 1.5 c 128,-1,18
 558 2 558 2 557.5 2.5 c 0,19,20
 557 3 l 2,21,-1
 553 1462 l 2,22,23
 553 1463 553 1463 552.5 1463.5 c 0,24,-1
 552 1464 l 0,25,26
 552 1465 552 1465 550 1465 c 2,27,-1
 11 1465 l 2,28,29
 10 1465 10 1465 9.5 1465.5 c 128,-1,30
 9 1466 9 1466 8.5 1466.5 c 128,-1,31
 8 1467 8 1467 8 1467.5 c 0,32,-1
 8 1468 l 2,33,-1
 3 1827 l 2,34,35
 3 1828 3 1828 4 1829 c 128,-1,36
 5 1830 5 1830 6 1830 c 2,37,-1
 1469 1830 l 2,38,39
 1470 1830 1470 1830 1471 1829 c 128,-1,40
 1472 1828 1472 1828 1472 1827 c 2,0,-1
EndSplineSet
EndChar

StartChar: U
Encoding: 85 85 25
Width: 1470
VWidth: -3
Flags: W
LayerCount: 2
Fore
SplineSet
6 1835 m 2,0,-1
 370 1835 l 2,1,2
 371 1835 371 1835 372 1834 c 128,-1,3
 373 1833 373 1833 373 1832 c 2,4,-1
 373 734 l 2,5,6
 373 696 373 696 379.5 661 c 128,-1,7
 386 626 386 626 399.5 594 c 128,-1,8
 413 562 413 562 433 532 c 0,9,10
 440 522 440 522 447 513 c 128,-1,11
 454 504 454 504 462.5 494.5 c 128,-1,12
 471 485 471 485 480 476 c 0,13,14
 516 440 516 440 556 416.5 c 128,-1,15
 596 393 596 393 641.5 381.5 c 0,16,17
 688 370 688 370 738 370 c 0,18,19
 889 370 889 370 995 476 c 0,20,21
 1048 529 1048 529 1075 594 c 128,-1,22
 1102 659 1102 659 1102 734 c 2,23,-1
 1102 1832 l 2,24,25
 1102 1833 1102 1833 1103 1834 c 128,-1,26
 1104 1835 1104 1835 1105 1835 c 2,27,-1
 1469 1835 l 2,28,29
 1470 1835 1470 1835 1471 1834 c 128,-1,30
 1472 1833 1472 1833 1472 1832 c 2,31,-1
 1472 734 l 2,32,33
 1472 535 1472 535 1374 366 c 0,34,35
 1325 281 1325 281 1258 214 c 128,-1,36
 1191 147 1191 147 1106 98 c 0,37,38
 938 0 938 0 738 0 c 0,39,40
 434 0 434 0 218 215 c 0,41,42
 111 322 111 322 57 452 c 128,-1,43
 3 582 3 582 3 734 c 2,44,-1
 3 1832 l 2,45,46
 3 1833 3 1833 4 1834 c 128,-1,47
 5 1835 5 1835 6 1835 c 2,0,-1
EndSplineSet
EndChar

StartChar: V
Encoding: 86 86 26
Width: 1470
VWidth: -3
Flags: W
LayerCount: 2
Fore
SplineSet
5 1834 m 1,0,-1
 5 1834 l 2,1,2
 6 1835 6 1835 7 1835 c 2,3,-1
 370 1835 l 2,4,5
 371 1835 l 0,6,7
 372 1835 372 1835 372 1834.5 c 128,-1,8
 372 1834 372 1834 373 1834 c 2,9,-1
 373 1834 l 2,10,-1
 373 1833.5 l 0,11,12
 373 1833 373 1833 373 1832 c 2,13,-1
 735 628 l 2,14,-1
 735 627 l 0,15,-1
 736 626 l 0,16,17
 737 625 737 625 739 626 c 0,18,19
 739 626.5 l 0,20,21
 739 627 739 627 740 627 c 0,22,-1
 740 627.5 l 0,23,-1
 740 628 l 2,24,-1
 1102 1832 l 1,25,-1
 1102 1834 l 1,26,-1
 1102 1834 l 2,27,28
 1103 1835 1103 1835 1105 1835 c 2,29,-1
 1468 1835 l 2,30,31
 1469 1835 1469 1835 1469.5 1834.5 c 128,-1,32
 1470 1834 1470 1834 1470.5 1833.5 c 128,-1,33
 1471 1833 1471 1833 1471 1832.5 c 128,-1,34
 1471 1832 1471 1832 1471 1831 c 2,35,-1
 923 3 l 2,36,37
 923 1 923 1 920 1 c 1,38,-1
 557 -0 l 2,39,40
 555 0 555 0 554 2 c 2,41,-1
 4 1831 l 2,42,43
 4 1831 l 0,44,-1
 5 1834 l 1,0,-1
EndSplineSet
EndChar

StartChar: W
Encoding: 87 87 27
Width: 1470
VWidth: -3
Flags: W
LayerCount: 2
Fore
SplineSet
555 1 m 1,0,-1
 554 0 l 2,1,2
 553 -0 l 2,3,-1
 190 -0 l 2,4,5
 189 0 l 0,6,-1
 188 1 l 2,7,-1
 187 1 l 2,8,9
 186 2 186 2 186 4 c 2,10,-1
 3 1831 l 2,11,12
 3 1833 3 1833 5 1835 c 0,13,14
 6 1835 l 2,15,-1
 370 1835 l 2,16,17
 371 1835 371 1835 371.5 1834.5 c 128,-1,18
 372 1834 372 1834 372.5 1833.5 c 128,-1,19
 373 1833 373 1833 373 1832 c 2,20,-1
 483 731 l 1,21,-1
 483 730 l 2,22,23
 483 729 483 729 484 728.5 c 0,24,-1
 485 728 l 0,25,26
 486 728 486 728 487 728 c 128,-1,27
 488 728 488 728 488 728.5 c 128,-1,28
 488 729 488 729 489 730 c 2,29,-1
 735 1190 l 2,30,31
 736 1191 736 1191 737 1191.5 c 128,-1,32
 738 1192 738 1192 739 1192 c 0,33,-1
 739.5 1191.5 l 0,34,35
 740 1191 740 1191 740 1190 c 2,36,-1
 986 730 l 2,37,-1
 986.5 729.5 l 0,38,-1
 987 729 l 0,39,40
 988 729 988 729 989 728 c 0,41,42
 990 728 990 728 990 729 c 0,43,44
 991 730 991 730 992 731 c 2,45,-1
 1102 1832 l 2,46,47
 1102 1834 1102 1834 1104 1835 c 1,48,-1
 1469 1835 l 2,49,50
 1470 1835 1470 1835 1471 1834 c 128,-1,51
 1472 1833 1472 1833 1472 1831 c 2,52,-1
 1289 3 l 2,53,-1
 1288.5 2 l 0,54,55
 1288 1 1288 1 1287.5 1 c 128,-1,56
 1287 1 1287 1 1287 0.5 c 128,-1,57
 1287 0 1287 0 1286 -0 c 2,58,-1
 922 -0 l 2,59,-1
 921.5 0 l 0,60,-1
 921 0 l 0,61,-1
 921 0 l 2,62,-1
 919 1 l 2,63,64
 918 1 918 1 918 2 c 2,65,-1
 740 359 l 2,66,67
 739 360 739 360 738 360 c 128,-1,68
 737 360 737 360 736 360 c 128,-1,69
 735 360 735 360 735 359 c 2,70,-1
 557 2 l 1,71,-1
 555 1 l 1,0,-1
EndSplineSet
EndChar

StartChar: X
Encoding: 88 88 28
Width: 1470
VWidth: -3
Flags: W
LayerCount: 2
Fore
SplineSet
5 5 m 1,0,-1
 528 916 l 2,1,2
 529 918 529 918 528 919 c 2,3,-1
 5 1830 l 2,4,5
 4 1831 4 1831 4.5 1832.5 c 128,-1,6
 5 1834 5 1834 6 1834 c 0,7,8
 7 1835 l 2,9,-1
 415 1835 l 2,10,11
 417 1835 417 1835 418 1833 c 2,12,-1
 735 1284 l 2,13,14
 735.5 1283.5 l 0,15,-1
 736 1283 l 0,16,17
 737 1283 737 1283 738 1282 c 0,18,19
 738.5 1282.5 l 0,20,-1
 739 1283 l 0,21,-1
 739 1283 l 0,22,23
 740 1283 740 1283 740 1284 c 2,24,-1
 1056 1833 l 2,25,26
 1056 1834 1056 1834 1057 1834 c 2,27,-1
 1058 1834 l 2,28,29
 1059 1834 1059 1834 1060 1835 c 2,30,-1
 1468 1835 l 2,31,32
 1469 1835 1469 1835 1470 1834 c 128,-1,33
 1471 1833 1471 1833 1471 1832 c 0,34,35
 1471 1831 l 0,36,37
 1471 1830 1471 1830 1470 1830 c 2,38,-1
 946 919 l 2,39,40
 945 917 945 917 946 916 c 2,41,-1
 1470 5 l 2,42,-1
 1470.5 4 l 0,43,44
 1471 3 1471 3 1470.5 2.5 c 128,-1,45
 1470 2 1470 2 1470 1.5 c 128,-1,46
 1470 1 1470 1 1469.5 0.5 c 128,-1,47
 1469 0 1469 0 1468 -0 c 2,48,-1
 1060 -0 l 2,49,50
 1059 0 1059 0 1058 0 c 2,51,-1
 1057 1 l 2,52,-1
 1056.5 1.5 l 0,53,-1
 1056 2 l 2,54,-1
 740 551 l 2,55,56
 740 551 l 0,57,-1
 740 551.5 l 0,58,59
 740 552 740 552 739 552 c 0,60,-1
 738 552 l 0,61,-1
 737 552 l 0,62,63
 736.5 552 l 0,64,-1
 736 552 l 0,65,66
 735 552 735 552 735 551 c 2,67,-1
 502 145 l 2,68,69
 501.5 145 l 0,70,-1
 501 145 l 0,71,-1
 501 144 l 0,72,73
 501 143 l 0,74,75
 501 143 l 0,76,-1
 501 142.5 l 0,77,78
 501 142 501 142 502 142 c 0,79,-1
 502 141.5 l 0,80,81
 502 141 502 141 503 141 c 0,82,-1
 503 141 l 0,83,-1
 504 141 l 2,84,-1
 504 141 l 1,85,-1
 599 141 l 2,86,87
 600 141 600 141 601 140 c 0,88,89
 602 140 602 140 602 138 c 2,90,-1
 602 3 l 2,91,92
 602 2 602 2 601 1 c 128,-1,93
 600 0 600 0 599 -0 c 2,94,-1
 7 -0 l 2,95,96
 5 0 5 0 4 2 c 1,97,-1
 5 5 l 1,0,-1
EndSplineSet
EndChar

StartChar: Y
Encoding: 89 89 29
Width: 1470
VWidth: -3
Flags: W
LayerCount: 2
Fore
SplineSet
7 1835 m 2,0,-1
 371 1834 l 2,1,2
 372 1834 372 1834 372.5 1833.5 c 0,3,-1
 373 1833 l 2,4,-1
 735 1110 l 2,5,6
 735 1109 735 1109 735.5 1109 c 128,-1,7
 736 1109 736 1109 737 1109 c 128,-1,8
 738 1109 738 1109 738 1108.5 c 128,-1,9
 738 1108 738 1108 738.5 1108.5 c 0,10,11
 739 1109 l 0,12,13
 740 1109 l 0,14,15
 740 1110 l 2,16,-1
 1102 1833 l 2,17,18
 1102 1834 1102 1834 1103 1834 c 2,19,-1
 1104 1835 l 2,20,21
 1105 1835 1105 1835 1106 1835 c 2,22,-1
 1468 1835 l 2,23,24
 1469 1835 1469 1835 1470 1834 c 128,-1,25
 1471 1833 1471 1833 1471 1832 c 128,-1,26
 1471 1831 1471 1831 1471 1830 c 2,27,-1
 923 735 l 2,28,-1
 922.5 734.5 l 0,29,-1
 922 734 l 0,30,-1
 922 733 l 2,31,-1
 922 3 l 2,32,33
 922 2 922 2 921 1 c 128,-1,34
 920 0 920 0 919 0 c 2,35,-1
 556 0 l 2,36,37
 555 0 555 0 554 1 c 128,-1,38
 553 2 553 2 553 3 c 2,39,-1
 553 733 l 2,40,-1
 553 733.5 l 0,41,42
 553 734 553 734 552.5 734 c 128,-1,43
 552 734 552 734 552 735 c 2,44,-1
 4 1830 l 2,45,46
 4 1831 4 1831 4 1831.5 c 128,-1,47
 4 1832 4 1832 4 1832.5 c 128,-1,48
 4 1833 4 1833 4.5 1833.5 c 128,-1,49
 5 1834 5 1834 6 1835 c 0,50,-1
 6 1835 l 0,51,-1
 7 1835 l 2,0,-1
EndSplineSet
EndChar

StartChar: Z
Encoding: 90 90 30
Width: 1470
VWidth: -3
Flags: W
LayerCount: 2
Fore
SplineSet
1001 1465 m 2,0,-1
 6 1465 l 2,1,2
 5 1465 5 1465 4 1466 c 128,-1,3
 3 1467 3 1467 3 1468 c 2,4,-1
 3 1832 l 2,5,6
 3 1833 3 1833 4 1834 c 128,-1,7
 5 1835 5 1835 6 1835 c 2,8,-1
 1469 1835 l 2,9,10
 1470 1835 1470 1835 1471 1834 c 128,-1,11
 1472 1833 1472 1833 1472 1832 c 2,12,-1
 1472 1468 l 1,13,-1
 1472 1467 l 1,14,-1
 1471 1466 l 2,15,16
 1471 1465 l 2,17,-1
 471 375 l 2,18,19
 470 374 470 374 470.5 372.5 c 128,-1,20
 471 371 471 371 472 370 c 0,21,22
 472.5 370 l 0,23,24
 473 370 473 370 474 370 c 2,25,-1
 1469 370 l 2,26,27
 1470 370 1470 370 1471 369 c 128,-1,28
 1472 368 1472 368 1472 367 c 2,29,-1
 1472 3 l 2,30,31
 1472 2 1472 2 1471 1 c 128,-1,32
 1470 0 1470 0 1469 0 c 2,33,-1
 6 0 l 2,34,35
 5 0 5 0 4 1 c 128,-1,36
 3 2 3 2 3 3 c 2,37,-1
 3 367 l 2,38,39
 3 368 3 368 4 369 c 2,40,-1
 1004 1460 l 1,41,-1
 1004 1461 l 2,42,-1
 1004 1461 l 0,43,-1
 1004 1461 l 0,44,45
 1004 1462 l 0,46,47
 1004 1463 l 0,48,49
 1004 1463 l 0,50,51
 1003.5 1463.5 l 0,52,53
 1003 1464 1003 1464 1003 1464.5 c 128,-1,54
 1003 1465 1003 1465 1002.5 1465 c 0,55,-1
 1002 1465 l 0,56,-1
 1001 1465 l 2,0,-1
EndSplineSet
EndChar

StartChar: A
Encoding: 65 65 38
Width: 1470
VWidth: -3
Flags: W
LayerCount: 2
Fore
SplineSet
1102 1 m 2,0,-1
 1102 1 l 2,1,2
 1102 1.5 l 0,3,-1
 1102 2 l 2,4,-1
 1034 227 l 2,5,6
 1034 228 l 0,7,-1
 1033.5 228.5 l 0,8,9
 1033 229 1033 229 1032.5 229 c 0,10,-1
 1032 229 l 2,11,-1
 444 229 l 2,12,13
 443 229 443 229 442 228 c 0,14,-1
 441 227 l 2,15,-1
 373 3 l 2,16,17
 373 2.5 l 0,18,-1
 373 2 l 0,19,20
 372 2 l 2,21,-1
 371 1 l 2,22,23
 370.5 0.5 l 0,24,25
 370 0 370 0 369.5 0 c 0,26,-1
 369 0 l 2,27,-1
 7 0 l 2,28,29
 5 0 5 0 4 1.5 c 128,-1,30
 3 3 3 3 4 4 c 2,31,-1
 552 1832 l 2,32,33
 552 1833 552 1833 553 1833 c 2,34,-1
 555 1834 l 2,35,-1
 556 1835 l 2,36,-1
 918 1835 l 2,37,38
 920 1835 920 1835 921 1833 c 2,39,-1
 1471 4 l 2,40,41
 1471 3 1471 3 1471 2 c 128,-1,42
 1471 1 1471 1 1470 0.5 c 128,-1,43
 1469 0 1469 0 1468 0 c 2,44,-1
 1105 0 l 2,45,46
 1103 0 1103 0 1102 1 c 2,0,-1
935 557 m 1,47,-1
 740 1207 l 2,48,49
 740 1208 740 1208 739.5 1208.5 c 128,-1,50
 739 1209 739 1209 738 1209 c 128,-1,51
 737 1209 737 1209 736 1209 c 0,52,-1
 736 1208.5 l 0,53,54
 736 1208 736 1208 735.5 1208 c 0,55,56
 735 1208 l 0,57,-1
 735 1207.5 l 0,58,-1
 735 1207 l 0,59,-1
 735 1207 l 2,60,-1
 540 557 l 2,61,62
 540 556 540 556 539.5 555.5 c 128,-1,63
 539 555 539 555 540 554 c 128,-1,64
 541 553 541 553 542 553 c 2,65,-1
 542 553 l 1,66,-1
 932 553 l 2,67,68
 933 553 933 553 933.5 553 c 128,-1,69
 934 553 934 553 934.5 553.5 c 128,-1,70
 935 554 935 554 935.5 555 c 0,71,72
 936 556 l 2,73,-1
 935 557 l 1,47,-1
EndSplineSet
EndChar

StartChar: B
Encoding: 66 66 39
Width: 1470
VWidth: -3
Flags: W
LayerCount: 2
Fore
SplineSet
6 1835 m 2,0,-1
 921 1835 l 2,1,2
 1002 1835 1002 1835 1077 1813 c 128,-1,3
 1152 1791 1152 1791 1220 1746 c 0,4,5
 1243 1731 1243 1731 1264 1715 c 128,-1,6
 1285 1699 1285 1699 1304 1681 c 128,-1,7
 1323 1663 1323 1663 1340 1643 c 128,-1,8
 1357 1623 1357 1623 1372 1601 c 0,9,10
 1382 1587 1382 1587 1391 1572 c 128,-1,11
 1400 1557 1400 1557 1408 1541 c 128,-1,12
 1416 1525 1416 1525 1424 1509 c 0,13,14
 1490 1361 1490 1361 1465.5 1201 c 128,-1,15
 1441 1041 1441 1041 1334 920 c 0,16,17
 1334 919.5 l 0,18,19
 1334 919 1334 919 1334 918 c 128,-1,20
 1334 917 1334 917 1334 916.5 c 128,-1,21
 1334 916 1334 916 1334 915 c 0,22,23
 1370 875 1370 875 1396.5 830 c 128,-1,24
 1423 785 1423 785 1440 736 c 128,-1,25
 1457 687 1457 687 1466 634 c 0,26,27
 1490 474 1490 474 1424 326 c 0,28,29
 1357 177 1357 177 1220.5 88.5 c 128,-1,30
 1084 0 1084 0 921 0 c 2,31,-1
 6 0 l 2,32,33
 5 0 5 0 4 1 c 128,-1,34
 3 2 3 2 3 3 c 2,35,-1
 3 1832 l 2,36,37
 3 1833 3 1833 4 1834 c 128,-1,38
 5 1835 5 1835 6 1835 c 2,0,-1
921 1102 m 2,39,40
 996 1102 996 1102 1049 1155.5 c 128,-1,41
 1102 1209 1102 1209 1102 1284 c 0,42,43
 1102 1321 1102 1321 1088.5 1353.5 c 128,-1,44
 1075 1386 1075 1386 1049 1412 c 0,45,46
 1036 1425 1036 1425 1021 1435 c 128,-1,47
 1006 1445 1006 1445 990 1452 c 128,-1,48
 974 1459 974 1459 956.5 1462 c 128,-1,49
 939 1465 939 1465 921 1465 c 2,50,-1
 376 1465 l 2,51,52
 375 1465 375 1465 374.5 1465 c 128,-1,53
 374 1465 374 1465 374 1464 c 0,54,55
 373.5 1463.5 l 0,56,57
 373 1463 373 1463 373 1462.5 c 0,58,-1
 373 1462 l 2,59,-1
 373 1106 l 2,60,61
 373 1105 373 1105 374 1103 c 0,62,-1
 374.5 1103 l 0,63,64
 375 1103 375 1103 375 1102.5 c 128,-1,65
 375 1102 375 1102 375.5 1102 c 0,66,-1
 376 1102 l 2,67,-1
 921 1102 l 2,39,40
921 370 m 2,68,69
 959 370 959 370 990.5 383 c 128,-1,70
 1022 396 1022 396 1049 423 c 0,71,72
 1056 430 1056 430 1061.5 437 c 128,-1,73
 1067 444 1067 444 1072 451 c 128,-1,74
 1077 458 1077 458 1081 466 c 128,-1,75
 1085 474 1085 474 1089 482 c 0,76,77
 1102 514 1102 514 1102 551 c 0,78,79
 1102 626 1102 626 1049 679.5 c 128,-1,80
 996 733 996 733 921 733 c 2,81,-1
 376 733 l 2,82,83
 375 733 375 733 374 732 c 0,84,85
 373 732 373 732 373 730 c 2,86,-1
 373 373 l 2,87,88
 373 372 373 372 374 371 c 0,89,-1
 375 370 l 0,90,-1
 376 370 l 2,91,-1
 921 370 l 2,68,69
EndSplineSet
EndChar

StartChar: C
Encoding: 67 67 40
Width: 1470
VWidth: -3
Flags: W
LayerCount: 2
Fore
SplineSet
1105 553 m 2,0,-1
 1469 553 l 2,1,2
 1470 553 1470 553 1471 552 c 128,-1,3
 1472 551 1472 551 1472 550 c 2,4,-1
 1472 460 l 2,5,6
 1472 365 1472 365 1438.5 283.5 c 128,-1,7
 1405 202 1405 202 1337 135 c 0,8,9
 1315 113 1315 113 1291 94 c 128,-1,10
 1267 75 1267 75 1241.5 60 c 128,-1,11
 1216 45 1216 45 1189 34 c 0,12,13
 1108 0 1108 0 1012 0 c 2,14,-1
 463 0 l 2,15,16
 273 0 273 0 138 134.5 c 128,-1,17
 3 269 3 269 3 460 c 2,18,-1
 3 1375 l 2,19,20
 3 1470 3 1470 36.5 1551.5 c 128,-1,21
 70 1633 70 1633 137.5 1700.5 c 128,-1,22
 205 1768 205 1768 286.5 1801.5 c 128,-1,23
 368 1835 368 1835 463 1835 c 2,24,-1
 1012 1835 l 2,25,26
 1044 1835 1044 1835 1074 1831.5 c 128,-1,27
 1104 1828 1104 1828 1133 1820.5 c 128,-1,28
 1162 1813 1162 1813 1189 1801 c 0,29,30
 1230 1784 1230 1784 1267 1759 c 128,-1,31
 1304 1734 1304 1734 1337 1700 c 0,32,33
 1404 1633 1404 1633 1438 1552 c 128,-1,34
 1472 1471 1472 1471 1472 1375 c 2,35,-1
 1472 1285 l 2,36,37
 1472 1284 1472 1284 1471 1283 c 128,-1,38
 1470 1282 1470 1282 1469 1282 c 2,39,-1
 1105 1282 l 2,40,41
 1104 1282 1104 1282 1103 1283 c 128,-1,42
 1102 1284 1102 1284 1102 1285 c 2,43,-1
 1102 1375 l 2,44,45
 1102 1393 1102 1393 1095.5 1409.5 c 128,-1,46
 1089 1426 1089 1426 1076 1439 c 0,47,48
 1072 1443 1072 1443 1067 1447 c 128,-1,49
 1062 1451 1062 1451 1057 1453.5 c 128,-1,50
 1052 1456 1052 1456 1047 1459 c 0,51,52
 1039 1462 1039 1462 1030.5 1463.5 c 128,-1,53
 1022 1465 1022 1465 1012 1465 c 2,54,-1
 463 1465 l 2,55,56
 444 1465 444 1465 428 1458.5 c 128,-1,57
 412 1452 412 1452 399 1439 c 0,58,59
 392 1432 392 1432 387.5 1425 c 128,-1,60
 383 1418 383 1418 379 1410 c 0,61,62
 377 1406 377 1406 376 1402 c 128,-1,63
 375 1398 375 1398 375 1393 c 0,64,65
 374 1390 374 1390 373.5 1387.5 c 128,-1,66
 373 1385 373 1385 373 1381.5 c 128,-1,67
 373 1378 373 1378 373 1375 c 2,68,-1
 373 460 l 2,69,70
 373 455 373 455 373.5 450.5 c 128,-1,71
 374 446 374 446 375 442 c 0,72,73
 377 433 377 433 379 425 c 0,74,75
 381 421 381 421 383 417.5 c 128,-1,76
 385 414 385 414 388 410 c 0,77,78
 393 403 393 403 399.5 396.5 c 128,-1,79
 406 390 406 390 413 385 c 0,80,81
 415 383 415 383 417.5 381.5 c 128,-1,82
 420 380 420 380 423 378.5 c 128,-1,83
 426 377 426 377 428 376 c 0,84,85
 436 373 436 373 445 371 c 0,86,87
 448 370 448 370 451 370 c 128,-1,88
 454 370 454 370 457 370 c 128,-1,89
 460 370 460 370 463 370 c 2,90,-1
 1012 370 l 2,91,92
 1024 370 1024 370 1036 373 c 0,93,94
 1042 374 1042 374 1047 376.5 c 128,-1,95
 1052 379 1052 379 1057 382 c 0,96,97
 1067 388 1067 388 1076 396 c 0,98,99
 1083 403 1083 403 1087.5 410 c 128,-1,100
 1092 417 1092 417 1095.5 425 c 128,-1,101
 1099 433 1099 433 1100.5 441.5 c 128,-1,102
 1102 450 1102 450 1102 460 c 2,103,-1
 1102 550 l 2,104,105
 1102 551 1102 551 1103 552 c 128,-1,106
 1104 553 1104 553 1105 553 c 2,0,-1
EndSplineSet
EndChar

StartChar: D
Encoding: 68 68 41
Width: 1470
VWidth: -3
Flags: W
LayerCount: 2
Fore
SplineSet
376 370 m 2,0,-1
 1012 370 l 2,1,2
 1024 370 1024 370 1036 373 c 0,3,4
 1042 374 1042 374 1047 376.5 c 128,-1,5
 1052 379 1052 379 1057 381 c 0,6,7
 1067 387 1067 387 1076 396 c 0,8,9
 1083 403 1083 403 1087.5 410 c 128,-1,10
 1092 417 1092 417 1095 425 c 0,11,12
 1102 441 1102 441 1102 460 c 2,13,-1
 1102 1375 l 2,14,15
 1102 1393 1102 1393 1095.5 1409.5 c 128,-1,16
 1089 1426 1089 1426 1076 1439 c 0,17,18
 1072 1443 1072 1443 1067 1447 c 128,-1,19
 1062 1451 1062 1451 1057 1453.5 c 128,-1,20
 1052 1456 1052 1456 1047 1459 c 0,21,22
 1039 1462 1039 1462 1030.5 1463.5 c 128,-1,23
 1022 1465 1022 1465 1012 1465 c 2,24,-1
 376 1465 l 2,25,26
 375 1465 375 1465 374.5 1465 c 128,-1,27
 374 1465 374 1465 374 1464 c 0,28,29
 373.5 1463.5 l 0,30,31
 373 1463 373 1463 373 1462.5 c 0,32,-1
 373 1462 l 2,33,-1
 373 373 l 2,34,35
 373 372 373 372 374 371 c 0,36,-1
 375 370 l 0,37,-1
 376 370 l 2,0,-1
6 1835 m 2,38,-1
 1012 1835 l 2,39,40
 1202 1835 1202 1835 1337 1700.5 c 128,-1,41
 1472 1566 1472 1566 1472 1376 c 2,42,-1
 1472 460 l 2,43,44
 1472 270 1472 270 1337.5 135 c 128,-1,45
 1203 0 1203 0 1012 0 c 2,46,-1
 6 0 l 2,47,48
 5 0 5 0 4 1 c 128,-1,49
 3 2 3 2 3 3 c 2,50,-1
 3 1832 l 2,51,52
 3 1833 3 1833 4 1834 c 128,-1,53
 5 1835 5 1835 6 1835 c 2,38,-1
EndSplineSet
EndChar

StartChar: E
Encoding: 69 69 42
Width: 1470
VWidth: -3
Flags: W
LayerCount: 2
Fore
SplineSet
1472 1827 m 2,0,-1
 1472 1473 l 2,1,2
 1472 1472 1472 1472 1471 1471 c 128,-1,3
 1470 1470 1470 1470 1469 1470 c 2,4,-1
 376 1465 l 2,5,6
 375 1465 375 1465 374 1464 c 128,-1,7
 373 1463 373 1463 373 1462 c 2,8,-1
 373 1106 l 2,9,10
 373 1105 373 1105 374 1103 c 0,11,-1
 374.5 1103 l 0,12,13
 375 1103 375 1103 375 1102.5 c 128,-1,14
 375 1102 375 1102 375.5 1102 c 0,15,16
 376 1102 l 2,17,-1
 1102 1102 l 2,18,19
 1103 1102 1103 1102 1104.5 1101 c 128,-1,20
 1106 1100 1106 1100 1106 1099 c 2,21,-1
 1106 741 l 2,22,23
 1106 740 1106 740 1105 738.5 c 128,-1,24
 1104 737 1104 737 1102 737 c 2,25,-1
 376 733 l 2,26,27
 375.5 733 l 0,28,29
 375 733 375 733 375 732.5 c 128,-1,30
 375 732 375 732 374.5 732 c 0,31,-1
 374 732 l 0,32,33
 373 731 373 731 373 730.5 c 0,34,-1
 373 730 l 2,35,-1
 373 373 l 2,36,37
 373 372 373 372 374 371 c 0,38,-1
 375 370 l 0,39,-1
 376 370 l 2,40,-1
 1469 370 l 2,41,42
 1470 370 1470 370 1471 369 c 128,-1,43
 1472 368 1472 368 1472 367 c 2,44,-1
 1472 3 l 2,45,46
 1472 2 1472 2 1471 1 c 128,-1,47
 1470 0 1470 0 1469 0 c 2,48,-1
 6 0 l 2,49,50
 5 0 5 0 4 1 c 128,-1,51
 3 2 3 2 3 3 c 2,52,-1
 3 1827 l 2,53,54
 3 1828 3 1828 4 1829 c 128,-1,55
 5 1830 5 1830 6 1830 c 2,56,-1
 1469 1830 l 2,57,58
 1470 1830 1470 1830 1471 1829 c 128,-1,59
 1472 1828 1472 1828 1472 1827 c 2,0,-1
EndSplineSet
EndChar

StartChar: grave
Encoding: 96 96 43
Width: 1593
VWidth: -3
Flags: W
LayerCount: 2
Fore
SplineSet
3 734 m 2,0,-1
 3 1101 l 2,1,2
 3 1253 3 1253 57 1382.5 c 128,-1,3
 111 1512 111 1512 218 1620 c 0,4,5
 433 1835 433 1835 737.5 1835 c 128,-1,6
 1042 1835 1042 1835 1257 1620 c 2,7,-1
 1257 1620 l 1,8,-1
 1380 1496 l 2,9,10
 1452 1424 1452 1424 1500 1343 c 0,11,12
 1548 1261 1548 1261 1572 1169.5 c 128,-1,13
 1596 1078 1596 1078 1596 977 c 2,14,-1
 1596 611 l 2,15,16
 1596 307 1596 307 1380.5 91.5 c 128,-1,17
 1165 -124 1165 -124 861 -124 c 0,18,19
 557 -124 557 -124 342 91 c 2,20,-1
 218 215 l 1,21,-1
 218 215 l 2,22,23
 110 323 110 323 56.5 452.5 c 128,-1,24
 3 582 3 582 3 734 c 2,0,-1
497 977 m 2,25,-1
 497 611 l 2,26,27
 497 561 497 561 508.5 515 c 128,-1,28
 520 469 520 469 544 429 c 0,29,30
 546 425 546 425 548 422 c 1,31,32
 552 420 552 420 556 417 c 0,33,34
 576 405 576 405 597.5 396.5 c 128,-1,35
 619 388 619 388 642 382 c 0,36,37
 688 370 688 370 738 370 c 0,38,39
 889 370 889 370 995 477 c 0,40,41
 1048 530 1048 530 1075 594.5 c 128,-1,42
 1102 659 1102 659 1102 734 c 2,43,-1
 1102 1101 l 2,44,45
 1102 1109 1102 1109 1101.5 1117.5 c 128,-1,46
 1101 1126 1101 1126 1101 1134 c 0,47,48
 1100 1150 1100 1150 1097 1165.5 c 128,-1,49
 1094 1181 1094 1181 1090 1196 c 0,50,51
 1088 1204 1088 1204 1086 1211.5 c 128,-1,52
 1084 1219 1084 1219 1081 1226 c 0,53,54
 1076 1241 1076 1241 1069 1255 c 0,55,56
 1066 1262 1066 1262 1062.5 1269 c 128,-1,57
 1059 1276 1059 1276 1055 1282 c 0,58,59
 1053 1286 1053 1286 1050 1290 c 1,60,61
 1026 1305 1026 1305 1001 1315 c 0,62,63
 936 1342 936 1342 861 1342 c 0,64,65
 823 1342 823 1342 788 1335 c 128,-1,66
 753 1328 753 1328 721 1314.5 c 128,-1,67
 689 1301 689 1301 659.5 1281 c 128,-1,68
 630 1261 630 1261 603 1235 c 0,69,70
 585 1217 585 1217 570.5 1198 c 128,-1,71
 556 1179 556 1179 544 1158.5 c 128,-1,72
 532 1138 532 1138 523 1116.5 c 128,-1,73
 514 1095 514 1095 508.5 1072.5 c 128,-1,74
 503 1050 503 1050 500 1026 c 128,-1,75
 497 1002 497 1002 497 977 c 2,25,-1
355 1101 m 2,76,77
 355 1106 355 1106 355.5 1111 c 128,-1,78
 356 1116 356 1116 356 1121.5 c 128,-1,79
 356 1127 356 1127 356.5 1132 c 128,-1,80
 357 1137 357 1137 357.5 1142 c 128,-1,81
 358 1147 358 1147 358 1152 c 0,82,83
 361 1177 361 1177 368 1201 c 0,84,85
 371 1213 371 1213 375 1224.5 c 128,-1,86
 379 1236 379 1236 383 1247 c 0,87,88
 392 1270 392 1270 405 1291 c 0,89,90
 417 1312 417 1312 433 1332 c 0,91,92
 448 1352 448 1352 467 1371 c 0,93,94
 495 1399 495 1399 526 1420 c 0,95,96
 557 1441 557 1441 591 1455 c 0,97,98
 608 1462 608 1462 625.5 1467 c 128,-1,99
 643 1472 643 1472 661 1476 c 0,100,101
 673 1478 673 1478 686 1479.5 c 128,-1,102
 699 1481 699 1481 711.5 1482 c 128,-1,103
 724 1483 724 1483 738 1483 c 0,104,105
 817 1483 817 1483 884.5 1455 c 128,-1,106
 952 1427 952 1427 1008 1371 c 0,107,108
 1020 1359 1020 1359 1031 1346 c 0,109,110
 1037 1340 1037 1340 1042 1333 c 128,-1,111
 1047 1326 1047 1326 1052 1319 c 128,-1,112
 1057 1312 1057 1312 1061 1305 c 0,113,114
 1063 1302 1063 1302 1065.5 1298.5 c 128,-1,115
 1068 1295 1068 1295 1070 1291.5 c 128,-1,116
 1072 1288 1072 1288 1074 1284 c 128,-1,117
 1076 1280 1076 1280 1078 1277 c 0,118,119
 1082 1270 1082 1270 1085 1262 c 0,120,121
 1092 1247 1092 1247 1097 1232 c 0,122,123
 1100 1224 1100 1224 1102.5 1216.5 c 128,-1,124
 1105 1209 1105 1209 1107 1201 c 128,-1,125
 1109 1193 1109 1193 1111 1185 c 128,-1,126
 1113 1177 1113 1177 1114 1168 c 0,127,128
 1117 1152 1117 1152 1118 1135 c 0,129,130
 1119 1127 1119 1127 1119 1118 c 0,131,132
 1119 1114 1119 1114 1119.5 1109.5 c 128,-1,133
 1120 1105 1120 1105 1120 1101 c 2,134,-1
 1120 734 l 2,135,136
 1120 695 1120 695 1113 658.5 c 128,-1,137
 1106 622 1106 622 1092 588 c 0,138,139
 1064 520 1064 520 1008 464 c 0,140,141
 952 408 952 408 884 380 c 128,-1,142
 816 352 816 352 738 352 c 0,143,144
 712 352 712 352 686.5 355 c 128,-1,145
 661 358 661 358 637 365 c 0,146,147
 613 371 613 371 590.5 380.5 c 128,-1,148
 568 390 568 390 547 402 c 0,149,150
 545 403 545 403 543 404.5 c 128,-1,151
 541 406 541 406 538.5 407.5 c 128,-1,152
 536 409 536 409 534 410 c 128,-1,153
 532 411 532 411 530 412.5 c 128,-1,154
 528 414 528 414 526 415 c 0,155,156
 523 417 523 417 519.5 420 c 128,-1,157
 516 423 516 423 512.5 425.5 c 128,-1,158
 509 428 509 428 506 430 c 0,159,160
 501 434 501 434 496 438 c 128,-1,161
 491 442 491 442 486 446 c 0,162,163
 476 455 476 455 467 464 c 0,164,165
 430 501 430 501 405 544 c 0,166,167
 380 587 380 587 368 634 c 0,168,169
 366 644 366 644 363.5 653.5 c 128,-1,170
 361 663 361 663 359.5 673 c 128,-1,171
 358 683 358 683 357 693 c 128,-1,172
 356 703 356 703 355.5 713.5 c 128,-1,173
 355 724 355 724 355 734 c 2,174,-1
 355 1101 l 2,76,77
21 734 m 2,175,176
 21 660 21 660 34 591 c 128,-1,177
 47 522 47 522 73 459 c 0,178,179
 125 333 125 333 231 228 c 0,180,181
 336 123 336 123 462.5 70.5 c 128,-1,182
 589 18 589 18 737 18 c 0,183,184
 811 18 811 18 880 31 c 128,-1,185
 949 44 949 44 1012.5 70 c 128,-1,186
 1076 96 1076 96 1134 135.5 c 128,-1,187
 1192 175 1192 175 1244 228 c 0,188,189
 1349 333 1349 333 1401.5 459.5 c 128,-1,190
 1454 586 1454 586 1454 734 c 2,191,-1
 1454 1101 l 2,192,193
 1454 1200 1454 1200 1431 1289 c 0,194,195
 1408 1378 1408 1378 1361 1458 c 0,196,197
 1314 1538 1314 1538 1244 1607 c 0,198,199
 1139 1712 1139 1712 1012.5 1764.5 c 128,-1,200
 886 1817 886 1817 737 1817 c 0,201,202
 638 1817 638 1817 549 1794 c 128,-1,203
 460 1771 460 1771 380.5 1724.5 c 128,-1,204
 301 1678 301 1678 231 1607 c 0,205,206
 126 1502 126 1502 73.5 1375.5 c 128,-1,207
 21 1249 21 1249 21 1101 c 2,208,-1
 21 734 l 2,175,176
EndSplineSet
EndChar

StartChar: a
Encoding: 97 97 44
Width: 1044
VWidth: -3
Flags: W
LayerCount: 2
Fore
SplineSet
1046 1708 m 2,0,-1
 1046 -121 l 2,1,2
 1046 -122 1046 -122 1045 -123 c 128,-1,3
 1044 -124 1044 -124 1043 -124 c 2,4,-1
 679 -124 l 2,5,6
 678 -124 678 -124 677 -123 c 2,7,-1
 554 1 l 2,8,9
 553 1 l 0,10,11
 552 2 552 2 553 3 c 2,12,-1
 553 1832 l 2,13,14
 553 1833 553 1833 554 1834 c 128,-1,15
 555 1835 555 1835 556 1835 c 2,16,-1
 919 1835 l 2,17,18
 920 1835 920 1835 921 1834 c 0,19,20
 922 1834 l 2,21,-1
 1045 1710 l 2,22,23
 1046 1709 1046 1709 1046 1708 c 2,0,-1
3 3 m 2,24,-1
 3 184 l 2,25,26
 3 185 3 185 4 186 c 128,-1,27
 5 187 5 187 6 187 c 2,28,-1
 187 187 l 2,29,30
 188 187 188 187 189 186 c 0,31,32
 189 186 l 2,33,-1
 313 62 l 2,34,35
 314 61 314 61 313 60 c 2,36,-1
 313 -121 l 2,37,38
 313 -122 313 -122 312 -123 c 128,-1,39
 311 -124 311 -124 310 -124 c 2,40,-1
 130 -124 l 2,41,42
 129 -124 129 -124 128 -123 c 2,43,-1
 4 1 l 2,44,45
 4 1 l 0,46,47
 3 2 3 2 3 3 c 2,24,-1
21 18 m 1,48,-1
 172 18 l 1,49,-1
 172 169 l 1,50,-1
 21 169 l 1,51,-1
 21 18 l 1,48,-1
905 1818 m 1,52,-1
 570 1818 l 1,53,-1
 570 18 l 1,54,-1
 905 18 l 1,55,-1
 905 1818 l 1,52,-1
EndSplineSet
EndChar

StartChar: b
Encoding: 98 98 45
Width: 1593
VWidth: -3
Flags: W
LayerCount: 2
Fore
SplineSet
10 1284 m 1,0,1
 44 1521 44 1521 225 1678 c 0,2,3
 316 1757 316 1757 421 1796 c 128,-1,4
 526 1835 526 1835 646 1835 c 2,5,-1
 921 1835 l 2,6,7
 997 1835 997 1835 1065.5 1817 c 128,-1,8
 1134 1799 1134 1799 1195.5 1763 c 128,-1,9
 1257 1727 1257 1727 1310 1674 c 2,10,-1
 1310 1673 l 1,11,-1
 1434 1550 l 2,12,13
 1515 1469 1515 1469 1555 1372 c 128,-1,14
 1595 1275 1595 1275 1596 1160 c 0,15,16
 1596 930 1596 930 1450 753 c 0,17,-1
 1450 752 l 2,18,-1
 940 370 l 1,19,-1
 1469 370 l 2,20,21
 1470 370 1470 370 1471 369 c 0,22,-1
 1471 369 l 2,23,-1
 1595 245 l 2,24,25
 1596 244 1596 244 1596 243 c 2,26,-1
 1596 -121 l 2,27,28
 1596 -122 1596 -122 1595 -123 c 128,-1,29
 1594 -124 1594 -124 1592 -124 c 2,30,-1
 130 -124 l 2,31,32
 129 -124 129 -124 128 -123 c 2,33,-1
 4 1 l 2,34,-1
 4 1 l 0,35,36
 3 2 3 2 3 3 c 2,37,-1
 3 366 l 2,38,39
 3 367 3 367 3 368 c 2,40,-1
 4 369 l 2,41,42
 4 370 4 370 5 370 c 2,43,-1
 1030 1139 l 2,44,45
 1056 1159 1056 1159 1072.5 1181 c 128,-1,46
 1089 1203 1089 1203 1097 1229 c 0,47,48
 1112 1278 1112 1278 1094 1336 c 1,49,50
 1071 1341 1071 1341 1044 1342 c 2,51,-1
 770 1342 l 2,52,53
 756 1342 756 1342 742 1340.5 c 128,-1,54
 728 1339 728 1339 715 1336 c 0,55,56
 689 1331 689 1331 665 1321 c 0,57,58
 653 1316 653 1316 641.5 1310 c 128,-1,59
 630 1304 630 1304 619 1296.5 c 128,-1,60
 608 1289 608 1289 597.5 1280.5 c 128,-1,61
 587 1272 587 1272 577 1262 c 0,62,63
 572 1257 572 1257 566.5 1251 c 128,-1,64
 561 1245 561 1245 556.5 1239.5 c 128,-1,65
 552 1234 552 1234 548 1229 c 0,66,67
 535 1212 535 1212 525.5 1193 c 128,-1,68
 516 1174 516 1174 509.5 1154.5 c 128,-1,69
 503 1135 503 1135 500 1114 c 128,-1,70
 497 1093 497 1093 497 1070 c 0,71,72
 497 1068 497 1068 495 1068 c 1,73,-1
 372 1192 l 1,74,-1
 371 1192 l 1,75,-1
 495 1068 l 1,76,77
 494 1067 494 1067 492 1067 c 2,78,-1
 136 1156 l 1,79,-1
 12 1280 l 2,80,-1
 12 1280 l 0,81,-1
 12 1280 l 2,82,-1
 10 1284 l 1,0,1
659 370 m 2,83,-1
 657 372 l 2,84,85
 657 371 657 371 658 371 c 0,86,-1
 658 371 l 0,87,-1
 659 370 l 0,88,-1
 659 370 l 2,83,-1
29 1294 m 1,89,-1
 356 1212 l 1,90,91
 356 1219 356 1219 357 1226 c 128,-1,92
 358 1233 358 1233 359 1240 c 0,93,94
 360 1246 360 1246 361 1251.5 c 128,-1,95
 362 1257 362 1257 363.5 1262.5 c 128,-1,96
 365 1268 365 1268 366.5 1273.5 c 128,-1,97
 368 1279 368 1279 369 1284 c 0,98,99
 371 1291 371 1291 374 1298 c 128,-1,100
 377 1305 377 1305 380 1311.5 c 128,-1,101
 383 1318 383 1318 386 1325 c 0,102,103
 389 1330 389 1330 392 1334.5 c 128,-1,104
 395 1339 395 1339 398 1344 c 128,-1,105
 401 1349 401 1349 404 1353.5 c 128,-1,106
 407 1358 407 1358 410 1363 c 0,107,108
 415 1369 415 1369 420 1375 c 0,109,110
 422 1378 422 1378 424.5 1380.5 c 128,-1,111
 427 1383 427 1383 429.5 1386 c 128,-1,112
 432 1389 432 1389 435 1392 c 128,-1,113
 438 1395 438 1395 440 1398 c 0,114,115
 451 1409 451 1409 462 1417 c 0,116,117
 468 1422 468 1422 473.5 1426.5 c 128,-1,118
 479 1431 479 1431 485 1435 c 0,119,120
 497 1443 497 1443 509 1449 c 0,121,122
 510 1450 510 1450 511.5 1451 c 128,-1,123
 513 1452 513 1452 514.5 1452.5 c 128,-1,124
 516 1453 516 1453 517.5 1453.5 c 128,-1,125
 519 1454 519 1454 520.5 1455 c 128,-1,126
 522 1456 522 1456 523 1456.5 c 128,-1,127
 524 1457 524 1457 525.5 1457.5 c 128,-1,128
 527 1458 527 1458 528.5 1459 c 128,-1,129
 530 1460 530 1460 531.5 1460.5 c 128,-1,130
 533 1461 533 1461 534 1461 c 0,131,132
 560 1472 560 1472 588 1477 c 0,133,134
 602 1480 602 1480 617 1481 c 0,135,136
 631 1482 631 1482 646 1483 c 2,137,-1
 921 1483 l 2,138,139
 992 1483 992 1483 1039 1448 c 0,140,141
 1063 1431 1063 1431 1081 1405 c 0,142,143
 1098 1380 1098 1380 1109 1347 c 0,144,145
 1131 1280 1131 1280 1114 1223 c 0,146,147
 1110 1209 1110 1209 1103 1196 c 128,-1,148
 1096 1183 1096 1183 1086 1170 c 0,149,150
 1068 1146 1068 1146 1040 1125 c 2,151,-1
 21 360 l 1,152,-1
 21 18 l 1,153,-1
 1454 18 l 1,154,-1
 1454 352 l 1,155,-1
 660 352 l 2,156,157
 658 352 658 352 656 352.5 c 128,-1,158
 654 353 654 353 652 354 c 0,159,160
 648 356 648 356 645 359 c 128,-1,161
 642 362 642 362 641 367 c 0,162,163
 640 369 640 369 640 371 c 128,-1,164
 640 373 640 373 640 375 c 0,165,166
 640 378 640 378 641 380.5 c 128,-1,167
 642 383 642 383 644 385.5 c 128,-1,168
 646 388 646 388 648 389 c 2,169,-1
 1314 889 l 1,170,171
 1455 1062 1455 1062 1454 1284 c 0,172,173
 1454 1395 1454 1395 1415 1489 c 0,174,175
 1395 1536 1395 1536 1366 1579 c 128,-1,176
 1337 1622 1337 1622 1298 1661 c 0,177,178
 1246 1713 1246 1713 1186 1748 c 0,179,180
 1127 1783 1127 1783 1061 1800 c 0,181,182
 1028 1809 1028 1809 993 1813.5 c 128,-1,183
 958 1818 958 1818 921 1818 c 2,184,-1
 646 1818 l 2,185,186
 529 1818 529 1818 427 1779 c 0,187,188
 376 1760 376 1760 328 1731.5 c 128,-1,189
 280 1703 280 1703 236 1664 c 0,190,191
 65 1516 65 1516 29 1294 c 1,89,-1
EndSplineSet
EndChar

StartChar: c
Encoding: 99 99 46
Width: 1586
VWidth: -3
Flags: W
LayerCount: 2
Fore
SplineSet
89 1835 m 2,0,-1
 1368 1835 l 2,1,2
 1369 1835 1369 1835 1370 1834 c 0,3,4
 1370 1834 l 2,5,-1
 1494 1710 l 2,6,7
 1495 1709 1495 1709 1495 1708 c 2,8,-1
 1495 1345 l 2,9,10
 1495 1344 1495 1344 1495 1343 c 2,11,-1
 1494 1342 l 2,12,13
 1494 1341 1494 1341 1493 1341 c 2,14,-1
 1135 1055 l 1,15,16
 1184 1033 1184 1033 1227 1003 c 0,17,18
 1268 975 1268 975 1302 941 c 0,19,20
 1304 939 1304 939 1306 937 c 2,21,-1
 1430 813 l 2,22,23
 1454 788 1454 788 1474.5 760.5 c 128,-1,24
 1495 733 1495 733 1512.5 702.5 c 128,-1,25
 1530 672 1530 672 1544 639 c 0,26,27
 1586 538 1586 538 1587 428 c 0,28,29
 1587 371 1587 371 1577 318 c 128,-1,30
 1567 265 1567 265 1546 216 c 0,31,32
 1506 119 1506 119 1425 38 c 128,-1,33
 1344 -43 1344 -43 1247 -83.5 c 128,-1,34
 1150 -124 1150 -124 1035 -124 c 2,35,-1
 578 -124 l 2,36,37
 414 -124 414 -124 286 -19 c 0,38,39
 267 -3 267 -3 250 13 c 2,40,-1
 126 137 l 2,41,42
 31 232 31 232 3 369 c 0,43,44
 3 370 3 370 3.5 371 c 128,-1,45
 4 372 4 372 6 372 c 2,46,-1
 360 461 l 2,47,48
 361 461 361 461 361.5 461 c 128,-1,49
 362 461 362 461 363 460 c 0,50,51
 363 460 l 0,52,53
 364 459 l 0,54,55
 364 458 l 2,56,-1
 452 370 l 1,57,58
 453 370 453 370 454 370 c 2,59,-1
 912 370 l 2,60,61
 987 370 987 370 1040 423 c 0,62,63
 1066 449 1066 449 1079.5 481.5 c 128,-1,64
 1093 514 1093 514 1093 551 c 0,65,66
 1093 578 1093 578 1086 602 c 1,67,68
 1062 609 1062 609 1035 609 c 2,69,-1
 487 609 l 2,70,71
 486 609 486 609 485 610 c 2,72,-1
 362 733 l 2,73,74
 361 734 l 0,75,76
 360 735 360 735 360 736 c 2,77,-1
 360 1099 l 2,78,79
 360.5 1099.5 l 0,80,-1
 361 1100 l 0,81,-1
 361 1101 l 2,82,-1
 361 1102 l 2,83,84
 361.5 1102.5 l 0,85,-1
 362 1103 l 2,86,-1
 661 1342 l 1,87,-1
 213 1342 l 2,88,89
 212 1342 212 1342 211 1342 c 2,90,-1
 87 1466 l 2,91,92
 87 1466 l 0,93,94
 86 1467 86 1467 86 1468 c 2,95,-1
 86 1832 l 2,96,97
 86 1833 86 1833 87 1834 c 128,-1,98
 88 1835 88 1835 89 1835 c 2,0,-1
809 1462 m 2,99,100
 809 1463 l 0,101,102
 809 1464 l 2,103,-1
 809 1464 l 2,104,105
 808 1465 l 0,106,107
 807 1465 807 1465 806 1465 c 2,108,-1
 809 1462 l 2,99,100
925 1102 m 1,109,-1
 922 1105 l 2,110,111
 922.5 1104.5 l 0,112,113
 923 1104 923 1104 923 1103.5 c 0,114,-1
 923 1103 l 0,115,-1
 923 1103 l 0,116,117
 924 1102 924 1102 925 1102 c 1,109,-1
103 1818 m 1,118,-1
 103 1483 l 1,119,-1
 806 1483 l 2,120,121
 808 1483 808 1483 810.5 1482.5 c 128,-1,122
 813 1482 813 1482 814 1481 c 0,123,124
 815 1481 815 1481 816 1480.5 c 128,-1,125
 817 1480 817 1480 818 1479.5 c 128,-1,126
 819 1479 819 1479 820 1478 c 128,-1,127
 821 1477 821 1477 821 1476 c 0,128,129
 825 1472 825 1472 827 1466 c 0,130,131
 827 1465 827 1465 827 1464.5 c 128,-1,132
 827 1464 827 1464 827 1463 c 128,-1,133
 827 1462 827 1462 827 1461 c 0,134,135
 827 1458 827 1458 826 1455 c 0,136,137
 824 1449 824 1449 819 1446 c 2,138,-1
 378 1093 l 1,139,-1
 378 750 l 1,140,-1
 912 750 l 2,141,142
 939 750 939 750 964 743.5 c 128,-1,143
 989 737 989 737 1011 724 c 128,-1,144
 1033 711 1033 711 1052.5 692 c 128,-1,145
 1072 673 1072 673 1085 650.5 c 128,-1,146
 1098 628 1098 628 1104.5 603 c 128,-1,147
 1111 578 1111 578 1111 551 c 0,148,149
 1111 537 1111 537 1109 524.5 c 128,-1,150
 1107 512 1107 512 1104 499.5 c 128,-1,151
 1101 487 1101 487 1096 475 c 0,152,153
 1081 440 1081 440 1052 411 c 128,-1,154
 1023 382 1023 382 988 367 c 128,-1,155
 953 352 953 352 912 352 c 2,156,-1
 454 352 l 2,157,158
 453 352 453 352 451.5 352 c 128,-1,159
 450 352 450 352 448.5 352 c 128,-1,160
 447 352 447 352 445 353 c 0,161,162
 441 353 441 353 437 353.5 c 128,-1,163
 433 354 433 354 428.5 355 c 128,-1,164
 424 356 424 356 421 357 c 0,165,166
 413 360 413 360 405 364 c 0,167,168
 404 364 404 364 403 364.5 c 128,-1,169
 402 365 402 365 401.5 365.5 c 128,-1,170
 401 366 401 366 400 366.5 c 128,-1,171
 399 367 399 367 398 368 c 0,172,173
 396 369 396 369 394.5 370 c 128,-1,174
 393 371 393 371 391 373 c 0,175,176
 388 376 388 376 384 378 c 0,177,178
 383 379 383 379 382 380 c 128,-1,179
 381 381 381 381 380 382 c 128,-1,180
 379 383 379 383 378 384 c 0,181,182
 354 408 354 408 348 440 c 1,183,-1
 23 359 l 1,184,185
 57 214 57 214 173 118 c 0,186,187
 295 18 295 18 454 18 c 2,188,-1
 912 18 l 2,189,190
 1023 18 1023 18 1117 56 c 0,191,192
 1164 75 1164 75 1207 105 c 128,-1,193
 1250 135 1250 135 1289 174 c 0,194,195
 1367 252 1367 252 1407 346 c 0,196,197
 1426 393 1426 393 1436 444 c 0,198,199
 1438 453 1438 453 1439 461.5 c 128,-1,200
 1440 470 1440 470 1441 479 c 128,-1,201
 1442 488 1442 488 1443 497 c 128,-1,202
 1444 506 1444 506 1444.5 515 c 128,-1,203
 1445 524 1445 524 1445.5 533 c 128,-1,204
 1446 542 1446 542 1446 551 c 0,205,206
 1446 604 1446 604 1435.5 655.5 c 128,-1,207
 1425 707 1425 707 1404 756 c 0,208,209
 1390 789 1390 789 1374 818 c 0,210,211
 1357 848 1357 848 1337 874 c 0,212,213
 1327 887 1327 887 1316 900 c 128,-1,214
 1305 913 1305 913 1294 925 c 0,215,216
 1259 961 1259 961 1217 989 c 0,217,218
 1210 994 1210 994 1203 998.5 c 128,-1,219
 1196 1003 1196 1003 1189 1007 c 128,-1,220
 1182 1011 1182 1011 1174.5 1015.5 c 128,-1,221
 1167 1020 1167 1020 1159 1024 c 128,-1,222
 1151 1028 1151 1028 1143.5 1031.5 c 128,-1,223
 1136 1035 1136 1035 1128 1039 c 0,224,225
 1032 1082 1032 1082 925 1085 c 0,226,227
 922 1085 922 1085 919.5 1085.5 c 128,-1,228
 917 1086 917 1086 914.5 1087.5 c 128,-1,229
 912 1089 912 1089 910 1091 c 0,230,-1
 910 1091.5 l 0,231,-1
 910 1092 l 0,232,-1
 909.5 1092 l 0,233,234
 909 1092 909 1092 909 1092.5 c 0,235,236
 909 1093 l 0,237,-1
 908.5 1093.5 l 0,238,-1
 908 1094 l 0,239,-1
 908 1094 l 0,240,241
 908 1094.5 l 0,242,243
 908 1095 908 1095 907.5 1095 c 128,-1,244
 907 1095 907 1095 907 1095.5 c 0,245,-1
 907 1096 l 0,246,-1
 907 1096.5 l 0,247,248
 907 1097 907 1097 906.5 1097.5 c 0,249,-1
 906 1098 l 0,250,251
 905 1100 905 1100 905 1101 c 0,252,253
 904 1107 904 1107 906 1112 c 0,254,255
 907 1114 907 1114 908 1115.5 c 128,-1,256
 909 1117 909 1117 910 1118.5 c 128,-1,257
 911 1120 911 1120 912 1121 c 2,258,-1
 1354 1475 l 1,259,-1
 1354 1817 l 1,260,-1
 103 1818 l 1,118,-1
EndSplineSet
EndChar

StartChar: d
Encoding: 100 100 47
Width: 1593
VWidth: -3
Flags: W
LayerCount: 2
Fore
SplineSet
1199 828 m 2,0,-1
 1197 830 l 2,1,2
 1198 829 l 0,3,4
 1198 829 l 0,5,6
 1199 828 l 2,0,-1
827 457 m 2,7,8
 826.5 457 l 0,9,-1
 826 457 l 2,10,-1
 827 457 l 2,7,8
827 334 m 1,11,-1
 130 334 l 2,12,13
 129 334 129 334 128 335 c 2,14,-1
 4 459 l 2,15,16
 4 459 l 0,17,18
 3 460 3 460 3 461 c 2,19,-1
 3 825 l 1,20,-1
 3 826 l 1,21,-1
 4 827 l 2,22,23
 4 828 l 2,24,-1
 827 1833 l 2,25,26
 827.5 1833.5 l 0,27,-1
 828 1834 l 0,28,-1
 828.5 1834.5 l 0,29,-1
 829 1835 l 2,30,-1
 1194 1835 l 2,31,32
 1195 1835 1195 1835 1196 1834 c 0,33,34
 1196 1834 l 2,35,-1
 1320 1710 l 2,36,37
 1321 1709 1321 1709 1321 1708 c 2,38,-1
 1321 828 l 1,39,-1
 1469 828 l 2,40,41
 1470 828 1470 828 1471 827 c 0,42,43
 1471 827 l 2,44,-1
 1595 703 l 2,45,46
 1596 702 1596 702 1596 701 c 2,47,-1
 1596 337 l 2,48,49
 1596 336 1596 336 1595 335 c 128,-1,50
 1594 334 1594 334 1592 334 c 2,51,-1
 1324 334 l 2,52,53
 1323 334 1323 334 1322.5 334 c 128,-1,54
 1322 334 1322 334 1322 333 c 0,55,56
 1321.5 332.5 l 0,57,-1
 1321 332 l 2,58,-1
 1197 455 l 2,59,60
 1197 455 l 2,61,-1
 1321 331 l 1,62,-1
 1321 -121 l 2,63,64
 1321 -122 1321 -122 1320 -123 c 128,-1,65
 1319 -124 1319 -124 1318 -124 c 2,66,-1
 954 -124 l 2,67,68
 953 -124 953 -124 952 -123 c 2,69,-1
 828 1 l 2,70,71
 828 1 l 0,72,73
 827 2 827 2 827 3 c 2,74,-1
 827 334 l 1,11,-1
465 828 m 1,75,-1
 462 831 l 2,76,77
 462 830.5 l 0,78,79
 462 830 462 830 462 829 c 0,80,-1
 462 829 l 0,81,-1
 462 829 l 0,82,83
 463 829 l 0,84,85
 463 828 l 0,86,87
 463 828 l 0,88,89
 464 827 464 827 465 828 c 2,90,-1
 465 828 l 1,75,-1
683 828 m 1,91,-1
 824 828 l 2,92,93
 825 828 825 828 826 829 c 128,-1,94
 827 830 827 830 827 831 c 2,95,-1
 827 1004 l 1,96,-1
 683 828 l 1,91,-1
827 1272 m 2,97,-1
 826.5 1272 l 0,98,-1
 826 1272 l 2,99,-1
 827 1272 l 2,97,-1
845 831 m 2,100,101
 845 823 845 823 839 817 c 0,102,103
 836 814 836 814 832 812 c 128,-1,104
 828 810 828 810 824 810 c 2,105,-1
 465 810 l 2,106,107
 459 810 459 810 453 814 c 0,108,109
 452 815 452 815 451 815 c 0,110,111
 450 816 450 816 449 818 c 0,112,-1
 448.5 818 l 0,113,-1
 448 818 l 0,114,-1
 448 818.5 l 0,115,-1
 448 819 l 0,116,-1
 447.5 819.5 l 0,117,-1
 447 820 l 0,118,-1
 447 820 l 0,119,120
 446 821 446 821 446 823 c 0,121,122
 446 824 446 824 445.5 824.5 c 128,-1,123
 445 825 445 825 444.5 826 c 128,-1,124
 444 827 444 827 444 828 c 0,125,126
 444 831 444 831 444 833 c 0,127,128
 444 836 444 836 445.5 839 c 128,-1,129
 447 842 447 842 449 844 c 2,130,-1
 808 1283 l 2,131,132
 811 1286 811 1286 815 1288 c 128,-1,133
 819 1290 819 1290 823 1291 c 0,134,135
 827 1291 827 1291 831 1289.5 c 128,-1,136
 835 1288 835 1288 838 1285 c 128,-1,137
 841 1282 841 1282 843 1278 c 128,-1,138
 845 1274 845 1274 845 1270 c 2,139,-1
 845 831 l 2,100,101
1200 810 m 2,140,141
 1196 810 1196 810 1192 812 c 0,142,143
 1189 813 1189 813 1186 816 c 128,-1,144
 1183 819 1183 819 1181 822 c 0,145,146
 1180 823 1180 823 1180 824.5 c 128,-1,147
 1180 826 1180 826 1180 827 c 128,-1,148
 1180 828 1180 828 1180 829 c 128,-1,149
 1180 830 1180 830 1180 831 c 2,150,-1
 1180 1817 l 1,151,152
 1123 1817 1123 1817 1008.5 1817 c 128,-1,153
 894 1817 894 1817 836 1817 c 1,154,-1
 21 820 l 1,155,-1
 21 475 l 1,156,-1
 824 475 l 2,157,158
 832 475 832 475 838 470 c 0,159,160
 841 467 841 467 843 463 c 128,-1,161
 845 459 845 459 845 455 c 2,162,-1
 845 18 l 1,163,-1
 1180 18 l 1,164,-1
 1180 455 l 2,165,166
 1180 458 1180 458 1180 460 c 0,167,168
 1181 463 1181 463 1182 465 c 128,-1,169
 1183 467 1183 467 1185 469 c 0,170,171
 1188 472 1188 472 1192 474 c 0,172,173
 1194 475 1194 475 1195.5 475 c 128,-1,174
 1197 475 1197 475 1198 475 c 128,-1,175
 1199 475 1199 475 1200 475 c 2,176,-1
 1454 475 l 1,177,-1
 1454 810 l 1,178,-1
 1200 810 l 2,140,141
EndSplineSet
EndChar

StartChar: e
Encoding: 101 101 48
Width: 1593
VWidth: -3
Flags: W
LayerCount: 2
Fore
SplineSet
1412 1708 m 2,0,-1
 1412 1345 l 2,1,2
 1412 1344 1412 1344 1411 1343 c 128,-1,3
 1410 1342 1410 1342 1409 1342 c 2,4,-1
 500 1342 l 2,5,6
 499 1342 499 1342 498.5 1341.5 c 0,7,-1
 498 1341 l 0,8,9
 497.5 1340 l 0,10,-1
 497 1339 l 2,11,-1
 373 1463 l 2,12,13
 373 1462 l 2,14,-1
 497 1338 l 1,15,-1
 497 1102 l 1,16,-1
 921 1102 l 2,17,18
 1149 1102 1149 1102 1310 941 c 2,19,-1
 1310 941 l 1,20,-1
 1434 817 l 2,21,22
 1595 656 1595 656 1595 427.5 c 128,-1,23
 1595 199 1595 199 1434 38 c 0,24,25
 1353 -43 1353 -43 1256 -83 c 0,26,27
 1207 -103 1207 -103 1154 -113.5 c 128,-1,28
 1101 -124 1101 -124 1044 -124 c 2,29,-1
 586 -124 l 2,30,31
 421 -124 421 -124 295 -19 c 0,32,33
 276 -3 276 -3 259 13 c 2,34,-1
 135 137 l 2,35,36
 40 232 40 232 12 369 c 0,37,38
 12 370 12 370 12.5 371 c 128,-1,39
 13 372 13 372 14 372 c 2,40,-1
 369 461 l 2,41,42
 370 461 370 461 371 460 c 2,43,-1
 372 460 l 2,44,45
 372 460 l 2,46,-1
 462 370 l 2,47,48
 463 370 l 2,49,-1
 921 370 l 2,50,51
 996 370 996 370 1049 423 c 0,52,53
 1067 441 1067 441 1078.5 461 c 128,-1,54
 1090 481 1090 481 1096 504 c 0,55,56
 1099 515 1099 515 1100.5 527 c 128,-1,57
 1102 539 1102 539 1102 551 c 0,58,59
 1102 578 1102 578 1095 602 c 1,60,61
 1071 609 1071 609 1044 609 c 2,62,-1
 130 609 l 2,63,64
 129 609 129 609 128 610 c 2,65,-1
 4 733 l 2,66,67
 4 734 l 0,68,69
 3 735 3 735 3 736 c 2,70,-1
 3 1832 l 2,71,72
 3 1833 3 1833 4 1834 c 128,-1,73
 5 1835 5 1835 6 1835 c 2,74,-1
 1286 1835 l 2,75,76
 1287 1835 1287 1835 1288 1834 c 0,77,78
 1288 1834 l 2,79,-1
 1412 1710 l 2,80,81
 1412 1709 1412 1709 1412 1708 c 2,0,-1
376 1102 m 2,82,-1
 373 1106 l 1,83,84
 373 1105 373 1105 374 1103 c 0,85,86
 375 1102 l 0,87,-1
 376 1102 l 2,82,-1
362 1091 m 128,-1,89
 359 1094 359 1094 357.5 1097 c 128,-1,90
 356 1100 356 1100 355 1104 c 2,91,-1
 355 1105 l 1,92,-1
 355 1462 l 2,93,94
 355 1465 355 1465 356 1467 c 0,95,96
 356 1468 356 1468 356 1468.5 c 128,-1,97
 356 1469 356 1469 356.5 1469.5 c 128,-1,98
 357 1470 357 1470 357 1470.5 c 128,-1,99
 357 1471 357 1471 357.5 1471 c 128,-1,100
 358 1471 358 1471 358 1471.5 c 0,101,-1
 358 1472 l 0,102,103
 359 1474 359 1474 361 1476 c 0,104,105
 364 1479 364 1479 368 1481 c 0,106,107
 368.5 1481.5 l 0,108,109
 369 1482 369 1482 369.5 1482 c 128,-1,110
 370 1482 370 1482 370.5 1482 c 128,-1,111
 371 1482 371 1482 371.5 1482 c 128,-1,112
 372 1482 372 1482 372.5 1482 c 128,-1,113
 373 1482 373 1482 373 1482.5 c 128,-1,114
 373 1483 373 1483 373.5 1483 c 128,-1,115
 374 1483 374 1483 374.5 1483 c 128,-1,116
 375 1483 375 1483 375.5 1483 c 0,117,-1
 376 1483 l 2,118,-1
 1271 1483 l 1,119,-1
 1271 1817 l 1,120,-1
 21 1818 l 1,121,-1
 21 750 l 1,122,-1
 921 750 l 2,123,124
 962 750 962 750 997 735 c 0,125,126
 1015 728 1015 728 1031 717 c 128,-1,127
 1047 706 1047 706 1061 692 c 0,128,129
 1090 663 1090 663 1104.5 627.5 c 128,-1,130
 1119 592 1119 592 1119 551 c 0,131,132
 1119 537 1119 537 1118 525 c 0,133,134
 1116 512 1116 512 1113 499 c 0,135,136
 1111 493 1111 493 1109 487 c 128,-1,137
 1107 481 1107 481 1104.5 475 c 128,-1,138
 1102 469 1102 469 1099 463.5 c 128,-1,139
 1096 458 1096 458 1093 452 c 0,140,141
 1087 441 1087 441 1079 430.5 c 128,-1,142
 1071 420 1071 420 1061 411 c 0,143,144
 1032 382 1032 382 996.5 367 c 128,-1,145
 961 352 961 352 921 352 c 2,146,-1
 463 352 l 2,147,148
 458 352 458 352 452 353 c 0,149,150
 447 353 447 353 442 354 c 0,151,152
 432 356 432 356 422 360 c 0,153,154
 417 362 417 362 412.5 364.5 c 128,-1,155
 408 367 408 367 403 370 c 0,156,157
 394 376 394 376 387 384 c 0,158,159
 375 396 375 396 367.5 410 c 128,-1,160
 360 424 360 424 357 440 c 1,161,-1
 32 359 l 1,162,163
 66 214 66 214 182 118 c 0,164,165
 304 18 304 18 463 18 c 2,166,-1
 921 18 l 2,167,168
 976 18 976 18 1027 27 c 0,169,170
 1078 37 1078 37 1125 57 c 0,171,172
 1156 70 1156 70 1186 87 c 128,-1,173
 1216 104 1216 104 1244 126 c 128,-1,174
 1272 148 1272 148 1298 174 c 0,175,176
 1376 252 1376 252 1415 346 c 128,-1,177
 1454 440 1454 440 1454 551 c 0,178,179
 1454 606 1454 606 1444.5 657.5 c 128,-1,180
 1435 709 1435 709 1415.5 756 c 128,-1,181
 1396 803 1396 803 1366.5 846 c 128,-1,182
 1337 889 1337 889 1298 928 c 0,183,184
 1220 1006 1220 1006 1125.5 1045.5 c 128,-1,185
 1031 1085 1031 1085 921 1085 c 2,186,-1
 376 1085 l 2,187,188
 374 1085 374 1085 372 1085.5 c 128,-1,189
 370 1086 370 1086 368 1086 c 0,190,88
 365 1088 365 1088 362 1091 c 128,-1,89
EndSplineSet
EndChar

StartChar: f
Encoding: 102 102 49
Width: 1593
VWidth: -3
Flags: W
LayerCount: 2
Fore
SplineSet
1044 609 m 2,0,-1
 678 609 l 2,1,2
 653 609 653 609 631 603 c 0,3,4
 620 600 620 600 609 595.5 c 128,-1,5
 598 591 598 591 588 585 c 128,-1,6
 578 579 578 579 568.5 571.5 c 128,-1,7
 559 564 559 564 550 556 c 0,8,9
 523 529 523 529 510 497 c 128,-1,10
 497 465 497 465 497 428 c 0,11,12
 497 413 497 413 499 398 c 0,13,14
 501 387 501 387 504 377 c 1,15,16
 528 370 528 370 554 370 c 2,17,-1
 921 370 l 2,18,19
 996 370 996 370 1049 423 c 0,20,21
 1067 441 1067 441 1078.5 461 c 128,-1,22
 1090 481 1090 481 1096 504 c 0,23,24
 1099 515 1099 515 1100.5 527 c 128,-1,25
 1102 539 1102 539 1102 551 c 0,26,27
 1102 578 1102 578 1095 602 c 1,28,29
 1088 604 1088 604 1080 605 c 0,30,31
 1063 609 1063 609 1044 609 c 2,0,-1
427 423 m 1,32,-1
 426 423 l 1,33,-1
 426 423 l 1,34,-1
 427 423 l 1,32,-1
704 1102 m 2,35,-1
 701 1105 l 2,36,37
 701 1104 701 1104 702 1103 c 0,38,39
 703 1103 l 0,40,41
 703 1103 l 0,42,43
 704 1102 l 2,35,-1
903 1102 m 1,44,-1
 921 1102 l 2,45,46
 1071 1102 1071 1102 1197 1028 c 0,47,48
 1260 991 1260 991 1311 942 c 2,49,-1
 1434 818 l 1,50,-1
 1522 704 l 1,51,52
 1596 577 1596 577 1595 428 c 0,53,54
 1595 200 1595 200 1434 38 c 0,55,56
 1353 -43 1353 -43 1256 -83 c 0,57,58
 1207 -103 1207 -103 1154 -113.5 c 128,-1,59
 1101 -124 1101 -124 1044 -124 c 2,60,-1
 678 -124 l 2,61,62
 578 -124 578 -124 484.5 -89 c 128,-1,63
 391 -54 391 -54 316 12 c 0,64,65
 301 25 301 25 288 38 c 2,66,-1
 164 162 l 2,67,68
 143 183 143 183 124 206 c 0,69,70
 93 244 93 244 69 289 c 0,71,72
 -3 423 -3 423 3.5 574.5 c 128,-1,73
 10 726 10 726 93 853 c 2,74,-1
 735 1833 l 2,75,76
 736 1834 736 1834 738 1834 c 2,77,-1
 1173 1835 l 2,78,79
 1174 1835 1174 1835 1175 1834 c 0,80,81
 1175 1834 l 2,82,-1
 1299 1710 l 2,83,84
 1300 1709 1300 1709 1300 1708 c 0,85,86
 1299.5 1707.5 l 0,87,88
 1299 1707 1299 1707 1299 1706 c 2,89,-1
 903 1102 l 1,44,-1
704 1085 m 2,90,91
 702 1085 702 1085 701 1085 c 128,-1,92
 700 1085 700 1085 699.5 1085.5 c 128,-1,93
 699 1086 699 1086 698.5 1086 c 128,-1,94
 698 1086 698 1086 697.5 1086 c 128,-1,95
 697 1086 697 1086 696.5 1086.5 c 128,-1,96
 696 1087 696 1087 695.5 1087 c 128,-1,97
 695 1087 695 1087 694 1087 c 0,98,99
 693 1088 693 1088 691.5 1089 c 128,-1,100
 690 1090 690 1090 689 1091.5 c 128,-1,101
 688 1093 688 1093 687 1094.5 c 128,-1,102
 686 1096 686 1096 685.5 1097.5 c 128,-1,103
 685 1099 685 1099 684 1101 c 0,104,105
 683 1104 683 1104 683.5 1106.5 c 128,-1,106
 684 1109 684 1109 685 1111.5 c 128,-1,107
 686 1114 686 1114 687 1117 c 2,108,-1
 1146 1817 l 1,109,110
 1109 1817 1109 1817 1066.5 1817 c 128,-1,111
 1024 1817 1024 1817 985 1817 c 128,-1,112
 946 1817 946 1817 907 1817 c 128,-1,113
 868 1817 868 1817 825 1817 c 128,-1,114
 782 1817 782 1817 746 1817 c 1,115,-1
 108 844 l 2,116,117
 27 721 27 721 21 574 c 128,-1,118
 15 427 15 427 85 297 c 0,119,120
 108 254 108 254 137.5 217 c 128,-1,121
 167 180 167 180 204 149 c 0,122,123
 277 86 277 86 367 51 c 0,124,125
 412 34 412 34 459 26 c 128,-1,126
 506 18 506 18 554 18 c 2,127,-1
 921 18 l 2,128,129
 976 18 976 18 1027 27 c 0,130,131
 1078 37 1078 37 1125 57 c 0,132,133
 1156 70 1156 70 1186 87 c 128,-1,134
 1216 104 1216 104 1244 126 c 128,-1,135
 1272 148 1272 148 1298 174 c 0,136,137
 1376 252 1376 252 1415 346 c 128,-1,138
 1454 440 1454 440 1454 551 c 0,139,140
 1454 696 1454 696 1383 819 c 0,141,142
 1365 850 1365 850 1344 877.5 c 128,-1,143
 1323 905 1323 905 1298.5 929 c 128,-1,144
 1274 953 1274 953 1246.5 974 c 128,-1,145
 1219 995 1219 995 1188 1013 c 0,146,147
 1065 1084 1065 1084 921 1085 c 2,148,-1
 704 1085 l 2,90,91
921 750 m 2,149,150
 931 750 931 750 941 749 c 128,-1,151
 951 748 951 748 960 746 c 0,152,153
 965 745 965 745 969.5 744 c 128,-1,154
 974 743 974 743 978.5 741.5 c 128,-1,155
 983 740 983 740 987.5 738.5 c 128,-1,156
 992 737 992 737 997 735 c 0,157,158
 1032 720 1032 720 1061 692 c 0,159,160
 1075 678 1075 678 1086 661.5 c 128,-1,161
 1097 645 1097 645 1104.5 627.5 c 128,-1,162
 1112 610 1112 610 1115.5 591 c 128,-1,163
 1119 572 1119 572 1119 551 c 0,164,165
 1119 537 1119 537 1118 525 c 0,166,167
 1116 512 1116 512 1113 499 c 0,168,169
 1111 493 1111 493 1109 487 c 128,-1,170
 1107 481 1107 481 1104.5 475 c 128,-1,171
 1102 469 1102 469 1099 463.5 c 128,-1,172
 1096 458 1096 458 1093 452 c 0,173,174
 1087 441 1087 441 1079 430.5 c 128,-1,175
 1071 420 1071 420 1061 411 c 0,176,177
 1032 382 1032 382 996.5 367 c 128,-1,178
 961 352 961 352 921 352 c 2,179,-1
 554 352 l 2,180,181
 527 352 527 352 502 358.5 c 128,-1,182
 477 365 477 365 455 378 c 128,-1,183
 433 391 433 391 414 411 c 0,184,185
 402 423 402 423 393 435 c 0,186,187
 384 448 384 448 377 461 c 0,188,189
 375 464 375 464 373.5 467.5 c 128,-1,190
 372 471 372 471 370.5 475 c 128,-1,191
 369 479 369 479 367.5 482.5 c 128,-1,192
 366 486 366 486 365 489 c 0,193,194
 360 504 360 504 358 519 c 128,-1,195
 356 534 356 534 356 551 c 0,196,197
 356 561 356 561 357 571 c 128,-1,198
 358 581 358 581 359.5 590.5 c 128,-1,199
 361 600 361 600 364 609.5 c 128,-1,200
 367 619 367 619 370 628 c 0,201,202
 373 635 373 635 376.5 641.5 c 128,-1,203
 380 648 380 648 384 654.5 c 128,-1,204
 388 661 388 661 393 667.5 c 128,-1,205
 398 674 398 674 403 680 c 128,-1,206
 408 686 408 686 414 692 c 0,207,208
 424 702 424 702 434 709 c 0,209,210
 437 712 437 712 440.5 714.5 c 128,-1,211
 444 717 444 717 448 719.5 c 128,-1,212
 452 722 452 722 455 724 c 128,-1,213
 458 726 458 726 461 727.5 c 128,-1,214
 464 729 464 729 466.5 730.5 c 128,-1,215
 469 732 469 732 472 733 c 128,-1,216
 475 734 475 734 478 735 c 0,217,218
 490 740 490 740 502 744 c 0,219,220
 527 751 527 751 554 750 c 2,221,-1
 921 750 l 2,149,150
EndSplineSet
EndChar

StartChar: g
Encoding: 103 103 50
Width: 1593
VWidth: -3
Flags: W
LayerCount: 2
Fore
SplineSet
3 1468 m 2,0,-1
 3 1832 l 2,1,2
 3 1833 3 1833 4 1834 c 128,-1,3
 5 1835 5 1835 6 1835 c 2,4,-1
 1469 1835 l 2,5,6
 1470 1835 1470 1835 1471 1834 c 0,7,8
 1471 1834 l 2,9,-1
 1595 1710 l 2,10,11
 1596 1709 1596 1709 1596 1708 c 2,12,-1
 1596 1344 l 1,13,-1
 1472 1467 l 2,14,15
 1472 1467 l 2,16,-1
 1472 1467 l 2,17,18
 1472 1466.5 l 0,19,20
 1472 1466 1472 1466 1471 1466 c 2,21,-1
 1595 1342 l 1,22,-1
 863 -121 l 2,23,24
 863 -122 863 -122 862 -123 c 2,25,-1
 861 -123 l 2,26,27
 860 -123 860 -123 859 -124 c 2,28,-1
 406 -124 l 2,29,30
 405 -124 405 -124 404 -123 c 2,31,-1
 281 0 l 2,32,33
 280 0 280 0 280 1 c 0,34,-1
 280 1 l 0,35,36
 279.5 2 l 0,37,-1
 279 3 l 0,38,39
 279 4 279 4 279 5 c 2,40,-1
 948 1342 l 1,41,-1
 130 1342 l 2,42,43
 129 1342 129 1342 128 1342 c 2,44,-1
 4 1466 l 2,45,46
 4 1466 l 0,47,48
 3 1467 3 1467 3 1468 c 2,0,-1
1007 1463 m 2,49,50
 1007 1464 l 0,51,52
 1006 1465 l 2,53,-1
 1007 1463 l 2,49,50
21 1483 m 1,54,-1
 1004 1483 l 2,55,56
 1006 1483 1006 1483 1008 1482.5 c 128,-1,57
 1010 1482 1010 1482 1012 1481 c 0,58,59
 1013 1481 1013 1481 1014 1480.5 c 128,-1,60
 1015 1480 1015 1480 1016.5 1479 c 128,-1,61
 1018 1478 1018 1478 1019 1477 c 0,62,63
 1022 1474 1022 1474 1024 1469 c 0,64,65
 1025 1465 1025 1465 1025 1461 c 128,-1,66
 1025 1457 1025 1457 1023 1453 c 2,67,-1
 305 18 l 1,68,-1
 728 18 l 1,69,-1
 1454 1471 l 1,70,-1
 1454 1817 l 1,71,-1
 21 1818 l 1,72,-1
 21 1483 l 1,54,-1
EndSplineSet
EndChar

StartChar: h
Encoding: 104 104 51
Width: 1593
VWidth: -3
Flags: W
LayerCount: 2
Fore
SplineSet
646 1835 m 2,0,-1
 830 1835 l 2,1,2
 932 1835 932 1835 1026 1799 c 0,3,4
 1050 1790 1050 1790 1072.5 1779 c 128,-1,5
 1095 1768 1095 1768 1116 1755 c 128,-1,6
 1137 1742 1137 1742 1157 1727.5 c 128,-1,7
 1177 1713 1177 1713 1196 1696 c 0,8,9
 1208 1685 1208 1685 1220 1673 c 2,10,-1
 1343 1550 l 2,11,12
 1403 1490 1403 1490 1442 1414 c 0,13,14
 1513 1278 1513 1278 1503 1126 c 0,15,16
 1493 973 1493 973 1407 847 c 0,17,18
 1407 846 1407 846 1406 846 c 1,19,-1
 1437 816 l 2,20,21
 1542 711 1542 711 1579 563 c 0,22,23
 1600 480 1600 480 1596 398 c 0,24,25
 1594 357 1594 357 1585.5 316.5 c 128,-1,26
 1577 276 1577 276 1562 236 c 0,27,28
 1502 74 1502 74 1360 -25 c 128,-1,29
 1218 -124 1218 -124 1045 -124 c 2,30,-1
 679 -124 l 2,31,32
 506 -124 506 -124 364 -25 c 0,33,34
 322 4 322 4 287 39 c 2,35,-1
 163 163 l 2,36,37
 139 187 139 187 119 213 c 0,38,39
 69 278 69 278 38 360 c 0,40,41
 -22 521 -22 521 21 687 c 0,42,43
 63 853 63 853 192 967 c 0,44,45
 192.5 967.5 l 0,46,47
 193 968 193 968 193 969 c 128,-1,48
 193 970 193 970 193 971 c 0,49,50
 106 1097 106 1097 96 1249 c 0,51,52
 91 1325 91 1325 106.5 1397.5 c 128,-1,53
 122 1470 122 1470 157 1538 c 0,54,55
 193 1606 193 1606 243.5 1660.5 c 128,-1,56
 294 1715 294 1715 360 1755 c 128,-1,57
 426 1795 426 1795 497.5 1815 c 128,-1,58
 569 1835 569 1835 646 1835 c 2,0,-1
646 1102 m 2,59,-1
 830 1102 l 2,60,61
 905 1102 905 1102 958 1155.5 c 128,-1,62
 1011 1209 1011 1209 1011 1284 c 0,63,64
 1011 1311 1011 1311 1004 1335 c 1,65,66
 1002 1335 1002 1335 1001 1336 c 0,67,68
 978 1342 978 1342 953 1342 c 2,69,-1
 770 1342 l 2,70,71
 695 1342 695 1342 642 1288.5 c 128,-1,72
 589 1235 589 1235 589 1160 c 0,73,74
 589 1133 589 1133 596 1109 c 1,75,76
 603 1107 603 1107 610 1106 c 0,77,78
 627 1102 627 1102 646 1102 c 2,59,-1
555 370 m 2,79,-1
 921 370 l 2,80,81
 939 370 939 370 957 373.5 c 128,-1,82
 975 377 975 377 992 384 c 0,83,84
 1026 398 1026 398 1050 423 c 0,85,86
 1062 435 1062 435 1071.5 449.5 c 128,-1,87
 1081 464 1081 464 1088 481 c 128,-1,88
 1095 498 1095 498 1099 515 c 0,89,90
 1101 524 1101 524 1102 533 c 128,-1,91
 1103 542 1103 542 1103 551 c 0,92,93
 1103 578 1103 578 1096 602 c 1,94,95
 1072 609 1072 609 1045 609 c 2,96,-1
 679 609 l 2,97,98
 654 609 654 609 631 603 c 128,-1,99
 608 597 608 597 588 585 c 128,-1,100
 568 573 568 573 550 556 c 0,101,102
 523 529 523 529 510 497 c 0,103,104
 503 481 503 481 500 463.5 c 128,-1,105
 497 446 497 446 497 427 c 0,106,107
 497 423 497 423 497 419.5 c 128,-1,108
 497 416 497 416 497.5 412.5 c 128,-1,109
 498 409 498 409 498.5 405.5 c 128,-1,110
 499 402 499 402 499 398 c 0,111,112
 501 387 501 387 504 377 c 1,113,114
 515 374 515 374 526 372 c 0,115,116
 533 371 533 371 540 370.5 c 128,-1,117
 547 370 547 370 555 370 c 2,79,-1
434 416 m 2,118,-1
 420 430 l 2,119,120
 423 426 423 426 426.5 422.5 c 128,-1,121
 430 419 430 419 434 416 c 2,118,-1
555 352 m 2,122,123
 551 352 551 352 547 352.5 c 128,-1,124
 543 353 543 353 539 353 c 0,125,126
 531 354 531 354 523 355 c 128,-1,127
 515 356 515 356 507.5 357.5 c 128,-1,128
 500 359 500 359 493 362 c 0,129,130
 491 363 491 363 488.5 363.5 c 128,-1,131
 486 364 486 364 483.5 365 c 128,-1,132
 481 366 481 366 479 367 c 128,-1,133
 477 368 477 368 475 368.5 c 128,-1,134
 473 369 473 369 471.5 370 c 128,-1,135
 470 371 470 371 468 371.5 c 128,-1,136
 466 372 466 372 465 373 c 0,137,138
 451 380 451 380 438 390 c 0,139,140
 434 393 434 393 430 396.5 c 128,-1,141
 426 400 426 400 422 403.5 c 128,-1,142
 418 407 418 407 414 410.5 c 128,-1,143
 410 414 410 414 406.5 418 c 128,-1,144
 403 422 403 422 399.5 426 c 128,-1,145
 396 430 396 430 393 435 c 0,146,147
 391 438 391 438 389 441 c 128,-1,148
 387 444 387 444 385 448 c 0,149,150
 381 455 381 455 377 461 c 0,151,152
 370 475 370 475 365 489 c 0,153,154
 360 504 360 504 358 519 c 0,155,156
 358 521 358 521 357.5 523 c 128,-1,157
 357 525 357 525 357 527 c 0,158,159
 357 531 357 531 356.5 535 c 128,-1,160
 356 539 356 539 356 543 c 128,-1,161
 356 547 356 547 356 551 c 0,162,163
 356 571 356 571 360 591 c 0,164,165
 361 594 361 594 361.5 597 c 128,-1,166
 362 600 362 600 362.5 603 c 128,-1,167
 363 606 363 606 364 609 c 128,-1,168
 365 612 365 612 366 615.5 c 128,-1,169
 367 619 367 619 368 622 c 128,-1,170
 369 625 369 625 371 627 c 0,171,172
 375 636 375 636 379 644.5 c 128,-1,173
 383 653 383 653 388.5 661 c 128,-1,174
 394 669 394 669 400.5 677 c 128,-1,175
 407 685 407 685 414 692 c 0,176,177
 433 711 433 711 456 724 c 0,178,179
 463 728 463 728 470.5 732 c 128,-1,180
 478 736 478 736 486.5 738.5 c 128,-1,181
 495 741 495 741 503 743.5 c 128,-1,182
 511 746 511 746 519.5 747.5 c 128,-1,183
 528 749 528 749 537 749.5 c 128,-1,184
 546 750 546 750 555 750 c 2,185,-1
 921 750 l 2,186,187
 962 750 962 750 997.5 735.5 c 128,-1,188
 1033 721 1033 721 1062 692 c 128,-1,189
 1091 663 1091 663 1105.5 627.5 c 128,-1,190
 1120 592 1120 592 1120 551 c 0,191,192
 1120 541 1120 541 1119 531 c 128,-1,193
 1118 521 1118 521 1116 511.5 c 128,-1,194
 1114 502 1114 502 1111 492.5 c 128,-1,195
 1108 483 1108 483 1104 474 c 128,-1,196
 1100 465 1100 465 1095.5 456.5 c 128,-1,197
 1091 448 1091 448 1086 440 c 0,198,199
 1075 424 1075 424 1062 410 c 0,200,201
 1035 383 1035 383 999 368 c 0,202,203
 990 364 990 364 980 361 c 128,-1,204
 970 358 970 358 961 356 c 0,205,206
 955 355 955 355 948 354 c 128,-1,207
 941 353 941 353 934.5 352.5 c 128,-1,208
 928 352 928 352 921 352 c 2,209,-1
 555 352 l 2,122,123
646 1085 m 2,210,211
 636 1085 636 1085 626.5 1086 c 128,-1,212
 617 1087 617 1087 607 1089 c 0,213,214
 588 1093 588 1093 570 1100 c 0,215,216
 561 1104 561 1104 552.5 1108 c 128,-1,217
 544 1112 544 1112 536 1118 c 0,218,219
 520 1129 520 1129 506 1143 c 0,220,221
 477 1172 477 1172 462.5 1207.5 c 128,-1,222
 448 1243 448 1243 448 1284 c 128,-1,223
 448 1325 448 1325 462.5 1360.5 c 128,-1,224
 477 1396 477 1396 506 1424.5 c 128,-1,225
 535 1453 535 1453 570.5 1468 c 128,-1,226
 606 1483 606 1483 646 1483 c 2,227,-1
 830 1483 l 2,228,229
 844 1483 844 1483 856.5 1481.5 c 128,-1,230
 869 1480 869 1480 882 1476 c 0,231,232
 890 1474 890 1474 898 1471 c 128,-1,233
 906 1468 906 1468 913.5 1464.5 c 128,-1,234
 921 1461 921 1461 929 1457 c 0,235,236
 940 1451 940 1451 950 1442 c 0,237,238
 953 1439 953 1439 957 1436.5 c 128,-1,239
 961 1434 961 1434 964 1431 c 128,-1,240
 967 1428 967 1428 970 1425 c 0,241,242
 984 1411 984 1411 995.5 1394.5 c 128,-1,243
 1007 1378 1007 1378 1014 1360.5 c 128,-1,244
 1021 1343 1021 1343 1024.5 1323.5 c 128,-1,245
 1028 1304 1028 1304 1029 1284 c 0,246,247
 1029 1257 1029 1257 1022 1232 c 128,-1,248
 1015 1207 1015 1207 1002 1184.5 c 128,-1,249
 989 1162 989 1162 970 1143 c 0,250,251
 941 1114 941 1114 905.5 1099.5 c 128,-1,252
 870 1085 870 1085 830 1085 c 2,253,-1
 646 1085 l 2,210,211
1272 954 m 0,254,255
 1270 956 1270 956 1268.5 957.5 c 128,-1,256
 1267 959 1267 959 1266.5 961 c 128,-1,257
 1266 963 1266 963 1266 965 c 2,258,-1
 1265 965 l 1,259,-1
 1265 966 l 2,260,261
 1265 968 1265 968 1265 970 c 128,-1,262
 1265 972 1265 972 1265.5 973.5 c 128,-1,263
 1266 975 1266 975 1266.5 976.5 c 128,-1,264
 1267 978 1267 978 1268 980 c 2,265,-1
 1269 980 l 1,266,-1
 1269 981 l 2,267,268
 1353 1103 1353 1103 1362 1250 c 0,269,270
 1371 1398 1371 1398 1303 1530 c 0,271,272
 1257 1618 1257 1618 1184 1683 c 0,273,274
 1175 1691 1175 1691 1165.5 1698.5 c 128,-1,275
 1156 1706 1156 1706 1147 1713 c 0,276,277
 1145 1714 1145 1714 1143 1716 c 128,-1,278
 1141 1718 1141 1718 1139 1719 c 128,-1,279
 1137 1720 1137 1720 1135 1721.5 c 128,-1,280
 1133 1723 1133 1723 1131 1724.5 c 128,-1,281
 1129 1726 1129 1726 1127 1727.5 c 128,-1,282
 1125 1729 1125 1729 1123 1730 c 128,-1,283
 1121 1731 1121 1731 1119 1732.5 c 128,-1,284
 1117 1734 1117 1734 1115 1735 c 128,-1,285
 1113 1736 1113 1736 1111 1737.5 c 128,-1,286
 1109 1739 1109 1739 1107 1740 c 0,287,288
 1086 1752 1086 1752 1064 1763 c 0,289,290
 1053 1768 1053 1768 1042 1773 c 128,-1,291
 1031 1778 1031 1778 1020 1783 c 0,292,293
 989 1795 989 1795 958 1802.5 c 128,-1,294
 927 1810 927 1810 895 1814 c 128,-1,295
 863 1818 863 1818 830 1818 c 2,296,-1
 646 1818 l 2,297,298
 609 1818 609 1818 573 1813 c 128,-1,299
 537 1808 537 1808 502.5 1798 c 128,-1,300
 468 1788 468 1788 434.5 1773.5 c 128,-1,301
 401 1759 401 1759 369 1740 c 0,302,303
 305 1701 305 1701 256 1649 c 0,304,305
 246 1639 246 1639 237 1627.5 c 128,-1,306
 228 1616 228 1616 219.5 1604.5 c 128,-1,307
 211 1593 211 1593 203 1581 c 128,-1,308
 195 1569 195 1569 187.5 1556 c 128,-1,309
 180 1543 180 1543 173 1530 c 0,310,311
 139 1464 139 1464 124 1394 c 128,-1,312
 109 1324 109 1324 114 1250 c 0,313,314
 117 1201 117 1201 128.5 1154.5 c 128,-1,315
 140 1108 140 1108 159.5 1064.5 c 128,-1,316
 179 1021 179 1021 208 980 c 0,317,318
 212 974 212 974 211 967 c 0,319,320
 211 965 211 965 210.5 963 c 128,-1,321
 210 961 210 961 209 960 c 0,322,323
 209 959 209 959 208 958 c 128,-1,324
 207 957 207 957 206.5 956.5 c 128,-1,325
 206 956 206 956 205.5 955.5 c 128,-1,326
 205 955 205 955 204.5 954.5 c 128,-1,327
 204 954 204 954 204 953 c 0,328,329
 79 844 79 844 38 683 c 128,-1,330
 -3 522 -3 522 54 366 c 0,331,332
 83 287 83 287 132 224 c 128,-1,333
 181 161 181 161 250 113 c 0,334,335
 387 18 387 18 555 18 c 2,336,-1
 921 18 l 2,337,338
 1005 18 1005 18 1081 41.5 c 128,-1,339
 1157 65 1157 65 1226 113 c 0,340,341
 1260 137 1260 137 1289.5 165 c 128,-1,342
 1319 193 1319 193 1343.5 224.5 c 128,-1,343
 1368 256 1368 256 1387.5 291 c 128,-1,344
 1407 326 1407 326 1422 366 c 0,345,346
 1424 373 1424 373 1426.5 379 c 128,-1,347
 1429 385 1429 385 1431 391.5 c 128,-1,348
 1433 398 1433 398 1434.5 404.5 c 128,-1,349
 1436 411 1436 411 1438 418 c 128,-1,350
 1440 425 1440 425 1441.5 431.5 c 128,-1,351
 1443 438 1443 438 1444 444 c 0,352,353
 1452 483 1452 483 1455 523 c 0,354,355
 1456 549 1456 549 1454.5 575.5 c 128,-1,356
 1453 602 1453 602 1449 629 c 128,-1,357
 1445 656 1445 656 1438 683 c 0,358,359
 1398 845 1398 845 1272 954 c 0,254,255
EndSplineSet
EndChar

StartChar: i
Encoding: 105 105 52
Width: 1593
VWidth: -3
Flags: W
LayerCount: 2
Fore
SplineSet
554 1102 m 2,0,-1
 920 1102 l 2,1,2
 995 1102 995 1102 1048.5 1155.5 c 128,-1,3
 1102 1209 1102 1209 1102 1284 c 0,4,5
 1102 1295 1102 1295 1101 1305 c 128,-1,6
 1100 1315 1100 1315 1097 1325 c 0,7,8
 1096 1330 1096 1330 1095 1335 c 1,9,10
 1071 1342 1071 1342 1044 1342 c 2,11,-1
 678 1342 l 2,12,13
 641 1342 641 1342 608 1328 c 0,14,15
 592 1321 592 1321 577.5 1311.5 c 128,-1,16
 563 1302 563 1302 549 1288 c 0,17,18
 542 1281 542 1281 536.5 1274.5 c 128,-1,19
 531 1268 531 1268 526 1260.5 c 128,-1,20
 521 1253 521 1253 517 1245.5 c 128,-1,21
 513 1238 513 1238 510 1230 c 0,22,23
 503 1214 503 1214 499.5 1196.5 c 128,-1,24
 496 1179 496 1179 496 1160 c 0,25,26
 496 1133 496 1133 503 1109 c 1,27,28
 527 1102 527 1102 554 1102 c 2,0,-1
860 -124 m 1,29,-1
 426 -124 l 2,30,31
 425 -124 425 -124 424 -123 c 2,32,-1
 301 0 l 2,33,34
 300 0 300 0 300 1 c 0,35,36
 300 1 l 0,37,38
 299.5 2 l 0,39,-1
 299 3 l 0,40,41
 299 4 l 0,42,-1
 299 5 l 2,43,-1
 695 609 l 1,44,-1
 678 609 l 2,45,46
 450 609 450 609 288 770 c 2,47,-1
 165 894 l 1,48,-1
 164 894 l 2,49,50
 3 1055 3 1055 3 1284 c 0,51,52
 3 1434 3 1434 77 1560.5 c 128,-1,53
 151 1687 151 1687 277 1761 c 0,54,55
 309 1779 309 1779 342 1793 c 128,-1,56
 375 1807 375 1807 410 1817 c 0,57,58
 479 1835 479 1835 554 1835 c 2,59,-1
 920 1835 l 2,60,61
 996 1835 996 1835 1067 1816 c 0,62,63
 1102 1806 1102 1806 1136 1791.5 c 128,-1,64
 1170 1777 1170 1777 1203 1757 c 0,65,66
 1246 1731 1246 1731 1283 1699 c 0,67,68
 1297 1687 1297 1687 1311 1674 c 2,69,-1
 1434 1550 l 2,70,71
 1455 1529 1455 1529 1474 1505 c 0,72,73
 1505 1467 1505 1467 1529 1422 c 0,74,75
 1601 1288 1601 1288 1595 1137 c 0,76,77
 1592 1061 1592 1061 1569 991 c 0,78,79
 1565 977 1565 977 1559.5 963.5 c 128,-1,80
 1554 950 1554 950 1548 936.5 c 128,-1,81
 1542 923 1542 923 1535.5 910 c 128,-1,82
 1529 897 1529 897 1521 884 c 128,-1,83
 1513 871 1513 871 1505 858 c 2,84,-1
 863 -122 l 2,85,86
 863 -123 863 -123 862 -123 c 2,87,-1
 860 -124 l 1,29,-1
426 1155 m 1,88,-1
 426 1156 l 1,89,-1
 426 1155 l 1,90,-1
 426 1155 l 1,88,-1
774 730 m 2,91,92
 773 730 l 0,93,94
 773 731 773 731 773 732 c 0,95,96
 772 732 l 0,97,98
 771.5 732.5 l 0,99,100
 771 733 771 733 770 733 c 2,101,-1
 774 730 l 2,91,92
729 18 m 1,102,-1
 1367 991 l 2,103,104
 1375 1003 1375 1003 1382 1016 c 128,-1,105
 1389 1029 1389 1029 1396 1041.5 c 128,-1,106
 1403 1054 1403 1054 1408 1067 c 0,107,108
 1411 1074 1411 1074 1414 1080.5 c 128,-1,109
 1417 1087 1417 1087 1419 1094 c 0,110,111
 1424 1107 1424 1107 1429 1120 c 0,112,113
 1440 1154 1440 1154 1446 1189 c 128,-1,114
 1452 1224 1452 1224 1454 1261 c 0,115,116
 1457 1335 1457 1335 1441 1404 c 128,-1,117
 1425 1473 1425 1473 1390 1538 c 0,118,119
 1367 1581 1367 1581 1337 1618 c 0,120,121
 1322 1637 1322 1637 1306 1653.5 c 128,-1,122
 1290 1670 1290 1670 1272 1686 c 0,123,124
 1236 1717 1236 1717 1194 1742 c 0,125,126
 1162 1761 1162 1761 1129 1775 c 0,127,128
 1113 1782 1113 1782 1096 1788 c 128,-1,129
 1079 1794 1079 1794 1062 1799 c 0,130,131
 994 1818 994 1818 920 1818 c 2,132,-1
 554 1818 l 2,133,134
 530 1818 530 1818 506.5 1816 c 128,-1,135
 483 1814 483 1814 460 1810 c 128,-1,136
 437 1806 437 1806 415 1800 c 0,137,138
 382 1791 382 1791 349 1777 c 0,139,140
 333 1770 333 1770 317.5 1762.5 c 128,-1,141
 302 1755 302 1755 286 1746 c 0,142,143
 163 1674 163 1674 92 1552 c 0,144,145
 56 1490 56 1490 38.5 1423 c 128,-1,146
 21 1356 21 1356 21 1284 c 0,147,148
 21 1173 21 1173 59.5 1079 c 128,-1,149
 98 985 98 985 176.5 906.5 c 128,-1,150
 255 828 255 828 349 789 c 128,-1,151
 443 750 443 750 554 750 c 2,152,-1
 770 750 l 2,153,154
 771 750 771 750 771.5 750 c 128,-1,155
 772 750 772 750 773 750 c 128,-1,156
 774 750 774 750 774.5 750 c 128,-1,157
 775 750 775 750 775 749 c 0,158,-1
 776 749 l 0,159,160
 777 749 777 749 777.5 749 c 0,161,-1
 778 749 l 0,162,-1
 778.5 748.5 l 0,163,164
 779 748 779 748 779.5 748 c 0,165,-1
 780 748 l 0,166,167
 784 746 784 746 786.5 742 c 128,-1,168
 789 738 789 738 790 734 c 128,-1,169
 791 730 791 730 791 726 c 0,170,171
 790 722 790 722 788 718 c 2,172,-1
 329 18 l 1,173,-1
 729 18 l 1,102,-1
554 1085 m 2,174,175
 513 1085 513 1085 477.5 1099.5 c 128,-1,176
 442 1114 442 1114 413 1143 c 128,-1,177
 384 1172 384 1172 369.5 1207.5 c 128,-1,178
 355 1243 355 1243 355 1284 c 0,179,180
 355 1304 355 1304 359 1323 c 0,181,182
 361 1333 361 1333 363.5 1342 c 128,-1,183
 366 1351 366 1351 369.5 1360 c 128,-1,184
 373 1369 373 1369 378 1377.5 c 128,-1,185
 383 1386 383 1386 388 1394 c 0,186,187
 389 1396 389 1396 390 1397.5 c 128,-1,188
 391 1399 391 1399 392.5 1400.5 c 128,-1,189
 394 1402 394 1402 395 1403.5 c 128,-1,190
 396 1405 396 1405 397.5 1406.5 c 128,-1,191
 399 1408 399 1408 400 1410 c 0,192,193
 406 1418 406 1418 413 1425 c 0,194,195
 427 1439 427 1439 444 1450 c 0,196,197
 460 1461 460 1461 478 1468 c 0,198,199
 513 1483 513 1483 554 1483 c 2,200,-1
 920 1483 l 2,201,202
 961 1483 961 1483 997 1468 c 0,203,204
 1006 1464 1006 1464 1014.5 1459.5 c 128,-1,205
 1023 1455 1023 1455 1031 1449.5 c 128,-1,206
 1039 1444 1039 1444 1046.5 1438 c 128,-1,207
 1054 1432 1054 1432 1061 1425 c 0,208,209
 1069 1417 1069 1417 1076 1408 c 128,-1,210
 1083 1399 1083 1399 1089 1389.5 c 128,-1,211
 1095 1380 1095 1380 1100 1370 c 0,212,213
 1102 1365 1102 1365 1105 1360 c 0,214,215
 1106 1358 1106 1358 1106.5 1356.5 c 128,-1,216
 1107 1355 1107 1355 1107.5 1353.5 c 128,-1,217
 1108 1352 1108 1352 1108 1350 c 0,218,219
 1110 1345 1110 1345 1112 1339 c 0,220,221
 1112 1338 1112 1338 1112.5 1337 c 128,-1,222
 1113 1336 1113 1336 1113.5 1334.5 c 128,-1,223
 1114 1333 1114 1333 1114 1331.5 c 128,-1,224
 1114 1330 1114 1330 1114 1329 c 0,225,226
 1115 1324 1115 1324 1116 1318 c 128,-1,227
 1117 1312 1117 1312 1118 1307 c 0,228,229
 1119 1296 1119 1296 1119 1284 c 0,230,231
 1119 1257 1119 1257 1112.5 1232 c 128,-1,232
 1106 1207 1106 1207 1093 1184.5 c 128,-1,233
 1080 1162 1080 1162 1061 1143 c 0,234,235
 1032 1114 1032 1114 996.5 1099.5 c 128,-1,236
 961 1085 961 1085 920 1085 c 2,237,-1
 554 1085 l 2,174,175
EndSplineSet
EndChar

StartChar: q
Encoding: 113 113 60
Width: 1593
VWidth: -3
Flags: W
LayerCount: 2
Fore
SplineSet
1102 1 m 2,0,-1
 1102 1 l 2,1,2
 1102 1.5 l 0,3,-1
 1102 2 l 2,4,-1
 1071 105 l 1,5,-1
 567 105 l 2,6,7
 566 105 566 105 565 105 c 0,8,9
 564 104 564 104 564 103 c 2,10,-1
 497 -120 l 2,11,12
 497 -120.5 l 0,13,14
 497 -121 497 -121 497 -122 c 0,15,-1
 496 -122 l 2,16,-1
 495 -123 l 2,17,18
 494.5 -123.5 l 0,19,20
 494 -124 494 -124 493 -124 c 2,21,-1
 370 0 l 2,22,-1
 369 0 l 2,23,-1
 493 -124 l 1,24,-1
 131 -124 l 2,25,26
 130 -124 130 -124 128 -123 c 2,27,-1
 5 1 l 2,28,29
 4 1 l 0,30,31
 3 2 3 2 4 4 c 2,32,-1
 552 1832 l 2,33,34
 552 1833 552 1833 553 1833 c 2,35,-1
 555 1834 l 2,36,37
 556 1835 l 2,38,-1
 918 1835 l 2,39,40
 919 1835 919 1835 921 1834 c 2,41,-1
 1044 1710 l 2,42,43
 1045 1709 l 2,44,-1
 1595 -120 l 2,45,46
 1595 -121 1595 -121 1595 -122 c 128,-1,47
 1595 -123 1595 -123 1594 -123.5 c 128,-1,48
 1593 -124 1593 -124 1592 -124 c 2,49,-1
 1229 -124 l 1,50,-1
 1105 0 l 1,51,52
 1104 0 1104 0 1103 1 c 0,53,54
 1102 1 l 2,0,-1
542 553 m 1,55,-1
 539 556 l 2,56,57
 539 555 539 555 540 554 c 0,58,59
 540 554 l 0,60,61
 541 553 541 553 542 553 c 2,62,-1
 542 553 l 1,55,-1
699 553 m 1,63,-1
 932 553 l 2,64,65
 933 553 933 553 933.5 553 c 128,-1,66
 934 553 934 553 934.5 553.5 c 128,-1,67
 935 554 935 554 935.5 555 c 0,68,-1
 936 556 l 2,69,-1
 935 557 l 1,70,-1
 818 949 l 1,71,-1
 699 553 l 1,63,-1
741 1206 m 1,72,-1
 740 1207 l 2,73,74
 740 1208 l 0,75,76
 740 1208 l 0,77,78
 739 1209 739 1209 738 1209 c 2,79,-1
 741 1206 l 1,72,-1
741 1204 m 1,80,-1
 736 1209 l 2,81,82
 736 1208.5 l 0,83,84
 736 1208 736 1208 735.5 1208 c 0,85,-1
 735 1208 l 0,86,-1
 735 1207.5 l 0,87,-1
 735 1207 l 0,88,-1
 735 1207 l 2,89,-1
 743 1198 l 1,90,-1
 741 1204 l 1,80,-1
1035 226 m 1,91,-1
 1034 227 l 2,92,-1
 1034 228 l 0,93,94
 1034 228 l 0,95,96
 1033 228 l 0,97,98
 1032.5 228.5 l 0,99,-1
 1032 229 l 2,100,-1
 1035 226 l 1,91,-1
1116 18 m 1,101,-1
 1449 18 l 1,102,-1
 908 1818 l 1,103,-1
 566 1818 l 1,104,-1
 26 18 l 1,105,-1
 359 18 l 1,106,-1
 424 232 l 2,107,108
 426 238 426 238 431 242 c 0,109,110
 438 246 438 246 444 246 c 2,111,-1
 1032 246 l 2,112,113
 1034 246 1034 246 1035 246 c 128,-1,114
 1036 246 1036 246 1038 245 c 0,115,116
 1041 244 1041 244 1044 242 c 128,-1,117
 1047 240 1047 240 1048 238 c 0,118,119
 1049 237 1049 237 1049.5 236 c 128,-1,120
 1050 235 1050 235 1050.5 234 c 128,-1,121
 1051 233 1051 233 1051 232 c 2,122,-1
 1116 18 l 1,101,-1
953 561 m 1,123,-1
 953 559 l 1,124,-1
 953 558 l 2,125,126
 953 556 953 556 953 553.5 c 128,-1,127
 953 551 953 551 952 549 c 0,128,129
 951 545 951 545 948 542 c 128,-1,130
 945 539 945 539 941 537 c 0,131,132
 939 536 939 536 937 535.5 c 128,-1,133
 935 535 935 535 933 535 c 2,134,-1
 542 535 l 1,135,-1
 539 536 l 1,136,-1
 538 536 l 2,137,138
 534 537 534 537 530.5 539.5 c 128,-1,139
 527 542 527 542 525 546 c 128,-1,140
 523 550 523 550 522 553 c 0,141,142
 522 555 522 555 522 557.5 c 128,-1,143
 522 560 522 560 523 562 c 2,144,-1
 718 1212 l 2,145,146
 718 1213 718 1213 719 1214 c 0,147,148
 719 1215 719 1215 719.5 1215.5 c 128,-1,149
 720 1216 720 1216 720 1217 c 0,150,151
 721 1219 721 1219 722 1220 c 128,-1,152
 723 1221 723 1221 725 1222 c 0,153,154
 726 1223 726 1223 728 1224 c 0,155,156
 729 1224 729 1224 729 1224.5 c 128,-1,157
 729 1225 729 1225 730 1225 c 2,158,-1
 730 1225 l 1,159,-1
 731 1225 l 2,160,161
 736 1227 736 1227 741 1226 c 0,162,163
 744 1225 744 1225 746.5 1224 c 128,-1,164
 749 1223 749 1223 751 1221 c 0,165,166
 755 1217 755 1217 757 1212 c 2,167,-1
 953 561 l 1,123,-1
EndSplineSet
EndChar

StartChar: r
Encoding: 114 114 61
Width: 1593
VWidth: -3
Flags: W
LayerCount: 2
Fore
SplineSet
921 370 m 2,0,1
 959 370 959 370 990.5 383 c 128,-1,2
 1022 396 1022 396 1049 423 c 0,3,4
 1056 430 1056 430 1061.5 437 c 128,-1,5
 1067 444 1067 444 1072 451 c 128,-1,6
 1077 458 1077 458 1081 466 c 128,-1,7
 1085 474 1085 474 1089 482 c 0,8,9
 1102 514 1102 514 1102 551 c 0,10,11
 1102 578 1102 578 1095 602 c 1,12,13
 1071 609 1071 609 1044 609 c 2,14,-1
 500 609 l 2,15,16
 499 609 499 609 498 608 c 128,-1,17
 497 607 497 607 497 606 c 2,18,-1
 497 370 l 1,19,-1
 921 370 l 2,0,1
921 1102 m 2,20,21
 996 1102 996 1102 1049 1155.5 c 128,-1,22
 1102 1209 1102 1209 1102 1284 c 0,23,24
 1102 1311 1102 1311 1095 1335 c 1,25,26
 1088 1337 1088 1337 1081 1338 c 0,27,28
 1064 1341 1064 1341 1044 1342 c 2,29,-1
 500 1342 l 2,30,31
 499 1342 499 1342 498.5 1341.5 c 0,32,33
 498 1341 l 0,34,35
 497.5 1340 l 0,36,-1
 497 1339 l 2,37,-1
 373 1463 l 2,38,39
 373 1462 l 2,40,-1
 497 1338 l 1,41,-1
 497 1102 l 1,42,-1
 921 1102 l 2,20,21
6 1835 m 2,43,-1
 921 1835 l 2,44,45
 1002 1835 1002 1835 1077 1813 c 128,-1,46
 1152 1791 1152 1791 1220 1746 c 0,47,48
 1243 1731 1243 1731 1264 1715 c 128,-1,49
 1285 1699 1285 1699 1304 1681 c 0,50,51
 1308 1677 1308 1677 1312 1673 c 2,52,-1
 1436 1549 l 2,53,54
 1450 1535 1450 1535 1463 1519 c 0,55,56
 1480 1499 1480 1499 1495 1478 c 0,57,58
 1505 1464 1505 1464 1514.5 1448.5 c 128,-1,59
 1524 1433 1524 1433 1532 1417.5 c 128,-1,60
 1540 1402 1540 1402 1548 1385 c 0,61,62
 1614 1237 1614 1237 1589.5 1077 c 128,-1,63
 1565 917 1565 917 1458 796 c 0,64,65
 1457.5 795.5 l 0,66,-1
 1457 795 l 0,67,68
 1457 794 1457 794 1457 793 c 2,69,-1
 1334 917 l 2,70,71
 1334 916 1334 916 1334 915 c 2,72,-1
 1458 792 l 1,73,74
 1494 752 1494 752 1520.5 707 c 128,-1,75
 1547 662 1547 662 1564 613 c 128,-1,76
 1581 564 1581 564 1589 510 c 0,77,78
 1613 350 1613 350 1548 202 c 0,79,80
 1481 53 1481 53 1344 -35.5 c 128,-1,81
 1207 -124 1207 -124 1044 -124 c 2,82,-1
 130 -124 l 2,83,84
 129 -124 129 -124 128 -123 c 2,85,-1
 4 1 l 2,86,87
 4 1 l 0,88,89
 3 2 3 2 3 3 c 2,90,-1
 3 1832 l 2,91,92
 3 1833 3 1833 4 1834 c 128,-1,93
 5 1835 5 1835 6 1835 c 2,43,-1
376 370 m 2,94,-1
 373 373 l 1,95,96
 373 372 373 372 374 371 c 0,97,98
 375 370 l 0,99,-1
 376 370 l 2,94,-1
1049 679 m 1,100,-1
 1049 679 l 1,101,-1
 1049 680 l 1,102,-1
 1049 679 l 1,100,-1
376 1102 m 2,103,-1
 373 1106 l 1,104,105
 373 1105 373 1105 374 1103 c 0,106,107
 374.5 1103 l 0,108,109
 375 1103 375 1103 375 1102.5 c 128,-1,110
 375 1102 375 1102 375.5 1102 c 0,111,-1
 376 1102 l 2,103,-1
21 1818 m 1,112,-1
 21 18 l 1,113,-1
 921 18 l 2,114,115
 1000 18 1000 18 1072.5 39 c 128,-1,116
 1145 60 1145 60 1211 103 c 128,-1,117
 1277 146 1277 146 1326.5 203.5 c 128,-1,118
 1376 261 1376 261 1408 333 c 0,119,120
 1472 476 1472 476 1448 631 c 0,121,122
 1440 683 1440 683 1424 731 c 0,123,124
 1416 755 1416 755 1405 777.5 c 128,-1,125
 1394 800 1394 800 1381 821 c 0,126,127
 1355 864 1355 864 1321 904 c 0,128,129
 1318 908 1318 908 1317 912 c 0,130,131
 1316 917 1316 917 1316 922 c 0,132,133
 1317 925 1317 925 1318 927 c 0,134,135
 1319 928 1319 928 1319.5 929 c 128,-1,136
 1320 930 1320 930 1321 931 c 0,137,138
 1425 1049 1425 1049 1448.5 1204 c 128,-1,139
 1472 1359 1472 1359 1408 1502 c 0,140,141
 1401 1518 1401 1518 1393 1533 c 128,-1,142
 1385 1548 1385 1548 1376 1563 c 128,-1,143
 1367 1578 1367 1578 1357 1591 c 0,144,145
 1342 1612 1342 1612 1326 1631 c 128,-1,146
 1310 1650 1310 1650 1292 1668 c 0,147,148
 1283 1677 1283 1677 1273 1685 c 128,-1,149
 1263 1693 1263 1693 1253 1701 c 128,-1,150
 1243 1709 1243 1709 1232.5 1717 c 128,-1,151
 1222 1725 1222 1725 1211 1732 c 0,152,153
 1145 1775 1145 1775 1072.5 1796.5 c 128,-1,154
 1000 1818 1000 1818 921 1818 c 2,155,-1
 21 1818 l 1,112,-1
362 1091 m 0,156,157
 356 1096 356 1096 355 1104 c 2,158,-1
 355 1105 l 1,159,-1
 355 1462 l 2,160,161
 355 1465 355 1465 356 1467 c 0,162,163
 356 1468 356 1468 356 1468.5 c 128,-1,164
 356 1469 356 1469 356.5 1469.5 c 128,-1,165
 357 1470 357 1470 357 1470.5 c 128,-1,166
 357 1471 357 1471 357.5 1471 c 128,-1,167
 358 1471 358 1471 358 1471.5 c 0,168,-1
 358 1472 l 0,169,170
 359 1474 359 1474 361 1476 c 0,171,172
 364 1479 364 1479 368 1481 c 0,173,-1
 368.5 1481.5 l 0,174,175
 369 1482 369 1482 369.5 1482 c 128,-1,176
 370 1482 370 1482 370.5 1482 c 128,-1,177
 371 1482 371 1482 371.5 1482 c 128,-1,178
 372 1482 372 1482 372.5 1482 c 128,-1,179
 373 1482 373 1482 373 1482.5 c 128,-1,180
 373 1483 373 1483 373.5 1483 c 128,-1,181
 374 1483 374 1483 374.5 1483 c 128,-1,182
 375 1483 375 1483 375.5 1483 c 0,183,-1
 376 1483 l 2,184,-1
 921 1483 l 2,185,186
 941 1483 941 1483 960 1479 c 0,187,188
 964 1478 964 1478 967.5 1477.5 c 128,-1,189
 971 1477 971 1477 975 1476 c 128,-1,190
 979 1475 979 1475 982.5 1473.5 c 128,-1,191
 986 1472 986 1472 989.5 1471 c 128,-1,192
 993 1470 993 1470 997 1468 c 0,193,194
 1015 1461 1015 1461 1031 1450 c 0,195,196
 1039 1445 1039 1445 1046.5 1438.5 c 128,-1,197
 1054 1432 1054 1432 1061 1425 c 0,198,199
 1090 1396 1090 1396 1105 1360.5 c 128,-1,200
 1120 1325 1120 1325 1120 1284 c 0,201,202
 1120 1272 1120 1272 1118.5 1261 c 128,-1,203
 1117 1250 1117 1250 1114.5 1239 c 128,-1,204
 1112 1228 1112 1228 1108.5 1217.5 c 128,-1,205
 1105 1207 1105 1207 1100.5 1197.5 c 128,-1,206
 1096 1188 1096 1188 1090 1178.5 c 128,-1,207
 1084 1169 1084 1169 1077 1160 c 128,-1,208
 1070 1151 1070 1151 1061 1143 c 0,209,210
 1042 1124 1042 1124 1020 1111 c 128,-1,211
 998 1098 998 1098 973 1091.5 c 128,-1,212
 948 1085 948 1085 921 1085 c 2,213,-1
 376 1085 l 2,214,215
 374 1085 374 1085 372 1085 c 0,216,217
 371 1085 371 1085 370 1085.5 c 128,-1,218
 369 1086 369 1086 368 1086 c 0,219,220
 366 1087 366 1087 365 1088 c 0,221,222
 363 1090 363 1090 362 1091 c 0,156,157
362 358 m 0,223,224
 356 363 356 363 355 371 c 2,225,-1
 355 372 l 1,226,-1
 355 730 l 2,227,228
 355 732 355 732 355.5 734 c 128,-1,229
 356 736 356 736 357 738 c 128,-1,230
 358 740 358 740 359 741 c 128,-1,231
 360 742 360 742 361 743 c 0,232,233
 364 746 364 746 368 748 c 128,-1,234
 372 750 372 750 376 750 c 2,235,-1
 921 750 l 2,236,237
 962 750 962 750 997 735.5 c 128,-1,238
 1032 721 1032 721 1061 692 c 0,239,240
 1075 678 1075 678 1086.5 661.5 c 128,-1,241
 1098 645 1098 645 1105 627.5 c 128,-1,242
 1112 610 1112 610 1116 591 c 128,-1,243
 1120 572 1120 572 1120 551 c 0,244,245
 1120 510 1120 510 1105 475 c 0,246,247
 1101 466 1101 466 1096.5 457.5 c 128,-1,248
 1092 449 1092 449 1087 441 c 128,-1,249
 1082 433 1082 433 1075 425 c 0,250,251
 1074 423 1074 423 1072.5 422 c 128,-1,252
 1071 421 1071 421 1069.5 419.5 c 128,-1,253
 1068 418 1068 418 1067 416.5 c 128,-1,254
 1066 415 1066 415 1064.5 413.5 c 128,-1,255
 1063 412 1063 412 1061 411 c 0,256,257
 1047 397 1047 397 1031 385.5 c 128,-1,258
 1015 374 1015 374 997 367 c 0,259,260
 985 362 985 362 972.5 358.5 c 128,-1,261
 960 355 960 355 947 353.5 c 128,-1,262
 934 352 934 352 921 352 c 2,263,-1
 376 352 l 2,264,265
 372 352 372 352 368 354 c 0,266,267
 365 355 365 355 362 358 c 0,223,224
EndSplineSet
EndChar

StartChar: s
Encoding: 115 115 62
Width: 1593
VWidth: -3
Flags: W
LayerCount: 2
Fore
SplineSet
1105 553 m 2,0,-1
 1469 553 l 2,1,2
 1470 553 1470 553 1471 552 c 0,3,4
 1471 552 l 2,5,-1
 1595 428 l 2,6,7
 1596 427 1596 427 1596 426 c 2,8,-1
 1596 336 l 2,9,10
 1596 241 1596 241 1562 159.5 c 128,-1,11
 1528 78 1528 78 1461 11 c 0,12,13
 1439 -11 1439 -11 1415 -30 c 128,-1,14
 1391 -49 1391 -49 1365 -64 c 128,-1,15
 1339 -79 1339 -79 1312 -90 c 0,16,17
 1231 -124 1231 -124 1136 -124 c 2,18,-1
 586 -124 l 2,19,20
 396 -124 396 -124 262 11 c 2,21,-1
 138 135 l 2,22,23
 3 270 3 270 3 460 c 2,24,-1
 3 1375 l 2,25,26
 3 1470 3 1470 36.5 1551.5 c 128,-1,27
 70 1633 70 1633 137.5 1700.5 c 128,-1,28
 205 1768 205 1768 286.5 1801.5 c 128,-1,29
 368 1835 368 1835 463 1835 c 2,30,-1
 1012 1835 l 2,31,32
 1044 1835 1044 1835 1074 1831.5 c 128,-1,33
 1104 1828 1104 1828 1133 1820.5 c 128,-1,34
 1162 1813 1162 1813 1189 1801 c 0,35,36
 1230 1784 1230 1784 1267 1759 c 128,-1,37
 1304 1734 1304 1734 1337 1700 c 2,38,-1
 1337 1700 l 1,39,-1
 1461 1577 l 2,40,41
 1528 1510 1528 1510 1562 1428 c 0,42,43
 1596 1347 1596 1347 1596 1252 c 2,44,-1
 1596 1162 l 2,45,46
 1596 1161 1596 1161 1595 1159.5 c 128,-1,47
 1594 1158 1594 1158 1592 1158 c 2,48,-1
 1229 1158 l 2,49,50
 1228 1158 1228 1158 1227 1159 c 2,51,-1
 1103 1283 l 2,52,53
 1103 1283 l 0,54,55
 1102 1284 1102 1284 1102 1285 c 2,56,-1
 1102 1342 l 1,57,-1
 586 1342 l 2,58,59
 567 1342 567 1342 551.5 1335 c 128,-1,60
 536 1328 536 1328 523 1315 c 0,61,62
 516 1308 516 1308 511.5 1301 c 128,-1,63
 507 1294 507 1294 503 1286 c 0,64,65
 501 1282 501 1282 500 1278 c 128,-1,66
 499 1274 499 1274 498 1270 c 0,67,68
 497 1267 497 1267 497 1264 c 128,-1,69
 497 1261 497 1261 497 1258 c 128,-1,70
 497 1255 497 1255 497 1252 c 2,71,-1
 497 370 l 1,72,-1
 1012 370 l 2,73,74
 1024 370 1024 370 1036 373 c 0,75,76
 1042 374 1042 374 1047 376.5 c 128,-1,77
 1052 379 1052 379 1057 382 c 0,78,79
 1067 388 1067 388 1076 396 c 0,80,81
 1083 403 1083 403 1087.5 410 c 128,-1,82
 1092 417 1092 417 1095.5 425 c 128,-1,83
 1099 433 1099 433 1100.5 441.5 c 128,-1,84
 1102 450 1102 450 1102 460 c 2,85,-1
 1102 550 l 2,86,87
 1102 551 1102 551 1103 552 c 128,-1,88
 1104 553 1104 553 1105 553 c 2,0,-1
1120 535 m 1,89,-1
 1120 460 l 2,90,91
 1120 455 1120 455 1119.5 449.5 c 128,-1,92
 1119 444 1119 444 1118 438 c 0,93,94
 1116 428 1116 428 1112 418.5 c 128,-1,95
 1108 409 1108 409 1102 400 c 0,96,97
 1099 396 1099 396 1095.5 392 c 128,-1,98
 1092 388 1092 388 1088 384 c 0,99,100
 1085 381 1085 381 1081.5 377.5 c 128,-1,101
 1078 374 1078 374 1074 371.5 c 128,-1,102
 1070 369 1070 369 1066 366 c 0,103,104
 1063 364 1063 364 1060 363 c 128,-1,105
 1057 362 1057 362 1053.5 360.5 c 128,-1,106
 1050 359 1050 359 1047 358 c 128,-1,107
 1044 357 1044 357 1040 356 c 0,108,109
 1033 354 1033 354 1026 353 c 128,-1,110
 1019 352 1019 352 1012 352 c 2,111,-1
 463 352 l 2,112,113
 461 352 461 352 459 352 c 128,-1,114
 457 352 457 352 456 352 c 0,115,116
 452 352 452 352 448.5 353 c 128,-1,117
 445 354 445 354 442 354 c 0,118,119
 432 356 432 356 422 360 c 0,120,121
 421 360 421 360 419.5 361 c 128,-1,122
 418 362 418 362 417 362.5 c 128,-1,123
 416 363 416 363 415 363 c 0,124,125
 413 364 413 364 412 364.5 c 128,-1,126
 411 365 411 365 409.5 366 c 128,-1,127
 408 367 408 367 406.5 368 c 128,-1,128
 405 369 405 369 403 370 c 0,129,130
 394 376 394 376 386.5 383.5 c 128,-1,131
 379 391 379 391 373 400 c 0,132,133
 370 404 370 404 367.5 409 c 128,-1,134
 365 414 365 414 363 418 c 0,135,136
 359 428 359 428 357 438 c 0,137,138
 357 439 357 439 357 440.5 c 128,-1,139
 357 442 357 442 356.5 443.5 c 128,-1,140
 356 445 356 445 356 446.5 c 128,-1,141
 356 448 356 448 356 449 c 0,142,143
 356 454 356 454 355 460 c 2,144,-1
 355 1375 l 2,145,146
 355 1379 355 1379 355.5 1382.5 c 128,-1,147
 356 1386 356 1386 356.5 1389.5 c 128,-1,148
 357 1393 357 1393 357 1397 c 0,149,150
 358 1402 358 1402 360 1407 c 0,151,152
 360 1409 360 1409 360.5 1410.5 c 128,-1,153
 361 1412 361 1412 362 1413.5 c 128,-1,154
 363 1415 363 1415 363 1417 c 0,155,156
 364 1419 364 1419 365.5 1421.5 c 128,-1,157
 367 1424 367 1424 368 1426 c 128,-1,158
 369 1428 369 1428 370.5 1430.5 c 128,-1,159
 372 1433 372 1433 373 1435 c 0,160,161
 379 1444 379 1444 387 1451 c 0,162,163
 392 1456 392 1456 397.5 1460.5 c 128,-1,164
 403 1465 403 1465 409 1468.5 c 128,-1,165
 415 1472 415 1472 422 1475 c 0,166,167
 432 1479 432 1479 442 1481 c 128,-1,168
 452 1483 452 1483 463 1483 c 2,169,-1
 1012 1483 l 2,170,171
 1023 1483 1023 1483 1033 1481 c 0,172,173
 1036 1480 1036 1480 1040 1479 c 128,-1,174
 1044 1478 1044 1478 1047 1477 c 128,-1,175
 1050 1476 1050 1476 1053 1475 c 0,176,177
 1059 1472 1059 1472 1065.5 1468.5 c 128,-1,178
 1072 1465 1072 1465 1077 1461 c 0,179,180
 1080 1459 1080 1459 1083 1456.5 c 128,-1,181
 1086 1454 1086 1454 1088 1451 c 0,182,183
 1104 1435 1104 1435 1112 1416 c 128,-1,184
 1120 1397 1120 1397 1120 1375 c 2,185,-1
 1120 1300 l 1,186,-1
 1454 1300 l 1,187,-1
 1454 1375 l 2,188,189
 1454 1467 1454 1467 1422 1545 c 128,-1,190
 1390 1623 1390 1623 1325 1688 c 0,191,192
 1292 1721 1292 1721 1257 1745 c 0,193,194
 1221 1769 1221 1769 1182 1785 c 0,195,196
 1169 1790 1169 1790 1155.5 1795 c 128,-1,197
 1142 1800 1142 1800 1129 1803 c 0,198,199
 1101 1810 1101 1810 1072 1814 c 0,200,201
 1043 1818 1043 1818 1012 1818 c 2,202,-1
 463 1818 l 2,203,204
 371 1818 371 1818 293 1785 c 0,205,206
 254 1769 254 1769 218.5 1744.5 c 128,-1,207
 183 1720 183 1720 150 1688 c 0,208,209
 85 1623 85 1623 53 1545 c 128,-1,210
 21 1467 21 1467 21 1375 c 2,211,-1
 21 460 l 2,212,213
 21 368 21 368 53 290 c 128,-1,214
 85 212 85 212 150 147 c 128,-1,215
 215 82 215 82 293 50 c 128,-1,216
 371 18 371 18 463 18 c 2,217,-1
 1012 18 l 2,218,219
 1104 18 1104 18 1182 50 c 0,220,221
 1208 61 1208 61 1232 75 c 0,222,223
 1237 78 1237 78 1242 81 c 128,-1,224
 1247 84 1247 84 1252 87 c 128,-1,225
 1257 90 1257 90 1261.5 93.5 c 128,-1,226
 1266 97 1266 97 1270.5 100.5 c 128,-1,227
 1275 104 1275 104 1280 107 c 0,228,229
 1303 125 1303 125 1325 147 c 0,230,231
 1390 212 1390 212 1422 290 c 0,232,233
 1438 329 1438 329 1446 371.5 c 128,-1,234
 1454 414 1454 414 1454 460 c 2,235,-1
 1454 535 l 1,236,-1
 1120 535 l 1,89,-1
EndSplineSet
EndChar

StartChar: t
Encoding: 116 116 63
Width: 1593
VWidth: -3
Flags: W
LayerCount: 2
Fore
SplineSet
6 1835 m 2,0,-1
 1012 1835 l 2,1,2
 1202 1835 1202 1835 1337 1701 c 2,3,-1
 1337 1700 l 1,4,-1
 1461 1577 l 2,5,6
 1596 1442 1596 1442 1595 1252 c 2,7,-1
 1595 336 l 2,8,9
 1595 146 1595 146 1460.5 11 c 128,-1,10
 1326 -124 1326 -124 1136 -124 c 2,11,-1
 130 -124 l 2,12,13
 129 -124 129 -124 128 -123 c 2,14,-1
 4 1 l 2,15,16
 4 1 l 0,17,18
 3 2 3 2 3 3 c 2,19,-1
 3 1832 l 2,20,21
 3 1833 3 1833 4 1834 c 128,-1,22
 5 1835 5 1835 6 1835 c 2,0,-1
1102 1342 m 1,23,-1
 500 1342 l 2,24,25
 499 1342 499 1342 498.5 1341.5 c 0,26,-1
 498 1341 l 0,27,28
 497.5 1340 l 0,29,-1
 497 1339 l 2,30,-1
 373 1463 l 2,31,32
 373 1462 l 2,33,-1
 497 1338 l 1,34,-1
 497 370 l 1,35,-1
 1012 370 l 2,36,37
 1024 370 1024 370 1036 373 c 0,38,39
 1042 374 1042 374 1047 376.5 c 128,-1,40
 1052 379 1052 379 1057 381 c 0,41,42
 1067 387 1067 387 1076 396 c 0,43,44
 1083 403 1083 403 1087.5 410 c 128,-1,45
 1092 417 1092 417 1096 425 c 0,46,47
 1103 441 1103 441 1102 460 c 2,48,-1
 1102 1342 l 1,23,-1
376 370 m 2,49,-1
 373 373 l 1,50,51
 373 372 373 372 374 371 c 0,52,53
 375 370 l 0,54,-1
 376 370 l 2,49,-1
362 358 m 0,55,56
 356 363 356 363 355 371 c 2,57,-1
 355 372 l 1,58,-1
 355 1462 l 2,59,60
 355 1465 355 1465 356 1467 c 0,61,62
 356 1468 356 1468 356 1468.5 c 128,-1,63
 356 1469 356 1469 356.5 1469.5 c 128,-1,64
 357 1470 357 1470 357 1470.5 c 128,-1,65
 357 1471 357 1471 357.5 1471 c 128,-1,66
 358 1471 358 1471 358 1471.5 c 0,67,-1
 358 1472 l 0,68,69
 359 1474 359 1474 361 1476 c 0,70,71
 364 1479 364 1479 368 1481 c 0,72,73
 368.5 1481.5 l 0,74,75
 369 1482 369 1482 369.5 1482 c 128,-1,76
 370 1482 370 1482 370.5 1482 c 128,-1,77
 371 1482 371 1482 371.5 1482 c 128,-1,78
 372 1482 372 1482 372.5 1482 c 128,-1,79
 373 1482 373 1482 373 1482.5 c 128,-1,80
 373 1483 373 1483 373.5 1483 c 128,-1,81
 374 1483 374 1483 374.5 1483 c 128,-1,82
 375 1483 375 1483 375.5 1483 c 0,83,-1
 376 1483 l 2,84,-1
 1012 1483 l 2,85,86
 1023 1483 1023 1483 1033 1481 c 0,87,88
 1036 1480 1036 1480 1040 1479 c 128,-1,89
 1044 1478 1044 1478 1047 1477 c 128,-1,90
 1050 1476 1050 1476 1053 1475 c 0,91,92
 1059 1472 1059 1472 1065.5 1468.5 c 128,-1,93
 1072 1465 1072 1465 1077 1461 c 0,94,95
 1080 1459 1080 1459 1083 1456.5 c 128,-1,96
 1086 1454 1086 1454 1088 1451 c 0,97,98
 1104 1435 1104 1435 1112 1416 c 128,-1,99
 1120 1397 1120 1397 1120 1375 c 2,100,-1
 1120 460 l 2,101,102
 1120 453 1120 453 1119 445.5 c 128,-1,103
 1118 438 1118 438 1116 431.5 c 128,-1,104
 1114 425 1114 425 1112 418 c 0,105,106
 1110 413 1110 413 1107.5 408.5 c 128,-1,107
 1105 404 1105 404 1102 400 c 0,108,109
 1096 391 1096 391 1088 384 c 0,110,111
 1078 374 1078 374 1066 366 c 0,112,113
 1060 362 1060 362 1053.5 360 c 128,-1,114
 1047 358 1047 358 1040 356 c 0,115,116
 1027 352 1027 352 1012 352 c 2,117,-1
 376 352 l 2,118,119
 372 352 372 352 368 354 c 0,120,121
 365 355 365 355 362 358 c 0,55,56
21 1818 m 1,122,-1
 21 18 l 1,123,-1
 1012 18 l 2,124,125
 1104 18 1104 18 1182 50 c 128,-1,126
 1260 82 1260 82 1325 147 c 0,127,128
 1351 173 1351 173 1371.5 201 c 128,-1,129
 1392 229 1392 229 1407.5 259 c 128,-1,130
 1423 289 1423 289 1433.5 321.5 c 128,-1,131
 1444 354 1444 354 1449 388.5 c 128,-1,132
 1454 423 1454 423 1454 460 c 2,133,-1
 1454 1376 l 2,134,135
 1454 1468 1454 1468 1422 1545.5 c 128,-1,136
 1390 1623 1390 1623 1325 1688 c 0,137,138
 1292 1721 1292 1721 1256.5 1745 c 128,-1,139
 1221 1769 1221 1769 1182 1785.5 c 128,-1,140
 1143 1802 1143 1802 1100.5 1810 c 128,-1,141
 1058 1818 1058 1818 1012 1818 c 2,142,-1
 21 1818 l 1,122,-1
EndSplineSet
EndChar

StartChar: u
Encoding: 117 117 64
Width: 1593
VWidth: -3
Flags: W
LayerCount: 2
Fore
SplineSet
1596 1703 m 2,0,-1
 1596 1349 l 2,1,2
 1596 1348 1596 1348 1595 1347 c 128,-1,3
 1594 1346 1594 1346 1593 1346 c 2,4,-1
 500 1342 l 2,5,6
 499 1342 499 1342 498 1341 c 128,-1,7
 497 1340 497 1340 497 1338 c 2,8,-1
 497 1102 l 1,9,-1
 1102 1102 l 2,10,11
 1103 1102 1103 1102 1104 1102 c 0,12,-1
 1105 1101 l 2,13,-1
 1228 978 l 2,14,15
 1229 977 1229 977 1229 976 c 2,16,-1
 1229 617 l 2,17,18
 1229 616 1229 616 1228 615 c 128,-1,19
 1227 614 1227 614 1226 614 c 2,20,-1
 500 609 l 1,21,-1
 376 733 l 2,22,-1
 375.5 733 l 0,23,24
 375 733 375 733 375 732.5 c 128,-1,25
 375 732 375 732 374 732 c 2,26,-1
 498 608 l 2,27,-1
 498 608 l 0,28,29
 497 607 497 607 497 606.5 c 0,30,-1
 497 606 l 2,31,-1
 497 370 l 1,32,-1
 1469 370 l 2,33,34
 1470 370 1470 370 1471 369 c 0,35,-1
 1471 369 l 2,36,-1
 1595 245 l 2,37,38
 1596 244 1596 244 1596 243 c 2,39,-1
 1596 -121 l 2,40,41
 1596 -122 1596 -122 1595 -123 c 128,-1,42
 1594 -124 1594 -124 1592 -124 c 2,43,-1
 130 -124 l 2,44,45
 129 -124 129 -124 128 -123 c 2,46,-1
 4 1 l 2,47,-1
 4 1 l 0,48,49
 3 2 3 2 3 3 c 2,50,-1
 3 1827 l 2,51,52
 3 1828 3 1828 4 1829 c 128,-1,53
 5 1830 5 1830 6 1830 c 2,54,-1
 1469 1830 l 2,55,56
 1470 1830 1470 1830 1471 1829 c 0,57,-1
 1471 1829 l 2,58,-1
 1595 1706 l 2,59,60
 1596 1704 1596 1704 1596 1703 c 2,0,-1
376 370 m 2,61,-1
 373 373 l 1,62,63
 373 372 373 372 374 371 c 0,64,-1
 375 370 l 0,65,-1
 376 370 l 2,61,-1
376 1102 m 2,66,-1
 373 1106 l 1,67,68
 373 1105 373 1105 374 1103 c 0,69,-1
 374.5 1103 l 0,70,71
 375 1103 375 1103 375 1102.5 c 128,-1,72
 375 1102 375 1102 375.5 1102 c 0,73,-1
 376 1102 l 2,66,-1
362 358 m 0,74,75
 356 363 356 363 355 371 c 2,76,-1
 355 372 l 1,77,-1
 355 730 l 2,78,79
 355 734 355 734 357 737 c 0,80,81
 358 739 358 739 359 740.5 c 128,-1,82
 360 742 360 742 361 744 c 0,83,84
 362 745 362 745 364 746 c 128,-1,85
 366 747 366 747 368 748 c 0,86,-1
 368.5 748.5 l 0,87,88
 369 749 369 749 369.5 749 c 128,-1,89
 370 749 370 749 370.5 749.5 c 128,-1,90
 371 750 371 750 371.5 750 c 0,91,-1
 372 750 l 0,92,93
 374 750 374 750 376 750 c 2,94,-1
 1088 755 l 1,95,-1
 1088 1085 l 1,96,-1
 376 1085 l 2,97,-1
 375.5 1085 l 0,98,99
 375 1085 375 1085 374.5 1085 c 128,-1,100
 374 1085 374 1085 373.5 1085 c 128,-1,101
 373 1085 373 1085 372 1085 c 128,-1,102
 371 1085 371 1085 370 1085.5 c 128,-1,103
 369 1086 369 1086 368 1086 c 0,104,105
 366 1087 366 1087 365 1088 c 128,-1,106
 364 1089 364 1089 362 1091 c 0,107,108
 356 1096 356 1096 355 1104 c 2,109,-1
 355 1105 l 1,110,-1
 355 1462 l 2,111,112
 355 1466 355 1466 357 1470 c 128,-1,113
 359 1474 359 1474 361 1476 c 0,114,115
 364 1479 364 1479 368 1481 c 128,-1,116
 372 1483 372 1483 376 1483 c 2,117,-1
 1454 1488 l 1,118,119
 1454 1542 1454 1542 1454 1650.5 c 128,-1,120
 1454 1759 1454 1759 1454 1813 c 1,121,-1
 21 1813 l 1,122,-1
 21 18 l 1,123,-1
 1454 18 l 1,124,-1
 1454 352 l 1,125,-1
 376 352 l 2,126,127
 372 352 372 352 368 354 c 0,128,129
 365 355 365 355 362 358 c 0,74,75
EndSplineSet
EndChar

StartChar: v
Encoding: 118 118 65
Width: 1593
VWidth: -3
Flags: W
LayerCount: 2
Fore
SplineSet
1596 1708 m 2,0,-1
 1596 1345 l 2,1,2
 1596 1344 1596 1344 1595 1343 c 128,-1,3
 1594 1342 1594 1342 1592 1342 c 2,4,-1
 500 1342 l 2,5,6
 499 1342 499 1342 498.5 1341.5 c 0,7,-1
 498 1341 l 0,8,9
 497.5 1340 l 0,10,-1
 497 1339 l 2,11,-1
 373 1463 l 2,12,13
 373 1462 l 2,14,-1
 497 1338 l 1,15,-1
 497 1102 l 1,16,-1
 1102 1102 l 2,17,18
 1103 1102 1103 1102 1104 1102 c 0,19,20
 1105 1101 l 2,21,-1
 1228 978 l 2,22,23
 1229 977 1229 977 1229 976 c 2,24,-1
 1229 612 l 2,25,26
 1229 611 1229 611 1228 610 c 128,-1,27
 1227 609 1227 609 1226 609 c 2,28,-1
 500 609 l 2,29,30
 499 609 499 609 498 608 c 128,-1,31
 497 607 497 607 497 606 c 2,32,-1
 497 -121 l 2,33,34
 497 -122 497 -122 496 -123 c 128,-1,35
 495 -124 495 -124 493 -124 c 2,36,-1
 130 -124 l 2,37,38
 129 -124 129 -124 128 -123 c 2,39,-1
 4 1 l 2,40,-1
 4 1 l 0,41,42
 3 2 3 2 3 3 c 2,43,-1
 3 1832 l 2,44,45
 3 1833 3 1833 4 1834 c 128,-1,46
 5 1835 5 1835 6 1835 c 2,47,-1
 1469 1835 l 2,48,49
 1470 1835 1470 1835 1471 1834 c 0,50,-1
 1471 1834 l 2,51,-1
 1595 1710 l 2,52,53
 1596 1709 1596 1709 1596 1708 c 2,0,-1
376 1102 m 2,54,-1
 373 1106 l 1,55,56
 373 1105 373 1105 374 1103 c 0,57,-1
 374.5 1103 l 0,58,59
 375 1103 375 1103 375 1102.5 c 128,-1,60
 375 1102 375 1102 375.5 1102 c 0,61,-1
 376 1102 l 2,54,-1
362 1091 m 0,62,63
 356 1096 356 1096 355 1104 c 2,64,-1
 355 1105 l 1,65,-1
 355 1462 l 2,66,67
 355 1465 355 1465 356 1467 c 0,68,69
 356 1468 356 1468 356 1468.5 c 128,-1,70
 356 1469 356 1469 356.5 1469.5 c 128,-1,71
 357 1470 357 1470 357 1470.5 c 128,-1,72
 357 1471 357 1471 357.5 1471 c 128,-1,73
 358 1471 358 1471 358 1471.5 c 0,74,-1
 358 1472 l 0,75,76
 359 1474 359 1474 361 1476 c 0,77,78
 364 1479 364 1479 368 1481 c 0,79,-1
 368.5 1481.5 l 0,80,81
 369 1482 369 1482 369.5 1482 c 128,-1,82
 370 1482 370 1482 370.5 1482 c 128,-1,83
 371 1482 371 1482 371.5 1482 c 128,-1,84
 372 1482 372 1482 372.5 1482 c 128,-1,85
 373 1482 373 1482 373 1482.5 c 128,-1,86
 373 1483 373 1483 373.5 1483 c 128,-1,87
 374 1483 374 1483 374.5 1483 c 128,-1,88
 375 1483 375 1483 375.5 1483 c 0,89,-1
 376 1483 l 2,90,-1
 1454 1483 l 1,91,-1
 1454 1817 l 1,92,-1
 21 1818 l 1,93,-1
 21 18 l 1,94,-1
 355 18 l 1,95,-1
 355 730 l 2,96,97
 355 732 355 732 355.5 733.5 c 128,-1,98
 356 735 356 735 356.5 736.5 c 128,-1,99
 357 738 357 738 358 739.5 c 128,-1,100
 359 741 359 741 359.5 742 c 128,-1,101
 360 743 360 743 361 743 c 0,102,103
 364 746 364 746 368 748 c 128,-1,104
 372 750 372 750 376 750 c 2,105,-1
 1088 750 l 1,106,-1
 1088 1085 l 1,107,-1
 376 1085 l 2,108,-1
 375.5 1085 l 0,109,110
 375 1085 375 1085 374.5 1085 c 128,-1,111
 374 1085 374 1085 373.5 1085 c 128,-1,112
 373 1085 373 1085 372 1085 c 128,-1,113
 371 1085 371 1085 370 1085.5 c 128,-1,114
 369 1086 369 1086 368 1086 c 0,115,116
 366 1087 366 1087 365 1088 c 0,117,118
 363 1090 363 1090 362 1091 c 0,62,63
EndSplineSet
EndChar

StartChar: w
Encoding: 119 119 66
Width: 1593
VWidth: -3
Flags: W
LayerCount: 2
Fore
SplineSet
497 370 m 1,0,-1
 1012 370 l 2,1,2
 1024 370 1024 370 1036 373 c 0,3,4
 1042 374 1042 374 1047 376.5 c 128,-1,5
 1052 379 1052 379 1057 382 c 0,6,7
 1067 388 1067 388 1076 396 c 0,8,9
 1083 403 1083 403 1087.5 410 c 128,-1,10
 1092 417 1092 417 1096 425 c 0,11,12
 1096 426 l 2,13,-1
 863 426 l 2,14,15
 862 426 862 426 861 427 c 2,16,-1
 737 550 l 2,17,18
 737 550 l 0,19,20
 736 551 736 551 736 553 c 2,21,-1
 736 916 l 2,22,23
 736 917 736 917 737 918 c 128,-1,24
 738 919 738 919 739 919 c 2,25,-1
 1469 919 l 2,26,27
 1470 919 1470 919 1471 918 c 0,28,29
 1471 918 l 2,30,-1
 1595 795 l 2,31,32
 1596 794 1596 794 1596 792 c 2,33,-1
 1596 336 l 2,34,35
 1596 241 1596 241 1562 159.5 c 128,-1,36
 1528 78 1528 78 1461 11 c 0,37,38
 1439 -11 1439 -11 1415 -30 c 128,-1,39
 1391 -49 1391 -49 1365 -64 c 128,-1,40
 1339 -79 1339 -79 1312 -90 c 0,41,42
 1231 -124 1231 -124 1136 -124 c 2,43,-1
 586 -124 l 2,44,45
 396 -124 396 -124 262 11 c 2,46,-1
 138 135 l 2,47,48
 3 270 3 270 3 460 c 2,49,-1
 3 1375 l 2,50,51
 3 1470 3 1470 36.5 1551.5 c 128,-1,52
 70 1633 70 1633 137.5 1700.5 c 128,-1,53
 205 1768 205 1768 286.5 1801.5 c 128,-1,54
 368 1835 368 1835 463 1835 c 2,55,-1
 1012 1835 l 2,56,57
 1044 1835 1044 1835 1074 1831.5 c 128,-1,58
 1104 1828 1104 1828 1133 1820.5 c 128,-1,59
 1162 1813 1162 1813 1189 1801 c 0,60,61
 1230 1784 1230 1784 1267 1759 c 128,-1,62
 1304 1734 1304 1734 1337 1700 c 2,63,-1
 1337 1700 l 1,64,-1
 1461 1577 l 2,65,66
 1528 1510 1528 1510 1562 1428 c 0,67,68
 1596 1347 1596 1347 1596 1252 c 2,69,-1
 1596 1162 l 2,70,71
 1596 1161 1596 1161 1595 1159.5 c 128,-1,72
 1594 1158 1594 1158 1592 1158 c 2,73,-1
 1229 1158 l 2,74,75
 1228 1158 1228 1158 1227 1159 c 2,76,-1
 1103 1283 l 2,77,78
 1103 1283 l 0,79,80
 1102 1284 1102 1284 1102 1285 c 2,81,-1
 1102 1342 l 1,82,-1
 586 1342 l 2,83,84
 567 1342 567 1342 551.5 1335 c 128,-1,85
 536 1328 536 1328 523 1315 c 0,86,87
 516 1308 516 1308 511.5 1301 c 128,-1,88
 507 1294 507 1294 503 1286 c 0,89,90
 501 1282 501 1282 500 1278 c 128,-1,91
 499 1274 499 1274 498 1270 c 0,92,93
 497 1267 497 1267 497 1264 c 128,-1,94
 497 1261 497 1261 497 1258 c 128,-1,95
 497 1255 497 1255 497 1252 c 2,96,-1
 497 370 l 1,0,-1
1102 546 m 2,97,98
 1102 547 1102 547 1102 548 c 0,99,100
 1101 548 l 0,101,102
 1101 548 l 0,103,104
 1100 549 1100 549 1100 549.5 c 128,-1,105
 1100 550 1100 550 1099 550 c 2,106,-1
 1102 546 l 2,97,98
1099 567 m 2,107,108
 1101 567 1101 567 1103 566.5 c 128,-1,109
 1105 566 1105 566 1107 565 c 0,110,111
 1108 564 1108 564 1109.5 563.5 c 128,-1,112
 1111 563 1111 563 1111.5 562.5 c 128,-1,113
 1112 562 1112 562 1113 561 c 0,114,115
 1116 558 1116 558 1118 555 c 0,116,117
 1120 551 1120 551 1120 546 c 2,118,-1
 1120 460 l 2,119,120
 1120 455 1120 455 1119.5 449.5 c 128,-1,121
 1119 444 1119 444 1118 438 c 0,122,123
 1116 428 1116 428 1112 418.5 c 128,-1,124
 1108 409 1108 409 1102 400 c 0,125,126
 1099 396 1099 396 1095.5 392 c 128,-1,127
 1092 388 1092 388 1088 384 c 0,128,129
 1085 381 1085 381 1081.5 377.5 c 128,-1,130
 1078 374 1078 374 1074 371.5 c 128,-1,131
 1070 369 1070 369 1066 366 c 0,132,133
 1063 364 1063 364 1060 363 c 128,-1,134
 1057 362 1057 362 1053.5 360.5 c 128,-1,135
 1050 359 1050 359 1047 358 c 128,-1,136
 1044 357 1044 357 1040 356 c 0,137,138
 1033 354 1033 354 1026 353 c 128,-1,139
 1019 352 1019 352 1012 352 c 2,140,-1
 463 352 l 2,141,142
 461 352 461 352 459 352 c 128,-1,143
 457 352 457 352 456 352 c 0,144,145
 452 352 452 352 448.5 353 c 128,-1,146
 445 354 445 354 442 354 c 0,147,148
 432 356 432 356 422 360 c 0,149,150
 421 360 421 360 419.5 361 c 128,-1,151
 418 362 418 362 417 362.5 c 128,-1,152
 416 363 416 363 415 363 c 0,153,154
 413 364 413 364 412 364.5 c 128,-1,155
 411 365 411 365 409.5 366 c 128,-1,156
 408 367 408 367 406.5 368 c 128,-1,157
 405 369 405 369 403 370 c 0,158,159
 394 376 394 376 386.5 383.5 c 128,-1,160
 379 391 379 391 373 400 c 0,161,162
 370 404 370 404 367.5 409 c 128,-1,163
 365 414 365 414 363 418 c 0,164,165
 359 428 359 428 357 438 c 0,166,167
 357 439 357 439 357 440.5 c 128,-1,168
 357 442 357 442 356.5 443.5 c 128,-1,169
 356 445 356 445 356 446.5 c 128,-1,170
 356 448 356 448 356 449 c 0,171,172
 356 454 356 454 355 460 c 2,173,-1
 355 1375 l 2,174,175
 355 1379 355 1379 355.5 1382.5 c 128,-1,176
 356 1386 356 1386 356.5 1389.5 c 128,-1,177
 357 1393 357 1393 357 1397 c 0,178,179
 358 1402 358 1402 360 1407 c 0,180,181
 360 1409 360 1409 360.5 1410.5 c 128,-1,182
 361 1412 361 1412 362 1413.5 c 128,-1,183
 363 1415 363 1415 363 1417 c 0,184,185
 364 1419 364 1419 365.5 1421.5 c 128,-1,186
 367 1424 367 1424 368 1426 c 128,-1,187
 369 1428 369 1428 370.5 1430.5 c 128,-1,188
 372 1433 372 1433 373 1435 c 0,189,190
 379 1444 379 1444 387 1451 c 0,191,192
 392 1456 392 1456 397.5 1460.5 c 128,-1,193
 403 1465 403 1465 409 1468.5 c 128,-1,194
 415 1472 415 1472 422 1475 c 0,195,196
 432 1479 432 1479 442 1481 c 128,-1,197
 452 1483 452 1483 463 1483 c 2,198,-1
 1012 1483 l 2,199,200
 1023 1483 1023 1483 1033 1481 c 0,201,202
 1036 1480 1036 1480 1040 1479 c 128,-1,203
 1044 1478 1044 1478 1047 1477 c 128,-1,204
 1050 1476 1050 1476 1053 1475 c 0,205,206
 1059 1472 1059 1472 1065.5 1468.5 c 128,-1,207
 1072 1465 1072 1465 1077 1461 c 0,208,209
 1080 1459 1080 1459 1083 1456.5 c 128,-1,210
 1086 1454 1086 1454 1088 1451 c 0,211,212
 1104 1435 1104 1435 1112 1416 c 128,-1,213
 1120 1397 1120 1397 1120 1375 c 2,214,-1
 1120 1300 l 1,215,-1
 1454 1300 l 1,216,-1
 1454 1375 l 2,217,218
 1454 1467 1454 1467 1422 1545 c 128,-1,219
 1390 1623 1390 1623 1325 1688 c 0,220,221
 1292 1721 1292 1721 1257 1745 c 0,222,223
 1221 1769 1221 1769 1182 1785 c 0,224,225
 1169 1790 1169 1790 1155.5 1795 c 128,-1,226
 1142 1800 1142 1800 1129 1803 c 0,227,228
 1101 1810 1101 1810 1072 1814 c 0,229,230
 1043 1818 1043 1818 1012 1818 c 2,231,-1
 463 1818 l 2,232,233
 371 1818 371 1818 293 1785 c 0,234,235
 254 1769 254 1769 218.5 1744.5 c 128,-1,236
 183 1720 183 1720 150 1688 c 0,237,238
 85 1623 85 1623 53 1545 c 128,-1,239
 21 1467 21 1467 21 1375 c 2,240,-1
 21 460 l 2,241,242
 21 368 21 368 53 290 c 128,-1,243
 85 212 85 212 150 147 c 128,-1,244
 215 82 215 82 293 50 c 128,-1,245
 371 18 371 18 463 18 c 2,246,-1
 1012 18 l 2,247,248
 1104 18 1104 18 1182 50 c 0,249,250
 1208 61 1208 61 1232 75 c 0,251,252
 1237 78 1237 78 1242 81 c 128,-1,253
 1247 84 1247 84 1252 87 c 128,-1,254
 1257 90 1257 90 1261.5 93.5 c 128,-1,255
 1266 97 1266 97 1270.5 100.5 c 128,-1,256
 1275 104 1275 104 1280 107 c 0,257,258
 1303 125 1303 125 1325 147 c 0,259,260
 1390 212 1390 212 1422 290 c 0,261,262
 1438 329 1438 329 1446 371.5 c 128,-1,263
 1454 414 1454 414 1454 460 c 2,264,-1
 1454 902 l 1,265,-1
 753 902 l 1,266,-1
 753 567 l 1,267,-1
 1099 567 l 2,107,108
EndSplineSet
EndChar

StartChar: x
Encoding: 120 120 67
Width: 1593
VWidth: -3
Flags: W
LayerCount: 2
Fore
SplineSet
1593 -124 m 1,0,-1
 1229 -124 l 2,1,2
 1228 -124 1228 -124 1227 -123 c 2,3,-1
 1103 1 l 2,4,5
 1102 2 l 0,6,7
 1102 3 l 2,8,-1
 1102 609 l 1,9,-1
 500 609 l 2,10,11
 499 609 499 609 498 608 c 128,-1,12
 497 607 497 607 497 606 c 2,13,-1
 497 -121 l 2,14,15
 497 -122 497 -122 496 -123 c 128,-1,16
 495 -124 495 -124 493 -124 c 2,17,-1
 130 -124 l 2,18,19
 129 -124 129 -124 128 -123 c 2,20,-1
 4 1 l 2,21,-1
 4 1 l 0,22,23
 3 2 3 2 3 3 c 2,24,-1
 3 1827 l 2,25,26
 3 1828 3 1828 4 1829 c 128,-1,27
 5 1830 5 1830 6 1830 c 2,28,-1
 370 1835 l 2,29,-1
 371 1835 l 0,30,-1
 372 1834 l 0,31,-1
 372 1833 l 2,32,-1
 496 1710 l 2,33,34
 496 1709 496 1709 497 1708 c 2,35,-1
 497 1102 l 1,36,-1
 1099 1102 l 2,37,38
 1100 1102 1100 1102 1100.5 1102.5 c 0,39,-1
 1101 1103 l 0,40,-1
 1101.5 1104 l 0,41,-1
 1102 1105 l 0,42,-1
 1102 1106 l 2,43,-1
 1102 1832 l 2,44,45
 1102 1833 1102 1833 1103 1834 c 128,-1,46
 1104 1835 1104 1835 1105 1835 c 2,47,-1
 1464 1835 l 2,48,49
 1465 1835 1465 1835 1466 1834 c 2,50,-1
 1466 1834 l 1,51,-1
 1590 1710 l 2,52,53
 1591 1709 1591 1709 1591 1708 c 2,54,-1
 1595 -121 l 1,55,56
 1595 -123 1595 -123 1593 -124 c 1,0,-1
376 1102 m 2,57,-1
 373 1106 l 1,58,59
 373 1105 373 1105 374 1103 c 0,60,-1
 374.5 1103 l 0,61,62
 375 1103 375 1103 375 1102.5 c 128,-1,63
 375 1102 375 1102 375.5 1102 c 0,64,-1
 376 1102 l 2,57,-1
1102 730 m 2,65,-1
 1102 730.5 l 0,66,-1
 1102 731 l 0,67,-1
 1101 731 l 0,68,-1
 1101 732 l 0,69,-1
 1100 733 l 0,70,-1
 1099 733 l 2,71,-1
 1102 730 l 2,65,-1
362 1091 m 0,72,73
 356 1096 356 1096 355 1104 c 2,74,-1
 355 1105 l 1,75,-1
 355 1817 l 1,76,-1
 21 1813 l 1,77,-1
 21 18 l 1,78,-1
 355 18 l 1,79,-1
 355 730 l 2,80,81
 355 732 355 732 355.5 733.5 c 128,-1,82
 356 735 356 735 356.5 736.5 c 128,-1,83
 357 738 357 738 358 739.5 c 128,-1,84
 359 741 359 741 359.5 742 c 128,-1,85
 360 743 360 743 361 743 c 0,86,87
 364 746 364 746 368 748 c 128,-1,88
 372 750 372 750 376 750 c 2,89,-1
 1099 750 l 2,90,91
 1101 750 1101 750 1103 749.5 c 128,-1,92
 1105 749 1105 749 1107 749 c 0,93,94
 1110 748 1110 748 1113 745 c 0,95,96
 1115 743 1115 743 1116 741 c 0,97,98
 1118 738 1118 738 1119 735 c 0,99,100
 1120 734 1120 734 1120 730 c 2,101,-1
 1120 18 l 1,102,-1
 1454 18 l 1,103,-1
 1450 1817 l 1,104,105
 1428 1817 1428 1817 1403 1817 c 128,-1,106
 1378 1817 1378 1817 1355 1817 c 128,-1,107
 1332 1817 1332 1817 1308.5 1817 c 128,-1,108
 1285 1817 1285 1817 1261 1817 c 128,-1,109
 1237 1817 1237 1817 1214 1817 c 128,-1,110
 1191 1817 1191 1817 1166.5 1817.5 c 128,-1,111
 1142 1818 1142 1818 1120 1818 c 1,112,-1
 1120 1106 l 2,113,114
 1120 1105 1120 1105 1119.5 1104 c 128,-1,115
 1119 1103 1119 1103 1119 1102 c 0,116,-1
 1119 1101 l 0,117,118
 1118 1098 1118 1098 1117 1095 c 0,119,120
 1116 1093 1116 1093 1114 1092 c 0,121,122
 1111 1089 1111 1089 1107 1087 c 128,-1,123
 1103 1085 1103 1085 1099 1085 c 2,124,-1
 376 1085 l 2,125,-1
 375.5 1085 l 0,126,127
 375 1085 375 1085 374.5 1085 c 128,-1,128
 374 1085 374 1085 373.5 1085 c 128,-1,129
 373 1085 373 1085 372 1085 c 128,-1,130
 371 1085 371 1085 370 1085.5 c 128,-1,131
 369 1086 369 1086 368 1086 c 0,132,133
 366 1087 366 1087 365 1088 c 0,134,135
 363 1090 363 1090 362 1091 c 0,72,73
EndSplineSet
EndChar

StartChar: y
Encoding: 121 121 68
Width: 1044
VWidth: -3
Flags: W
LayerCount: 2
Fore
SplineSet
6 187 m 2,0,-1
 187 187 l 2,1,2
 188 187 188 187 189 186 c 0,3,4
 189 186 l 2,5,-1
 313 62 l 2,6,7
 314 61 314 61 313 60 c 2,8,-1
 313 -121 l 2,9,10
 313 -122 313 -122 312 -123 c 128,-1,11
 311 -124 311 -124 310 -124 c 2,12,-1
 130 -124 l 2,13,14
 129 -124 129 -124 128 -123 c 2,15,-1
 4 1 l 2,16,17
 4 1 l 0,18,19
 3 2 3 2 3 3 c 2,20,-1
 3 184 l 2,21,22
 3 185 3 185 4 186 c 128,-1,23
 5 187 5 187 6 187 c 2,0,-1
553 3 m 2,24,-1
 553 1832 l 2,25,26
 553 1833 553 1833 554 1834 c 128,-1,27
 555 1835 555 1835 556 1835 c 2,28,-1
 919 1835 l 2,29,30
 920 1835 920 1835 921 1834 c 0,31,32
 922 1834 l 2,33,-1
 1045 1710 l 2,34,35
 1046 1709 1046 1709 1046 1708 c 2,36,-1
 1046 -121 l 2,37,38
 1046 -122 1046 -122 1045 -123 c 128,-1,39
 1044 -124 1044 -124 1043 -124 c 2,40,-1
 679 -124 l 2,41,42
 678 -124 678 -124 677 -123 c 2,43,-1
 554 1 l 2,44,45
 553 1 l 0,46,47
 553 2 553 2 553 3 c 2,24,-1
570 18 m 1,48,-1
 905 18 l 1,49,-1
 905 1818 l 1,50,-1
 570 1818 l 1,51,-1
 570 18 l 1,48,-1
21 169 m 1,52,-1
 21 18 l 1,53,-1
 172 18 l 1,54,-1
 172 169 l 1,55,-1
 21 169 l 1,52,-1
EndSplineSet
EndChar

StartChar: z
Encoding: 122 122 69
Width: 1593
VWidth: -3
Flags: W
LayerCount: 2
Fore
SplineSet
6 553 m 1,0,-1
 370 553 l 2,1,2
 371 553 371 553 372 552 c 0,3,4
 372 552 l 2,5,-1
 496 428 l 2,6,7
 497 427 497 427 497 426 c 0,8,9
 497 400 497 400 503 377 c 1,10,11
 505 377 505 377 507 376 c 0,12,13
 530 370 530 370 554 370 c 0,14,15
 629 370 629 370 682.5 423 c 128,-1,16
 736 476 736 476 736 551 c 2,17,-1
 736 1342 l 1,18,-1
 130 1342 l 2,19,20
 129 1342 129 1342 128 1342 c 2,21,-1
 4 1466 l 2,22,23
 4 1466 l 0,24,25
 3 1467 3 1467 3 1468 c 2,26,-1
 3 1832 l 2,27,28
 3 1833 3 1833 4 1834 c 128,-1,29
 5 1835 5 1835 6 1835 c 2,30,-1
 1469 1835 l 2,31,32
 1470 1835 1470 1835 1471 1834 c 0,33,34
 1471 1834 l 2,35,-1
 1595 1710 l 2,36,37
 1596 1709 1596 1709 1596 1708 c 2,38,-1
 1596 1345 l 2,39,40
 1596 1344 1596 1344 1595 1343 c 128,-1,41
 1594 1342 1594 1342 1592 1342 c 2,42,-1
 1232 1342 l 2,43,44
 1231 1342 1231 1342 1231 1341.5 c 128,-1,45
 1231 1341 1231 1341 1230 1341 c 0,46,47
 1229.5 1340 l 0,48,-1
 1229 1339 l 2,49,-1
 1106 1463 l 2,50,51
 1106 1462 l 2,52,-1
 1229 1338 l 1,53,-1
 1229 427 l 2,54,55
 1229 199 1229 199 1067.5 37.5 c 128,-1,56
 906 -124 906 -124 678 -124 c 128,-1,57
 450 -124 450 -124 288 38 c 2,58,-1
 165 161 l 2,59,60
 85 241 85 241 44 338.5 c 128,-1,61
 3 436 3 436 3 550 c 0,62,63
 3 552 3 552 5 552 c 2,64,-1
 6 553 l 1,0,-1
736 1462 m 2,65,66
 736 1463 l 0,67,68
 735 1464 l 0,69,70
 735 1464 l 0,71,72
 734 1465 734 1465 733.5 1465 c 0,73,-1
 733 1465 l 2,74,-1
 736 1462 l 2,65,66
21 535 m 1,75,76
 24 433 24 433 60 346 c 0,77,78
 80 299 80 299 109 256 c 128,-1,79
 138 213 138 213 177 174 c 0,80,81
 255 96 255 96 349 57 c 128,-1,82
 443 18 443 18 554 18 c 0,83,84
 598 18 598 18 640 24 c 128,-1,85
 682 30 682 30 721 42.5 c 128,-1,86
 760 55 760 55 796.5 73.5 c 128,-1,87
 833 92 833 92 866.5 117 c 128,-1,88
 900 142 900 142 932 174 c 0,89,90
 1010 252 1010 252 1049 346 c 128,-1,91
 1088 440 1088 440 1088 551 c 2,92,-1
 1088 1462 l 2,93,94
 1088 1463 1088 1463 1088 1464.5 c 128,-1,95
 1088 1466 1088 1466 1089 1467 c 0,96,97
 1089 1468 1089 1468 1089.5 1469 c 128,-1,98
 1090 1470 1090 1470 1090 1471 c 128,-1,99
 1090 1472 1090 1472 1091 1472 c 0,100,101
 1092 1474 1092 1474 1094 1476 c 0,102,103
 1097 1479 1097 1479 1100 1481 c 0,104,105
 1102 1482 1102 1482 1104.5 1482.5 c 128,-1,106
 1107 1483 1107 1483 1109 1483 c 2,107,-1
 1454 1483 l 1,108,-1
 1454 1817 l 1,109,-1
 21 1818 l 1,110,-1
 21 1483 l 1,111,-1
 733 1483 l 2,112,113
 737 1483 737 1483 741 1481 c 0,114,115
 744 1480 744 1480 747 1477 c 0,116,117
 748 1476 748 1476 749 1474.5 c 128,-1,118
 750 1473 750 1473 751 1470 c 0,119,120
 752 1468 752 1468 752.5 1466 c 128,-1,121
 753 1464 753 1464 753 1462 c 2,122,-1
 753 551 l 2,123,124
 753 531 753 531 749.5 512 c 128,-1,125
 746 493 746 493 738.5 475 c 128,-1,126
 731 457 731 457 720 441 c 128,-1,127
 709 425 709 425 695 411 c 0,128,129
 666 382 666 382 630.5 367 c 128,-1,130
 595 352 595 352 554 352 c 0,131,132
 527 352 527 352 502 359 c 0,133,134
 477 365 477 365 455 378 c 128,-1,135
 433 391 433 391 414 410 c 0,136,137
 385 439 385 439 370 474 c 0,138,139
 358 503 358 503 356 535 c 1,140,-1
 21 535 l 1,75,76
EndSplineSet
EndChar

StartChar: braceleft
Encoding: 123 123 70
Width: 1593
VWidth: -3
Flags: W
LayerCount: 2
Fore
SplineSet
1591 -123 m 1,0,-1
 1173 -124 l 2,1,2
 1172 -124 1172 -124 1172 -123 c 2,3,-1
 1048 0 l 1,4,-1
 1047 1 l 2,5,6
 1046 1 l 0,7,8
 1046 2 l 2,9,-1
 587 575 l 1,10,-1
 497 473 l 2,11,12
 496 472 496 472 497 471 c 2,13,-1
 497 -121 l 2,14,15
 497 -122 497 -122 496 -123 c 128,-1,16
 495 -124 495 -124 493 -124 c 2,17,-1
 130 -124 l 2,18,19
 129 -124 129 -124 128 -123 c 2,20,-1
 4 1 l 2,21,22
 4 1 l 0,23,24
 3 2 3 2 3 3 c 2,25,-1
 3 1832 l 2,26,27
 3 1833 3 1833 4 1834 c 128,-1,28
 5 1835 5 1835 6 1835 c 2,29,-1
 370 1835 l 2,30,31
 371 1835 371 1835 372 1834 c 0,32,33
 372 1834 l 2,34,-1
 496 1710 l 2,35,36
 497 1709 497 1709 497 1708 c 2,37,-1
 497 1237 l 1,38,-1
 1027 1833 l 2,39,40
 1027 1833.5 l 0,41,42
 1027 1834 1027 1834 1027.5 1834 c 0,43,-1
 1028 1834 l 2,44,-1
 1029 1835 l 2,45,-1
 1029.5 1835 l 0,46,-1
 1030 1835 l 2,47,-1
 1467 1835 l 2,48,49
 1468 1835 1468 1835 1469 1834 c 0,50,51
 1469 1834 l 2,52,-1
 1593 1710 l 2,53,54
 1594 1709 1594 1709 1594 1708 c 128,-1,55
 1594 1707 1594 1707 1593 1706 c 2,56,-1
 827 844 l 2,57,58
 826 843 826 843 826 842 c 128,-1,59
 826 841 826 841 827 840 c 2,60,-1
 1593 -118 l 2,61,62
 1594 -119 1594 -119 1594 -120.5 c 128,-1,63
 1594 -122 1594 -122 1593 -123 c 2,64,-1
 1591 -123 l 1,0,-1
689 953 m 2,65,66
 687 955 687 955 686 957.5 c 128,-1,67
 685 960 685 960 685 962 c 128,-1,68
 685 964 685 964 685 966 c 0,69,70
 685 969 685 969 686 972.5 c 128,-1,71
 687 976 687 976 690 979 c 2,72,-1
 1435 1817 l 1,73,74
 1369 1817 1369 1817 1236 1817.5 c 128,-1,75
 1103 1818 1103 1818 1036 1818 c 1,76,-1
 391 1092 l 2,77,78
 390 1091 390 1091 390 1090 c 0,79,-1
 389 1089.5 l 0,80,81
 388 1089 388 1089 387.5 1089 c 128,-1,82
 387 1089 387 1089 387 1088 c 0,83,84
 385 1087 385 1087 383 1087 c 0,85,86
 381 1086 381 1086 380 1086 c 128,-1,87
 379 1086 379 1086 378 1085 c 0,88,89
 375 1085 375 1085 372 1085.5 c 128,-1,90
 369 1086 369 1086 366.5 1087.5 c 128,-1,91
 364 1089 364 1089 362 1091 c 0,92,93
 359 1094 359 1094 357 1098 c 128,-1,94
 355 1102 355 1102 355 1106 c 2,95,-1
 355 1818 l 1,96,-1
 21 1818 l 1,97,-1
 21 18 l 1,98,-1
 355 18 l 1,99,-1
 355 595 l 2,100,101
 355 603 355 603 361 609 c 2,102,-1
 461 722 l 2,103,104
 462 724 462 724 464 725 c 128,-1,105
 466 726 466 726 468 727 c 0,106,107
 469 728 469 728 470.5 728 c 128,-1,108
 472 728 472 728 473 728.5 c 128,-1,109
 474 729 474 729 474.5 729 c 128,-1,110
 475 729 475 729 476 729 c 0,111,112
 479 729 479 729 482 728 c 128,-1,113
 485 727 485 727 487.5 725.5 c 128,-1,114
 490 724 490 724 492 722 c 2,115,-1
 492 722 l 1,116,-1
 1055 18 l 1,117,-1
 1437 18 l 1,118,-1
 689 953 l 2,65,66
EndSplineSet
EndChar

StartChar: bar
Encoding: 124 124 71
Width: 1593
VWidth: -3
Flags: W
LayerCount: 2
Fore
SplineSet
3 3 m 2,0,-1
 3 1832 l 2,1,2
 3 1833 3 1833 4 1834 c 128,-1,3
 5 1835 5 1835 6 1835 c 2,4,-1
 370 1835 l 2,5,6
 371 1835 371 1835 372 1834 c 0,7,8
 372 1834 l 2,9,-1
 496 1710 l 2,10,11
 497 1709 497 1709 497 1708 c 2,12,-1
 497 370 l 1,13,-1
 1469 370 l 2,14,15
 1470 370 1470 370 1471 369 c 0,16,17
 1471 369 l 2,18,-1
 1595 245 l 2,19,20
 1596 244 1596 244 1595 243 c 2,21,-1
 1595 -121 l 2,22,23
 1595 -122 1595 -122 1594 -123 c 128,-1,24
 1593 -124 1593 -124 1592 -124 c 2,25,-1
 130 -124 l 2,26,27
 129 -124 129 -124 128 -123 c 2,28,-1
 4 1 l 2,29,30
 4 1 l 0,31,32
 3 2 3 2 3 3 c 2,0,-1
376 370 m 2,33,-1
 373 373 l 1,34,35
 373 372 373 372 374 371 c 0,36,37
 375 370 l 0,38,-1
 376 370 l 2,33,-1
362 358 m 0,39,40
 356 363 356 363 355 371 c 2,41,-1
 355 372 l 1,42,-1
 355 1818 l 1,43,-1
 21 1818 l 1,44,-1
 21 18 l 1,45,-1
 1454 18 l 1,46,-1
 1454 352 l 1,47,-1
 376 352 l 2,48,49
 372 352 372 352 368 354 c 0,50,51
 365 355 365 355 362 358 c 0,39,40
EndSplineSet
EndChar

StartChar: braceright
Encoding: 125 125 72
Width: 1593
VWidth: -3
Flags: W
LayerCount: 2
Fore
SplineSet
1102 1224 m 2,0,1
 1102 1225 1102 1225 1101 1225 c 0,2,3
 1101 1225 l 0,4,5
 1100 1226 l 2,6,-1
 1102 1224 l 2,0,1
1102 1223 m 1,7,-1
 1099 1226 l 2,8,9
 1098.5 1226 l 0,10,-1
 1098 1226 l 0,11,-1
 1097 1226 l 2,12,-1
 1102 1221 l 1,13,-1
 1102 1223 l 1,7,-1
1102 924 m 1,14,-1
 1016 794 l 2,15,16
 1016 793 1016 793 1014 793 c 2,17,-1
 1013 792 l 1,18,-1
 889 916 l 2,19,20
 889 916 l 0,21,-1
 888.5 916 l 0,22,-1
 888 916 l 2,23,-1
 1012 792 l 1,24,-1
 711 792 l 1,25,-1
 587 916 l 2,26,27
 586.5 916 l 0,28,-1
 586 916 l 2,29,-1
 584 917 l 2,30,31
 583 917 l 0,32,33
 583 918 l 2,34,-1
 497 1048 l 1,35,-1
 497 -121 l 2,36,37
 497 -122 497 -122 496 -123 c 128,-1,38
 495 -124 495 -124 493 -124 c 2,39,-1
 130 -124 l 2,40,41
 129 -124 129 -124 128 -123 c 2,42,-1
 4 1 l 2,43,44
 4 1 l 0,45,46
 3 2 3 2 3 3 c 2,47,-1
 3 1832 l 2,48,49
 3 1833 3 1833 4 1834 c 128,-1,50
 5 1835 5 1835 6 1835 c 2,51,-1
 370 1835 l 2,52,53
 371 1835 l 2,54,-1
 372 1834 l 2,55,56
 373 1833 l 0,57,58
 374 1833 l 2,59,-1
 497 1709 l 1,60,-1
 758 1318 l 1,61,-1
 1102 1834 l 2,62,63
 1102 1835 1102 1835 1103 1835 c 128,-1,64
 1104 1835 1104 1835 1105 1835 c 2,65,-1
 1469 1835 l 2,66,67
 1470 1835 1470 1835 1471 1834 c 0,68,69
 1471 1834 l 2,70,-1
 1595 1710 l 2,71,72
 1596 1709 1596 1709 1596 1708 c 2,73,-1
 1596 -121 l 2,74,75
 1596 -122 1596 -122 1595 -123 c 128,-1,76
 1594 -124 1594 -124 1592 -124 c 2,77,-1
 1229 -124 l 2,78,79
 1228 -124 1228 -124 1227 -123 c 2,80,-1
 1103 1 l 2,81,82
 1103 1 l 0,83,84
 1102 2 1102 2 1102 3 c 2,85,-1
 1102 924 l 1,14,-1
736 1290 m 2,86,-1
 735 1291 l 2,87,88
 735 1290 l 0,89,90
 736 1290 l 0,91,92
 736 1290 l 2,86,-1
355 1223 m 2,93,94
 355 1225 355 1225 356 1227.5 c 128,-1,95
 357 1230 357 1230 358 1232 c 128,-1,96
 359 1234 359 1234 360.5 1236 c 128,-1,97
 362 1238 362 1238 363 1239 c 0,98,99
 365 1241 365 1241 368 1242 c 128,-1,100
 371 1243 371 1243 374 1243.5 c 128,-1,101
 377 1244 377 1244 379 1243 c 0,102,103
 383 1242 383 1242 387 1240 c 128,-1,104
 391 1238 391 1238 393 1234 c 2,105,-1
 594 933 l 1,106,-1
 881 933 l 1,107,-1
 1082 1234 l 2,108,109
 1085 1238 1085 1238 1088 1241 c 0,110,111
 1089 1242 1089 1242 1091 1242 c 0,112,113
 1093 1243 1093 1243 1094 1243 c 128,-1,114
 1095 1243 1095 1243 1096 1243 c 0,115,116
 1097 1243 l 0,117,118
 1099 1243 1099 1243 1101.5 1243 c 128,-1,119
 1104 1243 1104 1243 1106 1242 c 128,-1,120
 1108 1241 1108 1241 1110 1240 c 128,-1,121
 1112 1239 1112 1239 1113 1238 c 0,122,123
 1116 1235 1116 1235 1118 1231 c 128,-1,124
 1120 1227 1120 1227 1120 1223 c 2,125,-1
 1120 18 l 1,126,-1
 1454 18 l 1,127,-1
 1454 1817 l 1,128,-1
 1112 1818 l 1,129,-1
 754 1280 l 1,130,-1
 751 1277 l 1,131,-1
 750 1276 l 2,132,133
 747 1273 747 1273 742.5 1272.5 c 128,-1,134
 738 1272 738 1272 734 1272 c 0,135,136
 732 1272 732 1272 730 1273 c 128,-1,137
 728 1274 728 1274 726 1275 c 0,138,139
 722 1277 722 1277 720 1281 c 2,140,-1
 363 1818 l 1,141,-1
 21 1818 l 1,142,-1
 21 18 l 1,143,-1
 355 18 l 1,144,-1
 355 1223 l 2,93,94
EndSplineSet
EndChar

StartChar: asciitilde
Encoding: 126 126 73
Width: 1593
VWidth: -3
Flags: W
LayerCount: 2
Fore
SplineSet
1097 748 m 2,0,-1
 1096 749 l 2,1,2
 1096.5 748.5 l 0,3,-1
 1097 748 l 2,0,-1
379 1086 m 2,4,5
 378.5 1086.5 l 0,6,-1
 378 1087 l 2,7,-1
 379 1086 l 2,4,5
497 909 m 1,8,-1
 497 -121 l 2,9,10
 497 -122 497 -122 496 -123 c 128,-1,11
 495 -124 495 -124 493 -124 c 2,12,-1
 130 -124 l 2,13,14
 129 -124 129 -124 128 -123 c 2,15,-1
 4 1 l 2,16,17
 4 1 l 0,18,19
 3 2 3 2 3 3 c 2,20,-1
 3 1832 l 2,21,22
 3 1833 3 1833 4 1834 c 128,-1,23
 5 1835 5 1835 6 1835 c 2,24,-1
 370 1835 l 2,25,26
 371 1835 l 2,27,-1
 372 1834 l 2,28,29
 373 1833 l 0,30,31
 374 1833 l 2,32,-1
 497 1709 l 1,33,-1
 1102 802 l 1,34,-1
 1102 1832 l 2,35,36
 1102 1833 1102 1833 1103 1834 c 128,-1,37
 1104 1835 1104 1835 1105 1835 c 2,38,-1
 1469 1835 l 2,39,40
 1470 1835 1470 1835 1471 1834 c 0,41,42
 1471 1834 l 2,43,-1
 1595 1710 l 2,44,45
 1596 1709 1596 1709 1596 1708 c 2,46,-1
 1596 -121 l 2,47,48
 1596 -122 1596 -122 1595 -123 c 128,-1,49
 1594 -124 1594 -124 1592 -124 c 2,50,-1
 1229 -124 l 2,51,52
 1228 -124 1228 -124 1228 -123 c 2,53,-1
 1104 0 l 1,54,-1
 1103 1 l 2,55,56
 1102 1 l 0,57,58
 1102 2 l 0,59,60
 1101 2 l 2,61,-1
 497 909 l 1,8,-1
1120 750 m 2,62,63
 1120 746 1120 746 1117.5 741.5 c 128,-1,64
 1115 737 1115 737 1112 734 c 0,65,66
 1107 730 1107 730 1101 730 c 0,67,68
 1098 730 1098 730 1095.5 730.5 c 128,-1,69
 1093 731 1093 731 1090 732 c 128,-1,70
 1087 733 1087 733 1085 735 c 128,-1,71
 1083 737 1083 737 1082 739 c 2,72,-1
 363 1818 l 1,73,-1
 21 1818 l 1,74,-1
 21 18 l 1,75,-1
 355 18 l 1,76,-1
 355 1085 l 2,77,78
 355 1090 355 1090 357 1094 c 128,-1,79
 359 1098 359 1098 363 1101 c 0,80,81
 366 1104 366 1104 370.5 1105 c 128,-1,82
 375 1106 375 1106 379 1105 c 128,-1,83
 383 1104 383 1104 387 1102 c 0,84,85
 388 1101 388 1101 389 1100.5 c 128,-1,86
 390 1100 390 1100 390.5 1099.5 c 128,-1,87
 391 1099 391 1099 391.5 1098.5 c 128,-1,88
 392 1098 392 1098 392.5 1097.5 c 128,-1,89
 393 1097 393 1097 393 1096 c 2,90,-1
 1112 18 l 1,91,-1
 1454 18 l 1,92,-1
 1454 1817 l 1,93,-1
 1120 1818 l 1,94,-1
 1120 750 l 2,62,63
EndSplineSet
EndChar

StartChar: uni007F
Encoding: 127 127 74
Width: 1593
VWidth: -3
Flags: W
LayerCount: 2
Fore
SplineSet
463 1835 m 2,0,-1
 1012 1835 l 2,1,2
 1137 1835 1137 1835 1243 1773 c 0,3,4
 1261 1763 1261 1763 1277 1751.5 c 128,-1,5
 1293 1740 1293 1740 1308.5 1727.5 c 128,-1,6
 1324 1715 1324 1715 1338 1701 c 2,7,-1
 1462 1577 l 2,8,9
 1504 1535 1504 1535 1534 1482 c 0,10,11
 1549 1456 1549 1456 1561 1428.5 c 128,-1,12
 1573 1401 1573 1401 1580 1372 c 0,13,14
 1595 1314 1595 1314 1596 1252 c 2,15,-1
 1596 336 l 2,16,17
 1596 146 1596 146 1461 11 c 128,-1,18
 1326 -124 1326 -124 1136 -124 c 2,19,-1
 586 -124 l 2,20,21
 396 -124 396 -124 262 11 c 2,22,-1
 138 135 l 1,23,-1
 138 135 l 2,24,25
 3 270 3 270 3 460 c 2,26,-1
 3 1375 l 2,27,28
 3 1423 3 1423 11.5 1467 c 128,-1,29
 20 1511 20 1511 37 1552 c 0,30,31
 71 1633 71 1633 138 1700.5 c 128,-1,32
 205 1768 205 1768 286.5 1801.5 c 128,-1,33
 368 1835 368 1835 463 1835 c 2,0,-1
497 370 m 1,34,-1
 1012 370 l 2,35,36
 1024 370 1024 370 1036 373 c 0,37,38
 1042 374 1042 374 1047 376.5 c 128,-1,39
 1052 379 1052 379 1057 382 c 0,40,41
 1067 388 1067 388 1076 396 c 0,42,43
 1083 403 1083 403 1087.5 410 c 128,-1,44
 1092 417 1092 417 1095.5 425 c 128,-1,45
 1099 433 1099 433 1100.5 441.5 c 128,-1,46
 1102 450 1102 450 1102 460 c 2,47,-1
 1102 1342 l 1,48,-1
 586 1342 l 2,49,50
 574 1342 574 1342 563 1339 c 128,-1,51
 552 1336 552 1336 542 1330 c 0,52,53
 539 1328 539 1328 535.5 1325.5 c 128,-1,54
 532 1323 532 1323 529 1320.5 c 128,-1,55
 526 1318 526 1318 523 1315 c 0,56,57
 521 1313 521 1313 519.5 1311.5 c 128,-1,58
 518 1310 518 1310 516.5 1308.5 c 128,-1,59
 515 1307 515 1307 514 1305 c 128,-1,60
 513 1303 513 1303 511 1301 c 128,-1,61
 509 1299 509 1299 508 1296.5 c 128,-1,62
 507 1294 507 1294 505.5 1291.5 c 128,-1,63
 504 1289 504 1289 503 1286 c 0,64,65
 500 1278 500 1278 498 1270 c 0,66,67
 497 1266 497 1266 497 1261 c 128,-1,68
 497 1256 497 1256 497 1252 c 2,69,-1
 497 370 l 1,34,-1
463 1818 m 2,70,71
 371 1818 371 1818 293 1785 c 0,72,73
 267 1774 267 1774 242.5 1760 c 128,-1,74
 218 1746 218 1746 195 1728 c 128,-1,75
 172 1710 172 1710 150 1688 c 0,76,77
 117 1655 117 1655 93 1619.5 c 128,-1,78
 69 1584 69 1584 53 1545 c 128,-1,79
 37 1506 37 1506 29 1464 c 128,-1,80
 21 1422 21 1422 21 1375 c 2,81,-1
 21 460 l 2,82,83
 21 368 21 368 53 290 c 128,-1,84
 85 212 85 212 150 147 c 128,-1,85
 215 82 215 82 293 50 c 128,-1,86
 371 18 371 18 463 18 c 2,87,-1
 1012 18 l 2,88,89
 1073 18 1073 18 1128.5 32 c 128,-1,90
 1184 46 1184 46 1233 75 c 128,-1,91
 1282 104 1282 104 1325 147 c 0,92,93
 1358 180 1358 180 1382 215.5 c 128,-1,94
 1406 251 1406 251 1422 290 c 128,-1,95
 1438 329 1438 329 1446 371.5 c 128,-1,96
 1454 414 1454 414 1454 460 c 2,97,-1
 1454 1375 l 2,98,99
 1454 1435 1454 1435 1440 1491 c 0,100,101
 1433 1519 1433 1519 1421 1545 c 0,102,103
 1417 1554 1417 1554 1413 1563 c 128,-1,104
 1409 1572 1409 1572 1404.5 1580.5 c 128,-1,105
 1400 1589 1400 1589 1395 1597 c 0,106,107
 1385 1614 1385 1614 1374 1630 c 128,-1,108
 1363 1646 1363 1646 1351 1660.5 c 128,-1,109
 1339 1675 1339 1675 1325 1689 c 0,110,111
 1318 1696 1318 1696 1311.5 1702 c 128,-1,112
 1305 1708 1305 1708 1297 1714 c 0,113,114
 1282 1726 1282 1726 1267 1737 c 0,115,116
 1262 1741 1262 1741 1256.5 1744.5 c 128,-1,117
 1251 1748 1251 1748 1245.5 1751.5 c 128,-1,118
 1240 1755 1240 1755 1234 1758 c 0,119,120
 1132 1818 1132 1818 1012 1818 c 2,121,-1
 463 1818 l 2,70,71
1012 1483 m 2,122,123
 1014 1483 1014 1483 1016 1483 c 128,-1,124
 1018 1483 1018 1483 1019.5 1482.5 c 128,-1,125
 1021 1482 1021 1482 1023 1482 c 128,-1,126
 1025 1482 1025 1482 1026.5 1482 c 128,-1,127
 1028 1482 1028 1482 1030 1481.5 c 128,-1,128
 1032 1481 1032 1481 1033 1481 c 0,129,130
 1036 1480 1036 1480 1040 1479 c 128,-1,131
 1044 1478 1044 1478 1047 1477 c 128,-1,132
 1050 1476 1050 1476 1053 1475 c 0,133,134
 1059 1472 1059 1472 1065.5 1468.5 c 128,-1,135
 1072 1465 1072 1465 1077 1461 c 0,136,137
 1080 1459 1080 1459 1083 1456.5 c 128,-1,138
 1086 1454 1086 1454 1088 1451 c 0,139,140
 1104 1435 1104 1435 1112 1416 c 128,-1,141
 1120 1397 1120 1397 1120 1375 c 2,142,-1
 1120 460 l 2,143,144
 1120 455 1120 455 1119.5 449.5 c 128,-1,145
 1119 444 1119 444 1118 438 c 0,146,147
 1116 428 1116 428 1112 418.5 c 128,-1,148
 1108 409 1108 409 1102 400 c 0,149,150
 1099 396 1099 396 1095.5 392 c 128,-1,151
 1092 388 1092 388 1088 384 c 0,152,153
 1085 381 1085 381 1081.5 377.5 c 128,-1,154
 1078 374 1078 374 1074 371.5 c 128,-1,155
 1070 369 1070 369 1066 366 c 0,156,157
 1063 364 1063 364 1060 363 c 128,-1,158
 1057 362 1057 362 1053.5 360.5 c 128,-1,159
 1050 359 1050 359 1047 358 c 128,-1,160
 1044 357 1044 357 1040 356 c 0,161,162
 1033 354 1033 354 1026 353 c 128,-1,163
 1019 352 1019 352 1012 352 c 2,164,-1
 463 352 l 2,165,166
 458 352 458 352 452 353 c 0,167,168
 447 353 447 353 442 354 c 0,169,170
 432 356 432 356 422 360 c 0,171,172
 417 362 417 362 412.5 364.5 c 128,-1,173
 408 367 408 367 403 370 c 0,174,175
 394 376 394 376 387 384 c 0,176,177
 377 394 377 394 370 406 c 0,178,179
 366 412 366 412 363.5 418.5 c 128,-1,180
 361 425 361 425 359 432 c 0,181,182
 355 445 355 445 355 460 c 2,183,-1
 355 1375 l 2,184,185
 355 1380 355 1380 356 1386 c 0,186,187
 356 1387 356 1387 356 1388.5 c 128,-1,188
 356 1390 356 1390 356.5 1391.5 c 128,-1,189
 357 1393 357 1393 357 1394 c 128,-1,190
 357 1395 357 1395 357 1397 c 0,191,192
 359 1407 359 1407 363 1417 c 0,193,194
 364 1420 364 1420 366 1423 c 128,-1,195
 368 1426 368 1426 370 1429 c 0,196,197
 371 1431 371 1431 371.5 1432.5 c 128,-1,198
 372 1434 372 1434 373 1435 c 128,-1,199
 374 1436 374 1436 375 1437 c 128,-1,200
 376 1438 376 1438 376.5 1439 c 128,-1,201
 377 1440 377 1440 378 1441 c 128,-1,202
 379 1442 379 1442 380 1443 c 0,203,204
 382 1445 382 1445 383 1447 c 0,205,-1
 383.5 1448 l 0,206,207
 384 1449 384 1449 384.5 1449 c 128,-1,208
 385 1449 385 1449 385.5 1449.5 c 128,-1,209
 386 1450 386 1450 386 1450.5 c 128,-1,210
 386 1451 386 1451 387 1451 c 0,211,212
 390 1454 390 1454 394 1457.5 c 128,-1,213
 398 1461 398 1461 401 1464 c 0,214,215
 405 1467 405 1467 409 1469 c 0,216,217
 415 1473 415 1473 421.5 1475 c 128,-1,218
 428 1477 428 1477 435 1479 c 0,219,220
 448 1483 448 1483 463 1483 c 2,221,-1
 1012 1483 l 2,122,123
EndSplineSet
EndChar

StartChar: uni0080
Encoding: 128 128 75
Width: 1593
VWidth: -3
Flags: W
LayerCount: 2
Fore
SplineSet
1595 1252 m 2,0,-1
 1595 1069 l 2,1,2
 1595 1050 1595 1050 1594 1031 c 128,-1,3
 1593 1012 1593 1012 1590 995 c 0,4,5
 1585 959 1585 959 1574 925 c 0,6,7
 1569 908 1569 908 1562 892 c 128,-1,8
 1555 876 1555 876 1547 860 c 128,-1,9
 1539 844 1539 844 1529.5 829 c 128,-1,10
 1520 814 1520 814 1509 800 c 0,11,12
 1487 771 1487 771 1461 743 c 0,13,14
 1416 698 1416 698 1365 669 c 0,15,16
 1314 639 1314 639 1257 624 c 128,-1,17
 1200 609 1200 609 1136 609 c 2,18,-1
 500 609 l 2,19,20
 499 609 499 609 498 608 c 128,-1,21
 497 607 497 607 497 606 c 2,22,-1
 497 -121 l 2,23,24
 497 -122 497 -122 496 -123 c 128,-1,25
 495 -124 495 -124 493 -124 c 2,26,-1
 130 -124 l 2,27,28
 129 -124 129 -124 128 -123 c 2,29,-1
 4 1 l 2,30,-1
 4 1 l 0,31,32
 3 2 3 2 3 3 c 2,33,-1
 3 1832 l 2,34,35
 3 1833 3 1833 4 1834 c 128,-1,36
 5 1835 5 1835 6 1835 c 2,37,-1
 1012 1835 l 2,38,39
 1202 1835 1202 1835 1337 1700 c 2,40,-1
 1337 1700 l 1,41,-1
 1461 1577 l 2,42,43
 1595 1442 1595 1442 1595 1252 c 2,0,-1
1076 1439 m 1,44,-1
 1076 1439 l 1,45,-1
 1076 1439 l 1,46,-1
 1076 1439 l 1,44,-1
376 1102 m 2,47,-1
 373 1106 l 1,48,49
 373 1105 373 1105 374 1103 c 0,50,-1
 374.5 1103 l 0,51,52
 375 1103 375 1103 375 1102.5 c 128,-1,53
 375 1102 375 1102 375.5 1102 c 0,54,-1
 376 1102 l 2,47,-1
497 1102 m 1,55,-1
 1012 1102 l 2,56,57
 1030 1102 1030 1102 1046.5 1109 c 128,-1,58
 1063 1116 1063 1116 1076 1129 c 0,59,60
 1080 1133 1080 1133 1083.5 1137.5 c 128,-1,61
 1087 1142 1087 1142 1090 1147 c 0,62,63
 1094 1152 1094 1152 1096 1158 c 0,64,65
 1099 1166 1099 1166 1100.5 1174.5 c 128,-1,66
 1102 1183 1102 1183 1102 1192 c 2,67,-1
 1102 1342 l 1,68,-1
 500 1342 l 2,69,70
 499 1342 499 1342 498.5 1341.5 c 0,71,-1
 498 1341 l 0,72,-1
 497.5 1340 l 0,73,-1
 497 1339 l 2,74,-1
 373 1463 l 2,75,-1
 373 1462 l 2,76,-1
 497 1338 l 1,77,-1
 497 1102 l 1,55,-1
362 1091 m 0,78,79
 356 1096 356 1096 355 1104 c 2,80,-1
 355 1105 l 1,81,-1
 355 1462 l 2,82,83
 355 1465 355 1465 356 1467 c 0,84,85
 356 1468 356 1468 356 1468.5 c 128,-1,86
 356 1469 356 1469 356.5 1469.5 c 128,-1,87
 357 1470 357 1470 357 1470.5 c 128,-1,88
 357 1471 357 1471 357.5 1471 c 128,-1,89
 358 1471 358 1471 358 1471.5 c 0,90,-1
 358 1472 l 0,91,92
 359 1474 359 1474 361 1476 c 0,93,94
 364 1479 364 1479 368 1481 c 0,95,-1
 368.5 1481.5 l 0,96,97
 369 1482 369 1482 369.5 1482 c 128,-1,98
 370 1482 370 1482 370.5 1482 c 128,-1,99
 371 1482 371 1482 371.5 1482 c 128,-1,100
 372 1482 372 1482 372.5 1482 c 128,-1,101
 373 1482 373 1482 373 1482.5 c 128,-1,102
 373 1483 373 1483 373.5 1483 c 128,-1,103
 374 1483 374 1483 374.5 1483 c 128,-1,104
 375 1483 375 1483 375.5 1483 c 0,105,-1
 376 1483 l 2,106,-1
 1012 1483 l 2,107,108
 1019 1483 1019 1483 1026 1482 c 128,-1,109
 1033 1481 1033 1481 1040 1479.5 c 128,-1,110
 1047 1478 1047 1478 1053 1475 c 0,111,112
 1063 1471 1063 1471 1071.5 1465 c 128,-1,113
 1080 1459 1080 1459 1088 1451 c 0,114,115
 1098 1441 1098 1441 1106 1429 c 0,116,117
 1113 1417 1113 1417 1116 1403 c 0,118,119
 1119 1390 1119 1390 1120 1375 c 2,120,-1
 1120 1192 l 2,121,122
 1120 1181 1120 1181 1118 1171 c 128,-1,123
 1116 1161 1116 1161 1112 1151 c 0,124,125
 1109 1145 1109 1145 1105 1139 c 128,-1,126
 1101 1133 1101 1133 1098 1127 c 0,127,128
 1097 1126 1097 1126 1095.5 1124.5 c 128,-1,129
 1094 1123 1094 1123 1093 1121.5 c 128,-1,130
 1092 1120 1092 1120 1090.5 1119 c 128,-1,131
 1089 1118 1089 1118 1088 1116 c 0,132,133
 1072 1100 1072 1100 1053 1093 c 0,134,135
 1047 1090 1047 1090 1040 1088.5 c 128,-1,136
 1033 1087 1033 1087 1026 1086 c 128,-1,137
 1019 1085 1019 1085 1012 1085 c 2,138,-1
 376 1085 l 2,139,-1
 375.5 1085 l 0,140,141
 375 1085 375 1085 374.5 1085 c 128,-1,142
 374 1085 374 1085 373.5 1085 c 128,-1,143
 373 1085 373 1085 372 1085 c 128,-1,144
 371 1085 371 1085 370 1085.5 c 128,-1,145
 369 1086 369 1086 368 1086 c 0,146,147
 366 1087 366 1087 365 1088 c 0,148,149
 363 1090 363 1090 362 1091 c 0,78,79
1454 1375 m 2,150,151
 1454 1421 1454 1421 1446 1463.5 c 128,-1,152
 1438 1506 1438 1506 1422 1545 c 128,-1,153
 1406 1584 1406 1584 1381.5 1619.5 c 128,-1,154
 1357 1655 1357 1655 1325 1688 c 0,155,156
 1282 1731 1282 1731 1232.5 1760 c 128,-1,157
 1183 1789 1183 1789 1128.5 1803.5 c 128,-1,158
 1074 1818 1074 1818 1012 1818 c 2,159,-1
 21 1818 l 1,160,-1
 21 18 l 1,161,-1
 355 18 l 1,162,-1
 355 730 l 2,163,164
 355 732 355 732 355.5 733.5 c 128,-1,165
 356 735 356 735 356.5 736.5 c 128,-1,166
 357 738 357 738 358 739.5 c 128,-1,167
 359 741 359 741 359.5 742 c 128,-1,168
 360 743 360 743 361 743 c 0,169,170
 364 746 364 746 368 748 c 128,-1,171
 372 750 372 750 376 750 c 2,172,-1
 1012 750 l 2,173,174
 1073 750 1073 750 1129 764 c 0,175,176
 1156 771 1156 771 1182 782 c 128,-1,177
 1208 793 1208 793 1232.5 807.5 c 128,-1,178
 1257 822 1257 822 1280 840 c 128,-1,179
 1303 858 1303 858 1325 880 c 0,180,181
 1338 893 1338 893 1349.5 906.5 c 128,-1,182
 1361 920 1361 920 1371.5 934 c 128,-1,183
 1382 948 1382 948 1391 962 c 0,184,185
 1396 969 1396 969 1400 976.5 c 128,-1,186
 1404 984 1404 984 1408 992 c 0,187,188
 1416 1007 1416 1007 1422 1022.5 c 128,-1,189
 1428 1038 1428 1038 1434 1054 c 0,190,191
 1435 1058 1435 1058 1436 1062 c 128,-1,192
 1437 1066 1437 1066 1438.5 1070.5 c 128,-1,193
 1440 1075 1440 1075 1441 1079 c 128,-1,194
 1442 1083 1442 1083 1443 1087 c 128,-1,195
 1444 1091 1444 1091 1444.5 1095.5 c 128,-1,196
 1445 1100 1445 1100 1446 1104 c 128,-1,197
 1447 1108 1447 1108 1447.5 1112.5 c 128,-1,198
 1448 1117 1448 1117 1449 1121 c 0,199,200
 1450 1130 1450 1130 1451 1138.5 c 128,-1,201
 1452 1147 1452 1147 1453 1156 c 0,202,203
 1453 1159 1453 1159 1453.5 1162 c 128,-1,204
 1454 1165 1454 1165 1454 1168 c 128,-1,205
 1454 1171 1454 1171 1454 1174 c 128,-1,206
 1454 1177 1454 1177 1454 1180 c 128,-1,207
 1454 1183 1454 1183 1454 1186 c 128,-1,208
 1454 1189 1454 1189 1454 1192 c 2,209,-1
 1454 1375 l 2,150,151
EndSplineSet
EndChar

StartChar: uni0081
Encoding: 129 129 76
Width: 1725
VWidth: -3
Flags: W
LayerCount: 2
Fore
SplineSet
975 753 m 2,0,-1
 976 753 l 2,1,2
 977 753 977 753 979 753 c 2,3,-1
 1098 694 l 2,4,5
 1099 693 1099 693 1100 693 c 128,-1,6
 1101 693 1101 693 1101.5 694 c 0,7,8
 1102 695 l 0,9,10
 1102 695.5 l 0,11,-1
 1102 696 l 2,12,-1
 1102 1342 l 1,13,-1
 586 1342 l 2,14,15
 567 1342 567 1342 551.5 1335 c 128,-1,16
 536 1328 536 1328 523 1315 c 0,17,18
 516 1308 516 1308 511.5 1301 c 128,-1,19
 507 1294 507 1294 503 1286 c 0,20,21
 501 1282 501 1282 500 1278 c 128,-1,22
 499 1274 499 1274 498 1270 c 0,23,24
 497 1267 497 1267 497 1264 c 128,-1,25
 497 1261 497 1261 497 1258 c 128,-1,26
 497 1255 497 1255 497 1252 c 2,27,-1
 497 370 l 1,28,-1
 973 370 l 1,29,-1
 972 370 l 1,30,-1
 848 494 l 2,31,32
 847 495 l 0,33,34
 847 495 l 0,35,36
 847 496 847 496 846.5 496.5 c 128,-1,37
 846 497 846 497 847 498 c 2,38,-1
 973 751 l 2,39,40
 974 753 974 753 975 753 c 2,0,-1
1060 387 m 2,41,42
 1060 388 l 0,43,44
 1060 388 l 0,45,46
 1059 389 l 2,47,-1
 1060 387 l 2,41,42
1596 445 m 1,48,-1
 1597 444 l 2,49,50
 1598 443 l 0,51,52
 1599 442 l 2,53,-1
 1723 318 l 1,54,55
 1723 317 1723 317 1723 316 c 2,56,-1
 1596 62 l 2,57,58
 1596 61 1596 61 1595 60.5 c 128,-1,59
 1594 60 1594 60 1593.5 60 c 128,-1,60
 1593 60 1593 60 1592 60 c 2,61,-1
 1529 92 l 2,62,63
 1528 93 1528 93 1527 92 c 0,64,65
 1526 91.5 l 0,66,-1
 1525 91 l 0,67,-1
 1525 91 l 0,68,69
 1502 55 1502 55 1476.5 25 c 128,-1,70
 1451 -5 1451 -5 1421.5 -28.5 c 128,-1,71
 1392 -52 1392 -52 1360 -70 c 128,-1,72
 1328 -88 1328 -88 1292 -100 c 0,73,74
 1221 -124 1221 -124 1136 -124 c 2,75,-1
 586 -124 l 2,76,77
 396 -124 396 -124 262 11 c 2,78,-1
 138 135 l 1,79,-1
 138 135 l 2,80,81
 3 270 3 270 3 460 c 2,82,-1
 3 1375 l 2,83,84
 3 1470 3 1470 36.5 1551.5 c 128,-1,85
 70 1633 70 1633 137.5 1700.5 c 128,-1,86
 205 1768 205 1768 286.5 1801.5 c 128,-1,87
 368 1835 368 1835 463 1835 c 2,88,-1
 1012 1835 l 2,89,90
 1044 1835 1044 1835 1074 1831.5 c 128,-1,91
 1104 1828 1104 1828 1133 1820.5 c 128,-1,92
 1162 1813 1162 1813 1189 1801 c 0,93,94
 1230 1784 1230 1784 1267 1759 c 128,-1,95
 1304 1734 1304 1734 1337 1700 c 2,96,-1
 1337 1700 l 1,97,-1
 1461 1577 l 2,98,99
 1528 1510 1528 1510 1562 1428 c 0,100,101
 1596 1347 1596 1347 1596 1252 c 2,102,-1
 1596 445 l 1,48,-1
1474 505 m 1,103,-1
 1472 507 l 2,104,105
 1472.5 506.5 l 0,106,-1
 1473 506 l 0,107,108
 1473 506 l 0,109,110
 1474 506 l 2,111,-1
 1474 505 l 1,103,-1
1413 231 m 2,112,-1
 1463 206 l 1,113,-1
 1577 434 l 1,114,-1
 1466 490 l 2,115,116
 1463 492 1463 492 1460 494 c 0,117,118
 1459 495 1459 495 1458.5 496 c 0,119,-1
 1458 497 l 0,120,121
 1457 499 1457 499 1456 501 c 0,122,123
 1455 505 1455 505 1454 508 c 2,124,-1
 1454 1375 l 2,125,126
 1454 1467 1454 1467 1422 1545 c 128,-1,127
 1390 1623 1390 1623 1325 1688 c 0,128,129
 1292 1721 1292 1721 1257 1745 c 0,130,131
 1221 1769 1221 1769 1182 1785 c 0,132,133
 1169 1790 1169 1790 1155.5 1795 c 128,-1,134
 1142 1800 1142 1800 1129 1803 c 0,135,136
 1101 1810 1101 1810 1072 1814 c 128,-1,137
 1043 1818 1043 1818 1012 1818 c 2,138,-1
 463 1818 l 2,139,140
 371 1818 371 1818 293 1785 c 0,141,142
 254 1769 254 1769 218.5 1744.5 c 128,-1,143
 183 1720 183 1720 150 1688 c 0,144,145
 85 1623 85 1623 53 1545 c 128,-1,146
 21 1467 21 1467 21 1375 c 2,147,-1
 21 460 l 2,148,149
 21 368 21 368 53 290 c 128,-1,150
 85 212 85 212 150 147 c 128,-1,151
 215 82 215 82 293 50 c 128,-1,152
 371 18 371 18 463 18 c 2,153,-1
 1012 18 l 2,154,155
 1094 18 1094 18 1163 40 c 0,156,157
 1197 51 1197 51 1228 69 c 0,158,159
 1243 78 1243 78 1258 87.5 c 128,-1,160
 1273 97 1273 97 1287 109 c 0,161,162
 1315 132 1315 132 1339 160 c 0,163,164
 1351 174 1351 174 1363 190 c 128,-1,165
 1375 206 1375 206 1386 224 c 0,166,167
 1387 226 1387 226 1389 227 c 0,168,169
 1390 228 1390 228 1391 229 c 128,-1,170
 1392 230 1392 230 1394 231 c 128,-1,171
 1396 232 1396 232 1398 232 c 0,172,173
 1400 233 1400 233 1402.5 233 c 128,-1,174
 1405 233 1405 233 1408 232.5 c 128,-1,175
 1411 232 1411 232 1413 231 c 2,112,-1
983 732 m 1,176,-1
 869 503 l 1,177,-1
 1067 404 l 2,178,179
 1071 402 1071 402 1074 398 c 0,180,181
 1075 396 1075 396 1076 394.5 c 128,-1,182
 1077 393 1077 393 1078 390 c 0,183,184
 1078 388 1078 388 1078 386.5 c 128,-1,185
 1078 385 1078 385 1078 384 c 128,-1,186
 1078 383 1078 383 1078 382 c 0,187,188
 1078 380 1078 380 1077 378 c 128,-1,189
 1076 376 1076 376 1074.5 374 c 128,-1,190
 1073 372 1073 372 1071.5 370.5 c 128,-1,191
 1070 369 1070 369 1068 368 c 0,192,193
 1062 364 1062 364 1055 361 c 0,194,195
 1052 360 1052 360 1048.5 358.5 c 128,-1,196
 1045 357 1045 357 1041 356 c 0,197,198
 1034 354 1034 354 1027 353 c 128,-1,199
 1020 352 1020 352 1012 352 c 2,200,-1
 463 352 l 2,201,202
 458 352 458 352 452 353 c 0,203,204
 447 353 447 353 442 354 c 0,205,206
 432 356 432 356 422 360 c 0,207,208
 417 362 417 362 412.5 364.5 c 128,-1,209
 408 367 408 367 403 370 c 0,210,211
 394 376 394 376 387 384 c 0,212,213
 377 394 377 394 370 406 c 0,214,215
 366 412 366 412 363.5 418.5 c 128,-1,216
 361 425 361 425 359 432 c 0,217,218
 355 445 355 445 355 460 c 2,219,-1
 355 1375 l 2,220,221
 355 1379 355 1379 355.5 1382.5 c 128,-1,222
 356 1386 356 1386 356.5 1389.5 c 128,-1,223
 357 1393 357 1393 357 1397 c 0,224,225
 358 1402 358 1402 360 1407 c 0,226,227
 360 1409 360 1409 360.5 1410.5 c 128,-1,228
 361 1412 361 1412 362 1413.5 c 128,-1,229
 363 1415 363 1415 363 1417 c 0,230,231
 364 1419 364 1419 365.5 1421.5 c 128,-1,232
 367 1424 367 1424 368 1426 c 128,-1,233
 369 1428 369 1428 370.5 1430.5 c 128,-1,234
 372 1433 372 1433 373 1435 c 0,235,236
 379 1444 379 1444 387 1451 c 0,237,238
 392 1456 392 1456 397.5 1460.5 c 128,-1,239
 403 1465 403 1465 409 1468.5 c 128,-1,240
 415 1472 415 1472 422 1475 c 0,241,242
 432 1479 432 1479 442 1481 c 128,-1,243
 452 1483 452 1483 463 1483 c 2,244,-1
 1012 1483 l 2,245,246
 1023 1483 1023 1483 1033 1481 c 0,247,248
 1036 1480 1036 1480 1040 1479 c 128,-1,249
 1044 1478 1044 1478 1047 1477 c 128,-1,250
 1050 1476 1050 1476 1053 1475 c 0,251,252
 1059 1472 1059 1472 1065.5 1468.5 c 128,-1,253
 1072 1465 1072 1465 1077 1461 c 0,254,255
 1080 1459 1080 1459 1083 1456.5 c 128,-1,256
 1086 1454 1086 1454 1088 1451 c 0,257,258
 1104 1435 1104 1435 1112 1416 c 128,-1,259
 1120 1397 1120 1397 1120 1375 c 2,260,-1
 1120 696 l 2,261,262
 1120 694 1120 694 1119 692 c 0,263,264
 1119 690 1119 690 1118 689 c 0,265,266
 1116 685 1116 685 1113 682 c 128,-1,267
 1110 679 1110 679 1106 677 c 0,268,269
 1104 676 1104 676 1102 676 c 128,-1,270
 1100 676 1100 676 1098 676 c 128,-1,271
 1096 676 1096 676 1094 676.5 c 128,-1,272
 1092 677 1092 677 1090 678 c 2,273,-1
 983 732 l 1,176,-1
EndSplineSet
EndChar

StartChar: uni0082
Encoding: 130 130 77
Width: 1593
VWidth: -3
Flags: W
LayerCount: 2
Fore
SplineSet
1591 -124 m 1,0,-1
 1185 -123 l 2,1,2
 1184 -123 1184 -123 1183 -122 c 2,3,-1
 1059 2 l 2,4,5
 1058 2 l 2,6,-1
 755 609 l 1,7,-1
 500 609 l 2,8,9
 499 609 499 609 498 608 c 128,-1,10
 497 607 497 607 497 606 c 2,11,-1
 497 -121 l 2,12,13
 497 -122 497 -122 496 -123 c 128,-1,14
 495 -124 495 -124 493 -124 c 2,15,-1
 130 -124 l 2,16,17
 129 -124 129 -124 128 -123 c 2,18,-1
 4 1 l 2,19,-1
 4 1 l 0,20,21
 3 2 3 2 3 3 c 2,22,-1
 3 1832 l 2,23,24
 3 1833 3 1833 4 1834 c 128,-1,25
 5 1835 5 1835 6 1835 c 2,26,-1
 1012 1835 l 2,27,28
 1044 1835 1044 1835 1074 1831.5 c 128,-1,29
 1104 1828 1104 1828 1133 1820.5 c 128,-1,30
 1162 1813 1162 1813 1189 1801 c 0,31,32
 1230 1784 1230 1784 1267 1759 c 128,-1,33
 1304 1734 1304 1734 1337 1700 c 2,34,-1
 1337 1700 l 1,35,-1
 1461 1577 l 2,36,37
 1528 1510 1528 1510 1562 1428 c 0,38,39
 1596 1347 1596 1347 1596 1252 c 2,40,-1
 1596 1069 l 2,41,42
 1596 1051 1596 1051 1594.5 1033 c 128,-1,43
 1593 1015 1593 1015 1590.5 998 c 128,-1,44
 1588 981 1588 981 1584 964 c 0,45,46
 1581 951 1581 951 1577.5 938.5 c 128,-1,47
 1574 926 1574 926 1569.5 914 c 128,-1,48
 1565 902 1565 902 1560 890 c 128,-1,49
 1555 878 1555 878 1549 866 c 0,50,51
 1526 818 1526 818 1493 778 c 128,-1,52
 1460 738 1460 738 1418.5 705.5 c 128,-1,53
 1377 673 1377 673 1330 651 c 0,54,55
 1314 644 1314 644 1297.5 638 c 128,-1,56
 1281 632 1281 632 1264 627 c 128,-1,57
 1247 622 1247 622 1230 619 c 0,58,59
 1229 619 1229 619 1228.5 618.5 c 128,-1,60
 1228 618 1228 618 1228 617 c 0,61,62
 1227 616 1227 616 1227 615 c 1,63,-1
 1104 738 l 1,64,-1
 1104 738 l 1,65,-1
 1228 614 l 1,66,-1
 1594 -119 l 2,67,68
 1595 -120 1595 -120 1594.5 -121.5 c 128,-1,69
 1594 -123 1594 -123 1593 -123 c 2,70,-1
 1591 -124 l 1,0,-1
376 1102 m 2,71,-1
 373 1106 l 1,72,73
 373 1105 373 1105 374 1103 c 0,74,-1
 374.5 1103 l 0,75,76
 375 1103 375 1103 375 1102.5 c 128,-1,77
 375 1102 375 1102 375.5 1102 c 0,78,-1
 376 1102 l 2,71,-1
497 1102 m 1,79,-1
 1012 1102 l 2,80,81
 1031 1102 1031 1102 1047 1109 c 128,-1,82
 1063 1116 1063 1116 1076 1129 c 128,-1,83
 1089 1142 1089 1142 1095.5 1158 c 128,-1,84
 1102 1174 1102 1174 1102 1192 c 2,85,-1
 1102 1342 l 1,86,-1
 500 1342 l 2,87,88
 499 1342 499 1342 498.5 1341.5 c 0,89,-1
 498 1341 l 0,90,-1
 497.5 1340 l 0,91,-1
 497 1339 l 2,92,-1
 373 1463 l 2,93,-1
 373 1462 l 2,94,-1
 497 1338 l 1,95,-1
 497 1102 l 1,79,-1
1076 1439 m 1,96,-1
 1076 1439 l 1,97,-1
 1076 1439 l 1,98,-1
 1076 1439 l 1,96,-1
694 732 m 2,99,-1
 693.5 732 l 0,100,-1
 693 732 l 2,101,-1
 694 732 l 2,99,-1
1445 18 m 1,102,-1
 1088 731 l 1,103,-1
 1087 733 l 1,104,-1
 1087 733 l 2,105,106
 1086 736 1086 736 1086 739 c 128,-1,107
 1086 742 1086 742 1087 745 c 128,-1,108
 1088 748 1088 748 1089 750 c 0,109,110
 1091 754 1091 754 1095 756 c 0,111,112
 1098 758 1098 758 1103 759 c 0,113,114
 1109 760 1109 760 1114 761.5 c 128,-1,115
 1119 763 1119 763 1124.5 764.5 c 128,-1,116
 1130 766 1130 766 1136 768 c 0,117,118
 1152 773 1152 773 1167.5 778.5 c 128,-1,119
 1183 784 1183 784 1199 791 c 0,120,121
 1244 812 1244 812 1284 843 c 128,-1,122
 1324 874 1324 874 1355.5 912.5 c 128,-1,123
 1387 951 1387 951 1409 997 c 0,124,125
 1412 1003 1412 1003 1414.5 1009 c 128,-1,126
 1417 1015 1417 1015 1419.5 1020.5 c 128,-1,127
 1422 1026 1422 1026 1424.5 1032 c 128,-1,128
 1427 1038 1427 1038 1429 1044 c 0,129,130
 1433 1056 1433 1056 1436.5 1068 c 128,-1,131
 1440 1080 1440 1080 1443 1092 c 0,132,133
 1447 1108 1447 1108 1449.5 1124.5 c 128,-1,134
 1452 1141 1452 1141 1453 1158 c 128,-1,135
 1454 1175 1454 1175 1454 1192 c 2,136,-1
 1454 1375 l 2,137,138
 1454 1421 1454 1421 1446 1463.5 c 128,-1,139
 1438 1506 1438 1506 1422 1545 c 0,140,141
 1390 1623 1390 1623 1325 1688 c 0,142,143
 1292 1721 1292 1721 1257 1745 c 0,144,145
 1221 1769 1221 1769 1182 1785 c 0,146,147
 1169 1790 1169 1790 1155.5 1795 c 128,-1,148
 1142 1800 1142 1800 1129 1803 c 0,149,150
 1101 1810 1101 1810 1072 1814 c 128,-1,151
 1043 1818 1043 1818 1012 1818 c 2,152,-1
 21 1818 l 1,153,-1
 21 18 l 1,154,-1
 355 18 l 1,155,-1
 355 730 l 2,156,157
 355 732 355 732 355.5 733.5 c 128,-1,158
 356 735 356 735 356.5 736.5 c 128,-1,159
 357 738 357 738 358 739.5 c 128,-1,160
 359 741 359 741 359.5 742 c 128,-1,161
 360 743 360 743 361 743 c 0,162,163
 364 746 364 746 368 748 c 128,-1,164
 372 750 372 750 376 750 c 2,165,-1
 691 750 l 2,166,167
 697 750 697 750 702 747 c 128,-1,168
 707 744 707 744 710 739 c 2,169,-1
 1070 18 l 1,170,-1
 1445 18 l 1,102,-1
362 1091 m 0,171,172
 356 1096 356 1096 355 1104 c 2,173,-1
 355 1105 l 1,174,-1
 355 1462 l 2,175,176
 355 1465 355 1465 356 1467 c 0,177,178
 356 1468 356 1468 356 1468.5 c 128,-1,179
 356 1469 356 1469 356.5 1469.5 c 128,-1,180
 357 1470 357 1470 357 1470.5 c 128,-1,181
 357 1471 357 1471 357.5 1471 c 128,-1,182
 358 1471 358 1471 358 1471.5 c 0,183,-1
 358 1472 l 0,184,185
 359 1474 359 1474 361 1476 c 0,186,187
 364 1479 364 1479 368 1481 c 0,188,-1
 368.5 1481.5 l 0,189,190
 369 1482 369 1482 369.5 1482 c 128,-1,191
 370 1482 370 1482 370.5 1482 c 128,-1,192
 371 1482 371 1482 371.5 1482 c 128,-1,193
 372 1482 372 1482 372.5 1482 c 128,-1,194
 373 1482 373 1482 373 1482.5 c 128,-1,195
 373 1483 373 1483 373.5 1483 c 128,-1,196
 374 1483 374 1483 374.5 1483 c 128,-1,197
 375 1483 375 1483 375.5 1483 c 0,198,-1
 376 1483 l 2,199,-1
 1012 1483 l 2,200,201
 1026 1483 1026 1483 1040 1479 c 128,-1,202
 1054 1475 1054 1475 1066 1468 c 128,-1,203
 1078 1461 1078 1461 1088 1451.5 c 128,-1,204
 1098 1442 1098 1442 1105 1429 c 0,205,206
 1109 1423 1109 1423 1111.5 1416.5 c 128,-1,207
 1114 1410 1114 1410 1116 1403.5 c 128,-1,208
 1118 1397 1118 1397 1119 1390 c 0,209,210
 1119 1386 1119 1386 1119.5 1382.5 c 128,-1,211
 1120 1379 1120 1379 1120 1375 c 2,212,-1
 1120 1192 l 2,213,214
 1120 1181 1120 1181 1118 1171 c 128,-1,215
 1116 1161 1116 1161 1112 1151 c 0,216,217
 1109 1145 1109 1145 1105.5 1139 c 128,-1,218
 1102 1133 1102 1133 1097.5 1127 c 128,-1,219
 1093 1121 1093 1121 1088 1116 c 0,220,221
 1072 1100 1072 1100 1053 1092.5 c 128,-1,222
 1034 1085 1034 1085 1012 1085 c 2,223,-1
 376 1085 l 2,224,-1
 375.5 1085 l 0,225,226
 375 1085 375 1085 374.5 1085 c 128,-1,227
 374 1085 374 1085 373.5 1085 c 128,-1,228
 373 1085 373 1085 372 1085 c 128,-1,229
 371 1085 371 1085 370 1085.5 c 128,-1,230
 369 1086 369 1086 368 1086 c 0,231,232
 366 1087 366 1087 365 1088 c 0,233,234
 363 1090 363 1090 362 1091 c 0,171,172
EndSplineSet
EndChar

